<?xml version="1.0" standalone="no"?><!DOCTYPE svg PUBLIC "-//W3C//DTD SVG 20010904//EN"
 "http://www.w3.org/TR/2001/REC-SVG-20010904/DTD/svg10.dtd"><svg xmlns="http://www.w3.org/2000/svg" width="600.000000pt" height="603.000000pt" preserveAspectRatio="xMidYMid meet" version="1.0" viewBox="0 0 600.000000 603.000000"><g fill="#000000" stroke="none"><path d="M497.6 4.5c-1.3 3.3-1.6 5.8-1.2 9.3.3 2.6 1 11 1.5 18.7s1.3 15.1 1.7 16.5c.5 2 .1 1.7-2.4-1.5-1.8-2.3-3.2-5.2-3.2-6.8 0-4.2-2.7-9.2-6.5-12.1-1.8-1.4-3.5-2.3-3.8-2-.9.9 1.6 8.8 3.7 11.9 1.1 1.6 3.6 4.5 5.4 6.3 1.8 1.9 3.1 3.6 2.8 3.9s-4.6.5-9.6.4c-7.4-.2-9 .1-9 1.3 0 .8.5 1.8 1 2.1.6.4 1.9 2.4 3 4.5 1.5 3 2.4 3.7 4 3.3 2.1-.6 8-6.7 8-8.3 0-1.9 4.7-1 6.8 1.3 1.2 1.2 3.8 5.4 5.8 9.2 4 7.6 5.4 9.8 6.1 9.1.3-.2-1.2-3.3-3.2-6.8-5.3-8.9-7.5-15.1-7.5-20.7 0-6.9 2.2-9.2 8.7-9.6 6-.3 12.3-2.2 12.3-3.7 0-.6-.7-.7-1.6-.4-.8.3-1.3.2-1-.3.6-.9-3.6-3.1-5.9-3.1-.7 0-3.2 1.6-5.5 3.5-2.4 2-4.5 3.3-4.8 3-.8-.7 4.9-6.5 6.4-6.5.7 0 2.2-1.2 3.3-2.6 1.6-2.1 2.1-4.1 2.1-9.2V8.6l-3 2.9c-3.4 3.3-7 10.1-7 13.4 0 1.2-.8 3.6-1.7 5.4-1 1.8-2.3 4.8-3 6.7-1.1 3.2-1.2 2.7-.9-5.5.2-7 .8-9.8 2.5-12.5 1.1-1.9 2.1-5.1 2.1-7 0-3.5-2.8-12-3.9-12-.3 0-1.4 2-2.5 4.5m5.3 7.5c0 1.9-.6 4.3-1.3 5.3-1.2 1.6-1.4.8-1.4-6-.1-7.2.1-7.6 1.3-5.3.8 1.4 1.4 4.1 1.4 6m-4 .2c-.1 6.8-.2 7.1-1.1 3.5-.9-3.4-.4-10.7.7-10.7.3 0 .5 3.3.4 7.2m14.5 5c-1.1 6.7-1.4 7.6-3 8.2-.9.4-1.8.5-2 .3-.5-.5 4.1-11.7 4.8-11.7.4 0 .5 1.5.2 3.2m-4.4 2.7c-2.3 4.6-3.5 5.5-2 1.5 1.6-4 3.1-6.6 3.7-6.1.2.3-.5 2.3-1.7 4.6m7 9.1c1.2.8 1.2 1-.5 1-1.1 0-3.1.3-4.5.6-2.4.5-2.4.5-.6-1 2.3-1.8 3.5-2 5.6-.6m-27.6 5.6c1 2.5 2 4.3 2.3 4 .2-.2-.3-1.8-1.2-3.6s-1.4-3.4-1.1-3.7c.4-.4 4.6 6.9 4.6 8.1 0 .2-.7.6-1.5 1-1.1.4-2.2-.9-4-4.4-2.7-5.3-2.9-6-1.7-6 .4 0 1.5 2.1 2.6 4.6M517 32c-.8.5-3.1.9-5 .9-3.2-.1-3.3-.2-1-.9 1.4-.4 3.6-.8 5-.9 2-.1 2.2.1 1 .9m-31.3 18.6c-.3.3-1.2.4-1.9.1-.8-.3-.5-.6.6-.6 1.1-.1 1.7.2 1.3.5m4.6 2.7c-2.4 2.9-5.6 5.6-6.5 5.7-.4 0-1-1.1-1.4-2.5-.3-1.4-1-2.5-1.4-2.5s-1-.6-1.3-1.3c-.3-.9 1.3-1.2 6-1.3l6.4-.2z"/><path d="M43.6 4.6c-.4 1.5-2 4.3-3.6 6.3-4 5-4.7 9.1-2.3 13.3 1.1 1.8 2 5.1 2.1 7.3 0 3.1-.1 3.4-.7 1.6-.8-3-2.4-3.7-4-1.7-1.4 1.7-.1 5 2.3 5.9 1.2.5 1.1 1.7-.6 8.4-1.9 7.6-4.7 14.1-3.3 7.8 1.3-5.7.6-16.7-1.3-19.9-3.1-5.3-4.6-4.5-5.9 3.1-1.1 6.4-1.1 7.1 1.3 12.8 1.4 3.3 3 6.8 3.6 7.9 1.1 2.1-.8 8-2.3 7-.5-.3-.6.1-.3.9.5 1.3-3 10.7-4 10.7-.3 0-.2-1.5.1-3.3.6-3.6-1.5-6.4-4.2-5.3-2.2.8-1.8 3.8.9 7.5l2.5 3.3-4 7.8c-2.1 4.3-3.9 8.3-3.9 8.9s-.4 1.1-.8 1.1c-1.4 0-.8-4.3 1.7-11.7l2.5-7.1-3.7-4.7c-2-2.6-3.8-5.2-4-5.8-.9-2.6-1.6.3-2.2 10.3-.7 9.8-.6 10.7 1.4 12.9 1.2 1.3 2.1 2.9 2.2 3.5 0 1.8.9 12.7 1.4 18.7.2 3.1 1.6 10.1 3.1 15.5 1.4 5.4 3.1 11.8 3.7 14.1.6 2.4 1.4 4.3 1.9 4.3s.7-.8.5-1.8c-.3-.9-1.5-5.2-2.8-9.4-2.1-7.4-2.1-8-.5-12.1.9-2.5 3.8-6.4 6.7-9.2 5.1-4.9 8.9-11 8.9-14.3 0-2.5-2-8.2-2.8-8.2-1.1 0-4.3 6.1-3.7 7 .3.5-1.3 4.6-3.5 9.1-3.5 7.2-4 7.9-4 5 0-3.7 1.9-7.8 4.9-10.5 1.2-1.1 2.1-2.4 2.1-2.9 0-1.5-5 3.4-6.6 6.5-.8 1.5-1.4 4.7-1.4 7.1 0 4.7-1.7 10.7-3 10.7-.9 0-2-6-2-11.3 0-3 .5-3.9 2.4-4.6 3.4-1.4 5-7.1 2.4-8.7-1.4-.9-4 2.6-3.5 4.7.5 2-.9 4.7-1.9 3.7-1.6-1.7 1.3-11 6.9-22.2l6.2-12.1 5.1-.6c10-1.2 12.4-2.6 15-8.5 1.3-3 2.8-5.4 3.4-5.4.5 0 1-.5 1-1 0-1.2-2.5-1.3-4.8-.1-.9.5-3.6 1.4-5.8 2-2.3.6-4.8 2.1-5.7 3.4-2.6 3.9-7.7 9.2-7.7 8.1 0-.6 1.5-4.4 3.4-8.5s3.9-9.3 4.5-11.7c1.3-4.8 4.8-7.7 8.1-6.7 4.2 1.3 6.9-4.7 3.4-7.6-2-1.6-4.8-.1-5.2 3C43 40 42 41.5 40.9 42c-2.3 1.3-2.3 1.7-.4-6.4.9-3.7 1.8-10.1 2-14.4.3-4.2.9-9.3 1.4-11.2.7-3.3.8-3.2 1.2 2.5.2 3.6-.1 6.9-.8 8.3-1.5 2.9-1.6 3.2-.4 3.2 1.5 0 3.1-6.2 2.6-10-.3-1.9-.6-5.4-.6-7.8-.2-4.7-1.3-5.5-2.3-1.6m-1.5 9.1c-.6 2.1-1.1 5.5-1.1 7.5 0 4.4-1.2 4.9-2.9 1.2-1.3-2.9-.9-5 2.1-10.1 2.5-4.2 3.3-3.7 1.9 1.4m-9.7 26.7c.4 2.8.2 7.6-.3 10.6s-.9 4.6-1 3.5c0-1.1-1-3.7-2.1-5.8-2-3.8-2.6-9.2-1.2-11.4.5-.8 1.3 1.2 2.1 5 .8 3.4 1.5 5.7 1.8 5.1.2-.7-.3-4.2-1.2-7.9-1.8-8-1.8-8.5 0-6.1.7 1 1.6 4.1 1.9 7m5.6-6.9c0 .8-.4 1.5-1 1.5-.5 0-1-.7-1-1.5s.5-1.5 1-1.5c.6 0 1 .7 1 1.5m10 6c0 1.5-.6 2.5-1.4 2.5-1.9 0-2.8-1.4-2-3.4 1-2.5 3.4-1.9 3.4.9m-2.2 20.7c-.2.6-2.9 2.5-5.9 4.1l-5.4 3 3-3.2c3.8-4.1 9.2-6.7 8.3-3.9m1.5 3.2c-1.6 3.5-4.1 5.3-8.1 6.1-1.3.2-3.2.7-4.3 1-4.3 1.4-1.4-1.3 4.6-4.3 3.6-1.8 6.8-3.9 7.1-4.7.4-.8 1-1.5 1.5-1.5s.1 1.5-.8 3.4m-23.6 7.1c.3.9.3 1.9-.1 2.2-.7.7-3.6-1.6-3.6-2.8 0-1.5 3-1 3.7.6m-8.4 3.8c2.5 3.3 2.5 3.4 1 8.1-.9 2.6-1.8 4.4-2.1 4.2-.3-.3-.9-3.4-1.3-6.8-.8-6.1-.8-6.1-.4 1.7.3 7.3.2 7.8-1.2 6-1.5-2-1.3-10.7.3-14.8.8-2.2.8-2.2 3.7 1.6m18.5 27.8c-1 2.8-7.4 10.9-8.7 10.9-.4 0 1.3-4.1 3.8-9.1 3.9-7.7 4.7-8.8 5.2-6.8.3 1.3.2 3.6-.3 5m-12.8-.2c0 2.2-1.6 3.6-2.4 2.2-.8-1.2.3-4.1 1.5-4.1.5 0 .9.9.9 1.9"/><path d="m140.8 9.6-.3 4.6-2.7-2.1c-3.5-2.8-3.8-2.7-3.8 1.5 0 4.1 1.3 6.8 4.5 9.8 1.4 1.2 2.5 3.7 2.8 6.1.5 3.7.2 4.4-4.4 9.5l-5 5.5.6-3.5c.3-1.9 1.1-4.5 1.7-5.8 1.7-3.2-.3-10.7-5.2-19.5l-4-7.2v8.6c0 7.8.3 9.3 3.1 14.5 4.2 7.8 3.9 10.8-1.9 20.5-2.6 4.3-4.9 7.8-5.2 7.9-.3 0-.4-3.1-.2-7 .3-4-.1-8.3-.8-10.2-1.7-4.6-2.4-10.6-2-18.9.1-2.7-4.8-12.9-6.2-12.9-.4 0-.8 1-.8 2.2 0 1.3-.7 3.2-1.5 4.2-.8 1.1-1.5 3.2-1.5 4.7 0 2.6 0 2.6-4.5 1.6-2.5-.6-4.8-.8-5.1-.4-.3.3.4 2 1.6 3.6 2.2 3.1 2 5.1-.5 5.1-.7 0-2.4 1.4-3.6 3.1-2.2 3.1-2.2 3.2-.4 4.5 2.4 1.8 9.6 1.8 12 0 1.3-.9 2.7-1.1 4.2-.5 1.3.5 2.9.6 3.7.3 2.2-.8 3.5 2.6 4.1 10.8.5 6.2.4 7-.7 5.3-2.9-4.4-7.7-8.5-10-8.5-2.6.1-13.2 5-10.8 5 .8 0 3.3.9 5.5 2 4.5 2.2 7.7 2.5 10.5 1 1.6-.9 2.2-.5 3.5 1.9 2.1 4.2 2 5.3-2 17-2.5 7.7-3.8 13.9-5 24.9-.9 8.1-1.9 15.8-2.2 17.2-.4 1.8-.2 2.2.5 1.5.6-.6 1.6-5.1 2.3-10.2 1.6-12.4 3.1-14.9 10.1-15.7 4-.5 6.1-.3 8.6 1 1.8.9 5 1.8 7.1 2.1 3.2.4 4 .2 5.5-2.2 1-1.4 1.8-3.9 1.9-5.3.3-3.9-3.5-4-11.4-.2-4.2 2-7.9 3-10.9 3h-4.5l6.9-6.5c6.3-5.9 7.4-6.5 11.2-6.5 5.4 0 7.4-2.5 7.4-9.2 0-5.5-.8-5.8-5.8-2.8-2.2 1.4-4.1 3.9-5.7 7.4-1.3 3.1-3.7 6.3-5.5 7.6l-3 2.2 1.2-2.9c.7-1.5 2.3-3.8 3.5-5 2-1.9 3.1-7.1 2.4-11.5 0-.4.4-1.9.9-3.4.9-2.2.8-2.5-.6-2-.8.3-1.7.6-2 .6-1.2 0-3.4 6.5-3.4 10.3 0 7.3-2.8 14.6-7.8 20.4-2.5 2.9-4.7 5.1-4.9 4.9-.8-.7 3.6-17.4 6.2-23.7 4.2-10.3 11.4-21.8 14.1-22.5 4.6-1.2 7.3.3 8 4.4 1.4 7.6 6 13.9 12.7 17.3 2.1 1.1 4 2.6 4.4 3.4.3.8.9 1.2 1.5.9.5-.4.5-1-.1-1.8-.6-.7-1.7-3.8-2.5-7.1-.9-3.2-2.3-7-3.3-8.4-2-3.1-7.4-8.1-8.8-8.1-.5 0 .8 1.7 3.1 3.7 3.7 3.5 8.1 10 7.2 10.8-.2.2-2.9-2.8-6-6.8-6.4-8.1-6.4-10.1.2-9.1 3.5.6 4.2.2 8.5-3.7 4.5-4.1 4.6-4.3 2.4-5.1-4.4-1.7-15 2-16.7 5.8-.9 1.9-1.9 2.4-4.6 2.4-1.9 0-3.7-.4-4-.9s1.4-3.1 3.9-5.9c3.7-4.1 5.2-5 8.8-5.5 2.6-.4 6.2 0 9.1.8 5.1 1.6 6.2 1.3 11.8-2.8 2.6-1.9 2.7-2.2 1.1-3.9-1-1.1-3-1.8-5.4-1.8h-3.7l.5-7.5c.7-8.7-.6-10.1-5.6-6.6-2.8 2-3 2.1-4.3.4-.7-1-2.6-2.4-4.1-3.1-1.5-.6-3-1.9-3.3-2.7-1.1-2.9-2.3-1.5-2.6 3.1m5.2.9c4.5 2.3 5.1 4.3 3.4 10.4-1.7 5.6-2.7 5.9-5.7 1.9-1.8-2.4-2.2-4.8-1.8-11.1.1-3.1.3-3.2 4.1-1.2m14 5.3c0 5.9-1 8-4.6 10.3-4.6 2.8-6.4 2-5.5-2.3 1.1-4.8 2.9-8 5.9-10.5 3.2-2.7 4.2-2.2 4.2 2.5M139.7 17c.3 1.4 1 3.1 1.6 3.8 1.3 1.6.4 2.4-1.7 1.6-2-.8-4.6-5.5-4.6-8.4 0-1.8.2-1.9 2-.8 1.2.7 2.3 2.4 2.7 3.8m-24.8 1.6c2.5 4.2 2.8 9.4.6 9.4-.8 0-1.5.4-1.5 1 0 1.8-2.9 1.1-4-.9-1.5-2.9-1.2-6.5.8-10 .9-1.7 1.8-3.1 1.9-3.1 0 0 1 1.6 2.2 3.6M133 28.8c1.4 7.8-.1 7-2.6-1.4-3.6-12-3.7-13.4-.9-8.1 1.4 2.6 3 6.9 3.5 9.5m-4-2.4c1 3.6 1.6 6.6 1.4 6.6-1.1 0-4.4-8.7-4.4-11.4 0-4.1.8-2.9 3 4.8m-25.2-1.1c3.1 1.3 7.9 6.4 6.9 7.3-.3.3-1.3.1-2.4-.5-1-.5-2.6-1.2-3.5-1.5-1.5-.4-5.6-6.6-4.4-6.6.2 0 1.7.6 3.4 1.3m44.6 2.8c3.5 2.8 3.3 3.9-.9 3.9-3.3 0-5.5-2-5.5-4.9 0-1.8 3.6-1.2 6.4 1m17.4-.5c3 .9 2.8 2.6-.7 4.7-3.4 2-4.3 2-9.3.6-4.5-1.2-4.8-2.3-1-4.3 2.9-1.6 7.2-2 11-1m-49.7 8c-1.1 2.5-2.7 3-5.1 1.4-1.2-.8-1-1.4 1.5-4s3-2.8 3.8-1.4c.6 1 .5 2.5-.2 4m-8.2-2.7c1 .7 1.1 1.3.2 2.9-1.6 3-4.6 4.4-8.2 3.8-3.8-.6-4.1-.9-3.3-3 1.3-3.4 8.2-5.7 11.3-3.7m50.1 6.8c0 .4-1 1.7-2.2 3-1.7 1.8-3.2 2.3-7.2 2.3-6.1 0-5.2-1.4 2.6-4 6.1-2.1 6.8-2.3 6.8-1.3M112.5 50c.4.6-1.4 1-4.7 1-3.8 0-4.9-.3-3.8-1 2-1.3 7.7-1.3 8.5 0m37.3 9c3.4 4.6 6.2 8.8 6.2 9.3s-2.1-.6-4.7-2.5c-4.9-3.5-7.8-7.4-9.3-12.8-1.4-5 .8-3.3 7.8 6M114 53c0 1.1-.4 1.2-3.5 1.3-6.8.1-7.7-1.7-1-2.1 2.5-.1 4.5.2 4.5.8m14.7 12.2c.1 2.9-.3 6-.9 6.8-.6 1-.7.2-.3-2.5.4-2.9.3-3.6-.4-2.5-.9 1.3-1.1 1.3-1.1-.2 0-1.4 2-6.8 2.5-6.8.1 0 .2 2.4.2 5.2m10 3c-3.5 5-5.6 7.2-6.2 6.6-.9-.9 3.1-7.5 5.3-8.7 2.4-1.3 2.7-.5.9 2.1m2.8 2c-.4 1.8-1.2 3.9-1.7 4.5-1 1.3-4.8 1.8-4.8.7 0-.6 6.3-8.4 6.8-8.4.2 0 0 1.5-.3 3.2m-.2 15.5c-.7.2-1.9.2-2.5 0-.7-.3-.2-.5 1.2-.5s1.9.2 1.3.5m1.7 1.9c0 1.1-2.3 4.9-3.4 5.6-1.1.8-2.9.4-7.6-1.5-2.5-.9-2.5-1 1.5-2.8 3.8-1.8 9.5-2.6 9.5-1.3"/><path d="M240.1 13.7c-.6 1.2-2.1 1.8-4.3 1.8-2.9 0-3.3.4-3.6 2.7-.3 2.7.4 3.3 3.6 2.9 1.6-.2 1.5.6-.7 7.2-1.5 4.4-3.5 7.2-9 12.7l-7 7 1.3-4.3c.7-2.3 2.5-6.2 4-8.6 3.8-6 4.4-10.1 1.7-12.5-1.2-1.1-2.2-1.7-2.4-1.5-.1.2-1.5 2.9-3 6-2.9 6.1-3.2 8-1.7 10.9 1.2 2.3-.3 9.7-3 15-3.7 7.3-7.4 16.7-8.5 22l-1.2 5.5-.8-4.2c-.4-2.4-1.1-4-1.6-3.7s-.9-.6-.9-2c0-1.6-.6-2.6-1.4-2.6s-1.7-.7-2-1.6c-1-2.6-.6-3 .9-1 .8 1.1 1.5 1.6 1.5 1 0-.5-1.8-3.1-4-5.8-2.2-2.6-4-5.2-4-5.8 0-.5-.4-.7-.9-.4-.5.4-.5 2.4.1 4.8.5 2.4.8 5.7.6 7.5-.2 1.7-.1 3 .3 2.7.4-.2 1.2.9 1.9 2.5 1.2 3 3.5 4.6 5 3.6.5-.3 1.7.7 2.7 2.2 1.4 2.1 1.9 5.1 2 13 .2 5.7 0 10.3-.5 10.3-.4 0-1.5-1.4-2.4-3-1.7-2.9-1.7-3.1.2-5 2.5-2.5 2.5-4.6.1-5.9-1.4-.8-2.2-.7-3.2.6-1.2 1.4-1.1 1.5.8.9 2.4-.8 3.6.4 2.3 2.4-.7 1.1-1.1 1.1-2.3.1-1.3-1-1.5-.9-1 1.1.4 2.2.4 2.2-1.1.4-.8-1-1.3-2.3-1-2.8s-.6-.6-2-.2c-2.3.5-2.6.3-2.6-2 0-3 2.4-3.5 3.9-.9 1 1.7 1 1.7 1.1.1 0-1.9-2.8-3.8-4.7-3.1-.7.3-1.3 2-1.3 3.9 0 2.7.4 3.4 1.9 3.4 1.1 0 2.3.4 2.6 1 .4.6-.6 1-2.2 1-4.8 0-7.3 4.8-3.7 6.8 2.9 1.6 5.4.3 5.4-2.9 0-1.6.4-2.9.9-2.9 1.6 0 7.1 6.9 7.7 9.8.3 1.5 1 4.3 1.5 6.2s.9 3.9.9 4.3c0 1.2-6.1-2.4-8.4-5.1-2.1-2.2-14-7.4-15-6.5-.2.3 1.3 2.8 3.5 5.6 2.1 2.9 3.9 5.6 3.9 6.1s2.5.6 5.6.2c7.9-.9 10.3.8 14.9 10.4 1.9 4.3 3.8 10 4.2 12.9.3 2.8 1 5.1 1.5 5.1.4 0 .6-1 .4-2.3-.3-1.2-.8-3.9-1.1-6.1-.3-2.1-1.3-5.3-2.2-7.1-2.1-4.4-1.3-7.1 4.3-13.9 3.2-3.8 5.4-5.6 6.9-5.6 4.1 0 17.5-12.2 17.5-15.9 0-.7-3.4.6-8.1 3.1-7.1 3.8-8.6 5.1-12.5 10.9-2.4 3.7-5.1 7.3-6 8-1.5 1.2-1.6 1.1-.9-1.1.4-1.4 1.6-4.1 2.5-6 1-1.9 1.9-4.4 2.1-5.5.4-2.8-1.1-13.4-2-13.9-1.1-.7-6.1 11.2-6.1 14.7 0 1.7.7 3.8 1.5 4.7 1.3 1.4 1.4 2.6.4 7.1-1.8 8.4-2.4 8.8-4.5 3.3-1.5-3.8-1.9-7.5-1.9-16.7V89l3-2.5c1.7-1.3 3.9-2.7 5-3.1 4.1-1.4 7.7-4.8 10-9.5 1.7-3.6 2-4.9 1-4.9-.8 0-1.7.4-2 1-.3.5-1.4 1-2.3 1-3.4 0-9.1 4.9-10.2 8.8-1.1 4-3.6 7.9-4.6 7-.7-.8 1.3-12 3.2-18 1.9-5.9 6.3-9.8 10.9-9.8 5.1 0 6.4.9 7.1 4.6.5 2.9 1.6 4 5.8 6.4 6.7 3.9 8 3.9 5.7-.3-1.1-1.7-2.2-4.3-2.6-5.7-.6-2-.5-2.3.6-1.3 3 2.9 8.5-.1 5.9-3.2-1.4-1.7-.8-3.1.9-2 .6.3 1.1 1.7 1.1 3.1 0 2.2.4 2.5 2.8 2.2 2.1-.2 2.7-.8 2.7-2.8 0-1.8-.6-2.6-2.3-2.8-1.4-.2-2.1-.9-2-1.9.2-.8-.5-2-1.4-2.6-1.4-.9-2.2-.7-4.1 1.1-1.7 1.6-3.6 2.2-7.1 2.2-2.9 0-4.5-.4-4.1-1 .3-.6 2.3-1 4.3-1s4.8-.8 6.3-1.8c3.5-2.3 7.1-6.2 6.7-7.1-.2-.4-3.2-.2-6.6.3-5.9 1-6.6 1.4-9.1 5.1-2.2 3.3-3.7 4.3-8.6 5.8-3.3 1-6.8 2.3-7.8 2.8-1.7.9-1.7.8-.3-1.9 4.8-9.2 16.8-21.4 22.5-22.9 3.3-.8 11 3.4 13.1 7.2.9 1.7 3.2 3.9 5.2 4.9 3 1.7 3.9 1.8 6.6.7l3-1.3-3.1-4.4c-3.3-4.6-7.3-6.6-11.9-5.7-1.4.3-4.1-.3-5.9-1.3-3.1-1.5-3.2-1.8-1.4-2.5 1.1-.4 4.2-1.1 6.8-1.4 3.6-.5 5.6-1.5 8.2-4.1 4.3-4.2 4.5-5.9.8-4.9-1.6.4-4.4 1.1-6.3 1.5-5.9 1.2-9.2 2.9-9.7 4.9-.4 1.6-5.6 5.1-7.6 5.1-.2 0 .3-2.5 1.2-5.5 1.6-5.3 1.7-5.5 4.7-4.9 2.1.4 3.4.1 4.3-1 1.5-1.7.8-4.6-1-4.6-.8 0-.8.4 0 1.4 1 1.2.8 1.7-.8 2.5-1.1.6-2.2 1.1-2.5 1.1-1.1 0-.6-2.8.7-3.4.6-.3.1-.3-1.3 0-2.8.7-2.2-.3 1.2-2 1.3-.7 2.3-1.8 2.3-2.6 0-2.2-3.2-2.4-4.4-.3m3.4 1.3c-.3.5-1.1 1-1.6 1-.6 0-.7-.5-.4-1 .3-.6 1.1-1 1.6-1 .6 0 .7.4.4 1m-6.7 3.3c.2 1-.3 1.7-1.2 1.7-1.8 0-2.9-1.6-2.1-3.1.9-1.4 2.9-.6 3.3 1.4M226 24.9c.7 1.4.5 3-1 6.3l-2 4.3v-4c0-3.9.9-8.5 1.6-8.5.2 0 .8.9 1.4 1.9m31.8.3c-.6 1.7-4.4 3.4-9.3 4.2l-4 .6 3.5-2.1c1.9-1.1 2.7-1.8 1.8-1.5-1 .3-2.6.9-3.5 1.2-1.5.5-1.4.3.2-1.1 1.1-.9 2.9-1.4 4-1.1 1.1.2 2.9 0 4-.4 2.9-1.2 3.7-1.2 3.3.2m-36.3 7.5c-.7 4.4-1.2 5.2-2.1 2.9-.6-1.5 1.2-6.6 2.3-6.6.2 0 .2 1.7-.2 3.7m38 6.3c1 1.1 1.6 2.2 1.3 2.5-.5.6-9.8-3.3-9.8-4 0-1.5 6.9-.2 8.5 1.5m-2.5 3c4.7 2.4 5.9 4 3 4s-5.7-1.6-7-4c-1.3-2.5-.9-2.5 4 0m-18 6.8c-3 1.5-5.7 2.6-5.9 2.5-1.1-.8 2.9-3.6 6-4.3 5.7-1.3 5.6-1-.1 1.8m4.5.2c-1 1.5-6.5 4.2-7.8 3.7-.7-.2.6-1.3 2.8-2.5 4.4-2.3 5.9-2.7 5-1.2m2.5 6.1c0 .5-.9.9-2 .9-2.2 0-2.7-1.6-.7-2.3 1.5-.5 2.7.1 2.7 1.4m-8.8 4.4c-.4 2.3-.6 2.4-2.5 1-1.2-.8-3.4-1.5-4.9-1.5s-3-.5-3.3-1c-.4-.6 1.6-1 5.3-1 5.8 0 5.9.1 5.4 2.5m5.5.1c.8 2.2-1.8 3.7-3.6 2-.7-.8-1-1.9-.7-2.5 1-1.6 3.6-1.3 4.3.5m7.3.4c0 1.1-.7 2-1.5 2-1.5 0-2.1-2.1-.8-3.3 1.2-1.3 2.3-.7 2.3 1.3m-52 2.5c1.4 1.9 1.4 1.9-.4.5s-1.9-1.4-.6 1c.7 1.4 2.1 3.7 3.1 5.2 2.3 3.2 2.4 4.8.4 4.8-2.9 0-6.8-10.1-5-13 .4-.6.8-1 .9-.8s.8 1.2 1.6 2.3m36.5 0c3.6 3.5 3.1 5.4-.5 2-1.6-1.6-3-2.4-3-1.8s1.9 2.8 4.2 4.7c5.1 4.4 3.8 4.8-1.5.5-2.6-2.1-3.6-3.7-3.5-5.5.3-3 1.3-3 4.3.1m-11 10.5c1 1.6-1.3 4.8-5.3 7.5-5.6 3.8-5.6 3 .1-2.6 5.3-5.3 3.8-4.9-2 .5-3.4 3.1-4.4 2.6-1.8-.8 1.5-2 6.5-5.6 7.7-5.6.4 0 1 .4 1.3 1M219 99c0 7-1.5 8-2.1 1.5l-.6-6-.2 6.5c-.1 5.9-.3 6.3-1.6 4.6-1.9-2.5-1.9-4.7 0-9.3 1.3-3 1.7-3.3 3-2.3.9.7 1.5 2.9 1.5 5m-24.2-2.3c-.2 1-1 1.8-1.8 1.8s-1.6-.8-1.8-1.8c-.2-1.2.3-1.7 1.8-1.7s2 .5 1.8 1.7m42.1 1.9c-3.8 4.1-10.8 8.8-11.6 8-.3-.3 0-1.2.7-2.1.7-.8.9-1.5.5-1.5s-.2-.7.6-1.6c1.4-1.7 8.9-5.8 8.9-4.9 0 .3.8.1 1.8-.4 2.9-1.7 2.7-1.2-.9 2.5m-42 9.5c1.8 1.1 3.1 2.3 2.8 2.6-.4.3-2.3-.4-4.3-1.6s-3.8-2-4.1-1.8c-.6.6 4.7 3.9 7.6 4.7l2.6.7-2.9.8c-2.5.7-3.3.4-5.8-2.4-4.5-5-2.1-6.8 4.1-3"/><path d="M231.2 99.7c-2.4 1.4-4.1 2.8-3.8 3 .5.5 8.6-4.4 8.6-5.2 0-.7-.1-.7-4.8 2.2"/><path d="M404 32.7c-2.2.8-5 3.4-5 4.7 0 .6.5.5 1.2-.2 2.1-2.1 2.8-1.3 2.8 3 0 4.5-1.9 10.8-3.3 10.8-.4 0-1.5-1.6-2.3-3.5-1.1-2.8-1.2-4-.3-5.7 1-1.8.9-2-.5-1.5-1.1.5-1.6.1-1.6-1.3 0-2.8-1.4-2.5-4.3 1-3.7 4.3-4 6.3-2.3 12.3 1.5 5.1 9.1 17.7 10.6 17.7 3.3 0 .6 17.3-4.1 26.7-3.6 7.1-5.4 8.2-4.2 2.5.4-2 .7-7.4.7-11.8-.1-7.2-.6-9-3.8-15.7-4-8.4-8.7-13.2-12-12.3-1.2.3-2.9.6-3.8.6-2.3 0-2.3 1.5.2 5 1.1 1.6 2.7 4.8 3.6 7.2 1.7 4.9 6.3 10.1 10.5 11.8 3.7 1.6 4.6 6 2.9 15.2-1.3 7.5-4 11.7-9.2 14.4-2 1.1-2.7 1.9-2 2.6 1.3 1.3 4.6-.7 8.6-5.1 1.7-1.9 3.6-3.9 4.2-4.5s2.2-2.9 3.6-5.1c7.1-11.2 14.1-16.5 22.1-16.5 1.8 0 4.3-1.4 7.4-4.3 5.2-4.7 13.8-17 12.3-17.5-2.2-.8-13.2 5.3-17 9.4-2.2 2.4-4 4.8-4 5.3s-3.4 3.4-7.6 6.6c-6.6 5-7.6 5.4-7.1 3.4.3-1.3 1.1-5.7 1.7-9.7.8-5 2.3-9.4 5.1-14.3 4.3-8 4.4-8.4 2.7-17.8-1.4-7.8-1.3-7.7-3.2-6.2-1.3 1.1-1.6.9-2.1-1.2-.4-1.4-.2-3.5.5-4.6.6-1.2.9-2.1.8-2-.2 0-1 .3-1.8.6m-6.3 24.2c.7 7.7-.9 8.4-4.6 2-4-7-4.9-12.8-2.6-16.3l1.8-2.7 2.5 5.8c1.4 3.2 2.7 8.2 2.9 11.2m10.9-7.7c1.1 9.3-2.1 14.1-6.9 10.5-1.7-1.1-1.6-1.5.2-6.7 4.3-12.6 5.6-13.3 6.7-3.8m-33.1 13.6C378.6 65 387 78 387 80.6c0 4.2-7.8-3.3-10.7-10.4-1.3-3.1-2.7-6.3-3-7-.6-1.3.6-1.6 2.2-.4m8.5 5.4c2.2 3.5 4 7 4 7.8 0 1.1-3.9-4.3-9.6-13.3-.3-.4 0-.7.6-.7s2.8 2.8 5 6.2m19.8-3.8c.4 1.7-1.4 4.6-2.9 4.6-1.4 0-2.1-4.1-.8-5.6 1.5-1.8 3.3-1.3 3.7 1m27 3.8c-.4 1.3-9.6 7.8-11 7.8-1.9 0 1-3.5 5-6.1 5-3.1 6.6-3.6 6-1.7m-4.8 8.3c-3.9 4.2-10 7.9-11.1 6.8-1.2-1.2 1.6-3.9 7.9-7.4 5.5-3 6.4-2.8 3.2.6"/><path d="M200.5 47.6c-.7 6.5-.5 8.4 1.3 12.8 1.2 2.8 2.3 6.4 2.5 8.1.3 2 .4 1.4.6-1.8 0-2.7.6-6.8 1.2-9.2.9-3.7.8-4.9-1-9-1.2-2.6-2.1-5.6-2.1-6.6 0-1.1-.4-1.9-.9-1.9s-1.3 3.4-1.6 7.6m3 11.4c.5 1.8.3 2.2-.5 1.4-.6-.6-1.3-3.8-1.5-7-.4-5.8-.4-5.8.5-1.4.5 2.5 1.2 5.6 1.5 7m1.7-2.9c-.6 2.3-.6 2.3-1.3-.6-.4-1.7-.7-4.1-.7-5.5 0-2.4 0-2.3 1.3.6.8 1.7 1.1 4.2.7 5.5"/><path d="M230.5 43c1 1.1 2 2 2.3 2s-.3-.9-1.3-2-2-2-2.3-2 .3.9 1.3 2"/><path d="M514.1 48.6c-2.6 5.2-3.2 7.2-2.6 9.7.4 1.8.8 6 .9 9.5.2 5.6.6 6.8 3.5 9.9 1.8 1.9 3 3.7 2.8 4-1 .9-15.1-6-16.9-8.3-3.9-4.9-12-8.2-13-5.2-.4 1 2 6.3 3.9 8.7.2.3 3 .6 6.3.7 3.2.2 7.2 1 8.7 1.9 2.7 1.6 2.5 1.6-5.1 1.1-6-.5-8.6-.2-11.2 1-4.8 2.3-4.9 2.9-1 5.9l3.5 2.7 4.8-1.8c2.6-1 6-2.8 7.5-4 1.8-1.5 3.7-2.1 6-1.9 1.8.2 4.1.4 5 .4.9.1 3.1 1.3 4.8 2.7 3.7 3.2 4.9 2.7 1.9-.7-9.3-10.6-9.9-11.7-7.7-16.4.9-1.9 1.7-2.4 3.7-2.1 5.7.8 9.2-4.1 8.2-11.3l-.6-4.4-3.3 2.8c-1.8 1.5-4.7 5.5-6.3 8.7-1.7 3.3-3.3 5.7-3.6 5.4s.4-3.5 1.6-7c2.2-6.7 3.6-17.2 2.2-18-.4-.3-2.2 2.4-4 6m2.4 7.1c-1 5.3-1.9 3.1-1-2.4.5-2.6 1-4 1.3-3 .2 1.1.1 3.5-.3 5.4m-2.5.3c-.5 3.3-.9 4-1.4 2.7-.5-1-.3-3 .4-4.8 1.7-3.9 1.9-3.4 1 2.1m10.7 1.7c-4 6.5-4.1 6.7-2.8 5.8.7-.4 2.1-2.1 3.2-3.9 1.6-2.7 1.9-2.8 1.9-1 0 3.5-3.2 6.8-5.8 6-2.9-.9-2.8-1.5.8-6.4 3.8-5.2 5.9-5.5 2.7-.5m-27.8 13.5 4.3 3.1-2.3 1.3c-2.7 1.4-5.3.4-6.9-2.6-1.4-2.6-.5-2.5 3.2.1 1.6 1.2 3.2 1.9 3.4 1.6.3-.3-1.3-1.8-3.5-3.3-2.3-1.4-4.1-2.8-4.1-3 0-1.1 2-.1 5.9 2.8m2.5 10.6c.8 1.4-6.4 3.6-7.7 2.3-.7-.7-.6-1.2.4-1.5.8-.2 2.1-.7 2.9-.9 2.3-.8 3.8-.8 4.4.1m4.6 2.1c0 .9-7.7 4.1-10.2 4.1-.8 0-2.1-.7-2.9-1.6-1.1-1.3-.9-1.4 1.3-.9 1.4.4 4 0 5.9-.9 4-1.7 5.9-1.9 5.9-.7"/><path d="M512.1 44.6c0 1.1.3 1.4.6.6.3-.7.2-1.6-.1-1.9-.3-.4-.6.2-.5 1.3"/><path d="M307.7 60.7c.2 2.7.9 6.8 1.5 9.2 1 3.9 1.6 4.6 6.5 6.8 4.7 2.2 5.6 3.1 8.3 8.6 1.6 3.4 3 7.1 3 8.2s.5 2.7 1 3.5c.6 1 .7-1.5.4-7-.6-8.4-.6-8.6 3-14.4 4-6.7 3.9-6 2.2-14l-1.2-6-2.7 5.3c-3.9 8-5.2 14.9-3.8 20.6.7 2.6 1 4.9.7 5.2-1 1-4.5-8.8-5.5-15.6-.6-4.1-1.6-8-2.2-8.7-1.2-1.4-9.7-6.4-10.9-6.4-.4 0-.6 2.1-.3 4.7m8 7.3c2.3 5 4 9 3.8 9-.3 0-2-.7-3.9-1.7-4-1.9-6.6-7.1-6.6-13.3 0-6 2.1-4.2 6.7 6m15.4 5.4c-3.5 6.7-5.6 7.3-4.6 1.5.4-2.4 1.7-6.9 2.8-9.9l2.1-5.5 1.1 4.5c1.1 4.1 1 4.9-1.4 9.4m-13.8-10.7c1.2 1.5 4.1 12.3 3.2 12.3-.3 0-6.5-13-6.5-13.6 0-1 1.8-.2 3.3 1.3"/><path d="M329 71c-1.5 5.5-.7 6.3.9.9.7-2.2 1-4.3.7-4.6-.2-.3-1 1.4-1.6 3.7"/><path d="M572.5 69.2c-3.1 10.1-2.6 16.6 1.5 20.3 2.5 2.3 3.7 6.4 4.4 15.5l.6 7.5-3.9-8c-2.2-4.4-4.2-9.2-4.5-10.7-.3-1.4-1.8-4-3.2-5.8-2.6-3.1-11.2-9.5-11.9-8.8-.2.2.9 3.9 2.3 8.3 2.5 7.5 3 8.1 7.1 10.2 4.8 2.5 7.8 4.9 9.2 7.5s.5 2.2-3.5-1.2c-5.5-4.9-9.2-5.9-14.9-4.3-2.8.8-4.7 1.9-4.4 2.6.6 1.9 9.7 4.6 15.7 4.7 7.6.1 9.3 1.6 9.8 8.9s-.9 11.8-6.4 20.1c-8.9 13.5-11.2 14.2-7.1 2.2l2.7-7.7-3.7-7.3c-2.1-4.1-4.1-7.6-4.5-7.8-1.8-1.1-.7 13.7 1.3 19.6 3.1 8.9 1.6 10.9-2.4 3.4-1.8-3.3-3.9-6.9-4.7-8.1-1.4-1.9-7.8-5.8-8.5-5.1-.2.2-.7 3-1 6.4-.7 5.7-.6 6.2 1.9 8.1 1.4 1.1 2.2 2.4 1.8 2.8-.4.5-.2.5.5.1.7-.3 3.2-.8 5.7-1 4.5-.4 4.6-.3 5.5 3.1.7 2.4.6 4-.1 5.2-1.3 2.2-10.6 8.1-18.3 11.8-7.3 3.4-7 3.2-6.2 4 .4.3 3.7-.8 7.5-2.5 4.9-2.3 9.3-3.5 15.8-4.1 8.1-.9 9.1-.8 11.7 1 3.9 2.8 13.2 4.6 15.2 2.9.9-.7 1.4-1.9 1.1-2.7s-.1-1.1.4-.8c.6.4 1.7-.1 2.5-.9 1.4-1.3 1.3-1.6-.4-2.6-2.5-1.3-9.7-1.3-12.2.1-1.1.5-4.1.9-6.7.7l-4.7-.3 3-1.4c1.7-.7 6.3-1.9 10.3-2.6s7.5-1.5 7.7-1.6c.9-1.1 4.5-8.1 4.5-8.9 0-2.7-5.4-.6-11.2 4.3-6.1 5-12.8 8.4-21.3 10.6-6.2 1.7-7.3 1.3-3.5-1.1 7.9-4.9 13-10.2 19.6-20.3 3.8-5.8 7.8-10.8 8.8-11.1 1.5-.5 3 .5 6.1 4 2.2 2.5 4.7 4.6 5.6 4.6 1.8 0 7.7-10.5 6.6-11.7-.4-.3-4.2-.2-8.4.4-4.3.6-8.1.8-8.5.6s1-2.7 3.2-5.4c4.6-5.9 6.3-10.7 5.8-16.9l-.3-4.5-3.4 5.9q-3.45 6-3.9 11.1c-.3 3.8-1.2 6-3.4 8.5-2.6 3.1-2.8 3.2-2.1 1 .4-1.4.7-11.7.5-23-.3-19.1-.5-20.9-2.7-25.8-2.4-5.3-3.3-6.2-4-4M575 81c.6 4 .8 7.5.6 7.7-.8.9-3.6-5.6-3.6-8.4 0-3.1 1-7.6 1.6-7 .2.2.8 3.6 1.4 7.7m2.7 2.2c.2 5.2.1 5.7-.6 2.8-1.7-7.1-2.1-11.4-.9-10.2.7.7 1.3 4 1.5 7.4m-15.1 2.4c1.6.3 5.1 4.1 5.9 6.5.3.9.2 2.6-.2 3.7-.8 2.2-.8 2.2-4 .2-2.3-1.3-3.5-3.1-4.3-6-.6-2.3-1.4-4.9-1.7-5.8-.6-1.5-.5-1.5 1.1-.2 1 .8 2.4 1.5 3.2 1.6m3 16c1.7 1.4 1.7 1.5.1 1-1-.3-3.2-.6-4.8-.6s-2.9-.5-2.9-1c0-1.6 5.4-1.2 7.6.6m24.4 5.9c-.7 2.5-1.7 4.8-2.3 5.2s-.8 0-.4-.9c.3-.9 1.1-3.4 1.8-5.7 1.7-5.6 2.5-4.3.9 1.4m-26.6-3.9c2.5.4 4.6 1.1 4.6 1.5 0 1-7.1.1-10.5-1.2-2.6-1-.4-1.1 5.9-.3m24.5 3.5c-1.4 4.1-3.5 6.7-2.4 2.9 1.4-4.7 2.6-7.3 3-6.8.3.3 0 2-.6 3.9M560.3 129c.6 5.3.6 5.4-.8 2.5-1.5-3.3-2.1-10.5-.6-9 .5.6 1.1 3.5 1.4 6.5m37.7-5.5c0 1.5-3.6 7.5-4.5 7.5-1.3 0-6.5-5.2-6.5-6.4 0-.5 1.5-.6 3.3-.3 1.9.3 4 .1 4.8-.4 1.5-1 2.9-1.2 2.9-.4m-34 7.7c0 1.6-.4 2.8-1 2.8-.5 0-1-.8-1-1.9 0-1-.3-3.4-.6-5.2l-.5-3.4 1.5 2.5c.8 1.4 1.5 3.7 1.6 5.2m-14.4-1c2.2 2.5 5.4 7.4 5.4 8.3 0 1.7-3.3 0-5.3-2.8-3.9-5.2-5-7.7-3.4-7.7.7 0 2.2 1 3.3 2.2m-3.6 2.2c0 .8 1.2 2.8 2.6 4.5 2.5 2.9 2.5 3.1.5 3.1-1.1 0-2.9-1-4.1-2.2-2.2-2.4-2.3-2.8-1.4-5.2.8-2 2.4-2.1 2.4-.2m40.5 10.4c-3.5 2.9-8.7 6.3-9.1 5.9-.6-.6 7.6-6.7 9-6.7.6 0 .6.3.1.8m-1.7 5.1c-1.3 2.1-5.4 3.9-6.4 2.8-.6-.6 6.8-5.7 7.4-5.2.2.2-.3 1.3-1 2.4m.2 9c0 .6-.4 1.3-1 1.6-1.4.9-8.1-.6-7.4-1.6.7-1.2 8.4-1.2 8.4 0m-1.7 4.4c-.3.5-2.8.7-5.5.4-5.5-.7-7.6-1.6-5.9-2.6 1.5-1 12.1 1.1 11.4 2.2"/><path d="M562 86.8c0 1.2 5.1 8.4 5.7 7.9.4-.5-4.6-8.7-5.3-8.7-.2 0-.4.3-.4.8"/><path d="M518.6 72.7c-.6 1.4-.5 1.5.5.6.7-.7 1-1.5.7-1.8s-.9.2-1.2 1.2"/><path d="M413.5 73c.3.5.8 1 1.1 1 .2 0 .4-.5.4-1 0-.6-.5-1-1.1-1-.5 0-.7.4-.4 1"/><path d="M210.3 110.8c.1 1.2.6 1.8 1.5 1.5.7-.3 1-.9.5-1.2-.4-.3-1.1-1-1.5-1.5-.4-.4-.6.1-.5 1.2"/><path d="M490.7 136.7c-1 10.2-.8 13 .8 14.7 2 2 3.1 5.1 3.9 11.2.7 4.5.2 6.5-4.5 19.4-5.5 15-6.5 15.8-6.8 5.4-.1-3.3.5-4.6 3-7 5.2-5 7.3-11.9 4.6-15.9-.7-1.1-1.9-3.9-2.6-6.3-1.4-5-3.2-5.7-2.4-.9.4 2.5-.2 4.8-2.2 8.6-2.6 5-2.7 5.5-1.6 10.6.8 3.4.9 6.1.3 7.1-1.6 2.8-5.2-4.7-5.2-10.9 0-5.4-2.6-11.2-5.5-12.3-.8-.4-1.2-1-.9-1.5s-.1-.6-.9-.4c-.7.3-3-.6-5.1-2s-4.1-2.3-4.4-2 .7 3.4 2.1 7c1.5 3.6 2.7 7.6 2.7 8.8 0 2.6 2.5 5.2 8.2 8.6 7.8 4.6 10.3 12.5 10.3 32.6 0 8.2.4 16.3.9 18 .8 3 .8 3-1.7-.6-2.2-3-2.5-4.5-2.2-8.8.2-3-.2-6.5-1-8.5-1.2-2.8-2.1-3.4-4.9-3.8-2.3-.2-3.7.1-4 .9-.4 1-1.7 1.1-4.7.7-4.1-.7-4.2-.6-3.5 1.7.4 1.3.7 3.8.7 5.5-.1 1.7.5 4.7 1.3 6.6 1.7 4 4.3 5.1 10.5 4.3 4.8-.6 6.6 1 9.9 8.3 1.1 2.6 3.4 7.8 5.1 11.6s3 7 2.8 7.2-2.7-1.7-5.7-4.1c-4.6-3.7-6.2-4.5-9.7-4.5-2.3 0-5.4.5-7 1.1l-2.7 1 3.2 2.1c1.8 1.1 3.2 2.4 3.2 2.9s1.1 1.6 2.4 2.5c2.3 1.4 2.8 1.4 7.1-.5l4.6-2 3.3 2.1c1.9 1.2 4.9 4.5 6.7 7.3 4.3 6.4 13.9 17.5 15.1 17.5.5 0-1.5-2.8-4.4-6.3-8-9.2-8.6-10.2-7.9-14.4.8-5 3.4-5.4 7.3-1.4 2.5 2.5 3.8 3.1 7.4 3.1 4.8 0 5.3-.8 3-5.2-1.3-2.4-1.2-2.8.5-4.4 2.8-2.5 2.3-4.1-1.6-5.4-2.9-.9-3.4-1.5-2.5-2.6.7-.8.9-2.6.5-4.4-.9-3.9-3.5-3.9-7.4-.1-1.6 1.6-3.2 2.7-3.4 2.5-.2-.3-.3.9-.1 2.5.2 2.1-.2 3.4-1.5 4.3-1.8 1.3-3.6 7.7-3.2 11 .5 3.8-1.7 1.5-5.6-6-4.3-8-7.3-15.5-7.3-18.4 0-3.1 2.3-6.9 3.8-6.3 1.7.6 9.2-3.9 9.2-5.5 0-.6 1-1 2.1-1 4 0 10.1-2.4 11.4-4.4.7-1.2 1.5-4.4 1.8-7.2l.6-5-5.4 1.1c-3 .6-5.8 1.5-6.3 2-.5.6-2.1 4.1-3.6 8-2.8 7.1-6.2 10.9-9.3 10.3-1.4-.2-1-1.1 1.9-3.9 2-2 3.8-4.9 4.1-6.5 1.7-8.5 1.6-11-.2-14.4l-1.9-3.5-1.7 4c-2.9 6.9-5.5 17.7-4.9 20.2.6 2.2-1.4 8.9-2.3 7.9-.2-.2-.8-3.4-1.4-7-1.1-7.9.4-23.8 2.8-30.9 1.7-4.8 6.6-11.7 8.4-11.7.5 0 .9 1.9 1 4.2.1 5.6 2.1 12.3 3.7 12.2.7-.1 2.6-.2 4.3-.3 2.9-.1 3.1-.3 2.7-3.3-.7-4.3 2.2-9.5 4.4-8.2 1.7 1.1 2.1-5 .5-7.9-1-1.6-1.7-3.7-1.7-4.7 0-3.3-1.2-5-3.5-5-2.6 0-7.5 3.5-7.5 5.4 0 .7-2.2 3.7-5 6.6-5.4 5.8-6 5.9-3.1.2 1-2 2.4-5.5 3-7.7 3-9.8 4-11.2 9.5-13 6.4-2.1 8.4-3.9 9.2-8.1.3-1.9 1-3.7 1.5-4s.9-.9.9-1.5c0-1.1-7.3 1.7-11.7 4.5-2.3 1.5-3.9 3.8-5.4 7.9-1.2 3.2-2.3 5.6-2.5 5.4-.4-.4-2.3-10.5-3.4-18.2-.4-3.3-1.1-7.6-1.5-9.5l-.7-3.5 2.3 2.3c2.1 2 2.4 3.1 2.4 10.1 0 4.4.3 7.7.8 7.4.4-.2.7-3.3.7-6.9 0-6.7-1.4-10.6-4.8-13.7-1.9-1.7-1.9-1.6-2.5 5m2.2 10.8c.1 2.9-.2 3.6-.9 2.5-.5-.8-.9-3.5-.9-6 0-3.4.2-4 .9-2.5.5 1.1.9 3.8.9 6m15.7 4.6c-2.5 2.2-4.6 4.6-4.6 5.2s2-.9 4.5-3.3c4.7-4.6 6.8-5 4-.7-1.6 2.5-6.2 5-9.7 5.2-2.1.2-2.1 0-.7-2.6 1.1-2.1 8.6-7.9 10.2-7.9.5 0-1.1 1.8-3.7 4.1m-34 21.1c2.9 5.7 1.6 6.3-3.9 1.7-2.7-2.3-3.7-3.8-3.7-6 0-1.6-.9-4.7-2-6.9s-2-4.2-2-4.6c0-1.5 9.3 11.2 11.6 15.8m-1.3-10.2c2.9 2.8 4.9 10 2.8 10-.6 0-1.1-.6-1.1-1.4 0-1.2-3-5.6-8.4-12.5-1.8-2.3 3.4.7 6.7 3.9m17.8 4.5c.5 3.3-1.1 8.2-3.2 10.1-2.3 2.1-2.3 2-.4-5.3.8-3.1 1.5-6.4 1.4-7.3 0-.8-.5.1-1.1 2-.5 1.9-1.4 5.3-2 7.5l-1.1 4-.8-3.5c-.6-2.7-.2-4.5 1.8-8.3 2.3-4.6 2.5-4.8 3.8-3 .7 1 1.4 2.7 1.6 3.8m19.2 3.7c1.7 2.7.1 4.8-3.7 4.8-4.6 0-5.3-1.4-2.1-4.6 2.7-2.7 4.2-2.8 5.8-.2m-7.3 8.9c0 2-2.4 2.6-3.5.9-.3-.6-.3-1.9 0-3.1.5-1.6 1-1.8 2.1-.8.8.6 1.4 2 1.4 3m9.2-1.4c2.1 1.8 2.4 5.3.6 5.4-.7 0-2.2.2-3.2.4-4.6.9-7.7-4.2-3.8-6.4 2.5-1.5 4.3-1.3 6.4.6m-7.5 7.5c2.5 2.8 3.9 8.8 2 8.8-.6 0-2.2.3-3.3.6-1.8.5-2.2 0-2.8-3.3-.4-2.1-1-4.8-1.3-6.1-.4-1.7-.1-2.2 1.4-2.2 1.1 0 2.9 1 4 2.2m4.3.8c0 .5-.4 1-1 1-.5 0-1-.5-1-1 0-.6.5-1 1-1 .6 0 1 .4 1 1m-11.5 23.8c-.4 6.7-2.3 10.9-4.9 10.9-2.3 0-2-3 1-12.1 3.1-9.1 4.5-8.6 3.9 1.2m12.5-2.3c0 .3-1.6 2.8-3.6 5.5-2 2.8-3.4 5.3-3.1 5.6s2.5-2.2 4.8-5.5c2.4-3.4 4.9-6.1 5.6-6.1 1.8 0 1.7 6-.1 8.6-1.9 2.6-9.4 5-10.9 3.5s3.7-12.1 5.8-12.1c.8 0 1.5.2 1.5.5m-31.6 2.7c.9 1.2 1.6 3.6 1.6 5.3l-.1 3-2-4c-1-2.2-2.7-4.6-3.6-5.3-1.5-1.1-1.5-1.2.5-1.2 1.1 0 2.8 1 3.6 2.2m-5.8.4c1.2.2 2.8 1.8 3.7 3.6 1.4 3 1.4 3.4 0 5-.9 1-2.2 1.8-2.9 1.8-1.3 0-6.2-5.8-8.3-9.7-1.2-2.4-1-2.4 7.5-.7m-2.6 9.5c2.9 2.7 3.9 4.4 3.2 5.1-1.1 1.1-4.1-.1-5.9-2.4-1-1.3-2.6-6.8-2-6.8.2 0 2.3 1.8 4.7 4.1m9.5 2.8c-.3 1.2-1.5 2.1-2.6 2.1-2.3 0-2.5-1.7-.2-4.2 2-2.2 3.8-.9 2.8 2.1m33 20.9c-6.1 5.6-7.9 1.2-1.8-4.6l3.6-3.6.9 2.5c.8 2 .4 2.9-2.7 5.7m7.5 3.7c0 2.3-2.8 3.6-6.7 3.3-4.4-.3-5-2.3-1.3-4.1 3-1.5 8-1 8 .8m-36.4 0c1.7 1.3 1.5 1.4-3.3 1.5-6.9 0-10.1-1.2-5.3-2.1 5.7-1 6.5-1 8.6.6m24.4 2.4c0 1-.7 2.2-1.6 2.5-2.3.9-2.4.8-2.4-1.9 0-1.8.5-2.5 2-2.5 1.3 0 2 .7 2 1.9m-23.5 1.1 3 .7-2.8 1.1c-4 1.7-6.1 1.5-8.2-.8-1.8-2-1.7-2 1.6-1.9 1.9.1 4.8.5 6.4.9m32.8 3.2c.9.5 1.7 1.5 1.7 2.3 0 2.5-5.4 2.3-8.2-.2-3-2.7-2.3-4.6 1.5-3.8 1.7.4 4 1.1 5 1.7"/><path d="M494.7 215.7c-.9 2.5-1.5 4.8-1.3 5s1.2-1.6 2.1-4.2c1-2.5 1.6-4.7 1.3-5-.2-.2-1.2 1.7-2.1 4.2"/><path d="M316.7 142.6c-.9 1 2.1 11.6 4 14.2 1.1 1.4 3.3 3 5.1 3.6 1.7.6 3.9 1.9 4.8 2.8 2 2 10.4 16.1 9.8 16.7-.9.9-9.2-3.4-11.4-6-2.7-3.2-3.3-3.3-13.3-3.1l-6.8.2 5.8 5.5c6.3 5.9 9.1 6.7 14.5 3.9 2.8-1.4 3.4-1.4 7.4.1 8.1 3.1 13.9 14.5 14.8 28.7.4 6.1 1.6 11.6 4.2 19.4 3.1 9.3 3.5 11.8 3.1 17.2-.3 3.5-.7 6.5-1 6.8-1 1.1-7.7-3.9-7.7-5.7 0-2.9-2.7-8.9-4-8.9-.6 0-3.1-1.4-5.6-3l-4.4-3.1.1 5.3c.1 2.9.6 6.1 1.1 7.1 1 1.9 8.6 6 13.3 7.1 4.2 1 5.5 2.4 5.5 5.6 0 2.9-3.8 21.3-6.4 30.5l-1.3 5-.8-5c-1.2-7.7-2-9.2-9-16-6.9-6.8-7.6-8.9-5-13.5 2.7-4.8 1.9-8.2-2.9-12.2l-4.4-3.7-.7 5.5c-.6 4.9-.4 5.9 1.8 8.7 5.4 7.1 4.1 10.5-1.6 4.2-1.8-2-5.1-5.6-7.5-8-2.5-2.6-4.5-5.9-4.8-7.8-1.1-5.8-7.8-14.3-9.3-11.8-.7 1-1.4 1-3.7-.2-3.2-1.6-10.4-1.2-10.4.7 0 .6 1.3 3.9 2.9 7.3 3.2 6.7 2.8 6.4 13.5 8.3 7.1 1.2 11.8 3.9 14.4 8.5 1.2 1.8 5.2 5.7 9.1 8.5s7.1 5.6 7.1 6.1c0 2.2-7.5-.1-9.6-2.9-1-1.4-2.8-1.7-8.8-1.6-9.6 0-10.6.9-7.2 6.2 3.5 5.6 7 6.2 13.8 2.4 4.9-2.7 5.6-2.8 10-1.8 7.1 1.7 9.3 4.4 10.8 13.1.7 4.2 1 9.5.6 12.2-1.7 11.9-1.8 14.4-.7 17.4.6 1.8.9 3.4.6 3.7-.8.9-4.3-2.9-7-7.4-2.4-4-2.9-4.4-6.6-4.4-2.2 0-5.3-.7-6.9-1.5-3.5-1.8-3.6-1.4-1.5 6 2.5 8.5 5.4 9.9 16.1 8 5.4-1 6.3.4 10.9 15.5 2 6.3 5.1 16.4 7 22.5 1.9 6 3.7 12.2 4.1 13.8.7 2.9 7.9 14.7 9 14.7.3 0-.1-1.1-1-2.5-6.3-9.5-6.6-10.9-6.6-26.5 0-16.3-.1-15.9 7.2-19.3 2.8-1.2 4.4-1.4 6.4-.7 5.6 2.2 8.9 1.3 14.7-4 3-2.8 6-5 6.5-5 .6 0 1.3-.4 1.6-.9.4-.5-3-1-7.6-1-9.4-.1-15.7 2.2-17.6 6.5-1 2-8.9 6.8-10 5.9-.1-.1 1.1-2.8 2.7-5.9 2.7-5.1 3-6.3 2.5-11.9-.6-6-.5-6.3 3.1-10.5 4.1-4.8 5.5-5.1 9.6-2.1 4 2.8 9.8 3.5 13.5 1.6 3.7-2 9.4-7.2 9.4-8.7 0-1.4-4.4-3-8.6-3-2.4 0-3.4-.5-3.4-1.5 0-.9-1-1.6-2.7-1.7-5.1-.2-6.7.2-9.4 2.8-1.5 1.5-3.1 2.4-3.6 2.1s-1 .6-1.1 2-2 4.5-4.2 6.9c-3.9 4.2-4.4 5.6-4 9.9.1 1.9.1 1.9-1.4-.1-1.3-1.8-1.4-2.8-.5-5.4 1.7-4.7.4-9.8-3.3-13.7-1.7-1.8-3.4-3.3-3.7-3.3-.4 0-.7 4.1-.9 9l-.2 9.1 3.3 1.9c6.3 3.7 7.3 10.4 3 19.1-2.7 5.1-2.8 6.1-2.7 18.4l.1 13-2.7-9c-1.6-5-5.2-16.9-8.1-26.5-7.4-24.1-7-30.1 2.2-40.7 4.4-5.1 5.6-5.9 9.7-6.5 8.8-1.3 14.2-5.1 14.2-10.1 0-.7.7-2.5 1.5-4.1 1.7-3.2 1.3-4.5-.7-2.8-.7.6-4 2-7.3 3.3-7.3 2.6-10.2 5.1-12.7 10.8-1.1 2.4-3.1 5.6-4.4 7.1-1.4 1.5-3.1 3.5-4 4.6-1.5 1.8-1.5 1.8-1-.6 3.4-14.4 6.1-24.3 7.9-28 3.5-7.3 15.5-24.7 18.7-27.2 1.7-1.3 4.3-3.3 5.9-4.6 2-1.5 4.3-2.2 7.2-2.2 10.1 0 16.2-4.7 17.3-13.2.2-2 .7-4.6 1.1-5.7.8-2.6-.9-3.5-3.7-1.9-1.3.7-2.6 1.1-3.1 1-.4-.1-2.9.9-5.6 2.3-5.6 2.8-9.1 6.7-9.1 10 0 1.3-.7 2.5-1.5 2.9-.8.3-1.5 1.4-1.5 2.5s-1.9 3.3-4.9 5.4c-4.9 3.5-10.9 11.2-17.6 22.3-4 6.6-4.3 5.8-1.6-4.4 1.8-6.9 1.9-10.2.4-18.2-.8-4.4-.4-7.9 1.1-10.6 1.2-2.4 10.1-9.5 11-8.8.3.2.4.1.1-.3-.3-.3.2-1.4 1.1-2.4 1.4-1.5 4.8-12.8 4.1-13.5-.1-.2-2.9 1.5-6.2 3.7-3.3 2.1-6.2 3.9-6.5 3.9s-1.5 1.5-2.8 3.4c-1.8 2.7-2.2 4.2-1.6 7 .6 3.5-1 9.6-2.6 9.6-1.5 0-4-11.8-4-18.9v-7.3l6.1-6.3c7.1-7.4 10.6-9.1 14-6.7 3.4 2.3 11.7 1.8 17.3-1.2l4.6-2.4-5.2-2.7c-6.1-3.2-10-2.9-16 1-2.2 1.5-4.6 2.4-5.3 2.1-.7-.2-4.6 3-8.9 7.3-5.6 5.8-7.7 7.4-8 6.2-1.5-4.9.4-26.4 2.5-27.7 1.5-.9 1 5.1-.7 9.1-.8 2-1.3 4-1 4.2.5.6 2.2-3.1 3.5-7.7.8-2.6-1-10.6-2.3-10.3-.4.1-2.1 1.9-3.8 4-3 3.7-3 4-2.4 11.8.5 7.5.5 7.9-1 6-.9-1.1-2.8-4.5-4.2-7.5s-4.1-8.1-6-11.3c-2.2-3.9-3.2-6.6-2.8-8.1.6-2.5-2.7-12.1-5.1-14.9-.9-.9-2.6-1.7-3.9-1.7-1.2 0-3.4-.4-4.7-.9-1.4-.6-2.7-.7-3-.5m6.5 3.3c.4.3.9 1.8 1.2 3.4.2 1.5 1.4 4.1 2.6 5.7 1.8 2.5 1.9 3.1.6 3.6-3.6 1.4-7.7-3.5-9-10.9-.7-3.7-.6-3.8 1.6-3.2 1.3.4 2.6 1 3 1.4m6.1 4.4c1 2 1.7 4.5 1.5 5.4-.3 1.4-.7 1.2-2.4-1.2-1.2-1.7-2.4-4.3-2.8-5.8-1-4.1 1.4-3.1 3.7 1.6m3.1 9.2c-.7 1.7-2 2-2.8.6-.7-1 .3-2.1 2-2.1.8 0 1.1.6.8 1.5m20.3 10.9c-.3.8-1.1 4.2-1.8 7.7-.9 4.7-1.4 5.8-2 4.3-1.2-3.1-1-6.4.7-10 1.5-3.2 4.2-5 3.1-2m-25.6 3.5c1.3 1.1 2.2 2.2 1.9 2.5-.6.5-14.9-3-15.8-3.9-.3-.3 2.2-.5 5.5-.5 4.5 0 6.7.5 8.4 1.9m-1.7 3.5 4.8 1.3-3 1.2c-3.7 1.6-6.1.9-9.3-2.6l-2.4-2.6 2.5.7c1.4.3 4.7 1.2 7.4 2m63.3 4.6c.2 0 .3.4.3 1 0 .5-2.8 1.1-6.2 1.3-5.9.4-5.8.4 1 .3 3.9-.1 7.2 0 7.2.2s-1.6 1-3.5 1.8c-3.6 1.5-10.3 1.9-12 .6-.9-.6-2-4.2-1.3-4.2.2 0 2.1-.6 4.2-1.4 2.7-.9 4.9-1.1 7-.5 1.7.5 3.2.9 3.3.9m-14.4 24c-.4 2.2-2.6 5.4-6 8.9l-5.3 5.5-1.7-2.3c-1.5-2.2-1.5-2.6.1-5.5 1.7-3.2 7.5-7.6 10-7.6.8 0 1.7-.7 2-1.6 1.1-2.7 1.7-1 .9 2.6m31 10.7c-.6 5.1-2.3 9.3-4.5 11-2.5 2.1-9.9 3.6-11.2 2.2-.8-.8-.8-1.3.1-1.6 3.9-1.4 7.8-5.2 9-8.8s4.6-7.4 6.5-7.5c.4 0 .5 2.1.1 4.7m-7.6 1.9c-1.1 3.6-4.3 6.5-8.4 7.8-5 1.6-1.7-5.9 4.1-9.5 4.7-2.9 5.6-2.5 4.3 1.7M387 229.5c0 .8-.4 1.5-.9 1.5-1.3 0-2.2-1.6-1.4-2.4 1.1-1.1 2.3-.6 2.3.9m-86.2 5.1c1.3.9 2.2 2.6 2.2 4 0 2.5 4 7.4 6 7.4.5 0 1 .4 1 .9 0 .8-5.4.6-10.7-.5-2-.4-7.3-9.1-7.3-12.1 0-1.8 6-1.7 8.8.3m9.3 5c1.1 1.9 1.9 4.1 1.7 4.9-.3 1.3-.8 1.2-3.5-.5-3.3-2-5-5.7-3.9-8.6q1.2-3.15 5.7 4.2m36.3.9c2.1 1.3 3.2 9.9 1.1 9.1-3.7-1.4-9.3-5.7-9.8-7.5-.7-3 0-2.6 4.4 1.9 2.2 2.2 4.3 4 4.8 4s-1.3-2.3-4-5.1c-5.8-6-6.7-9-1.5-5.6 1.8 1.2 4.1 2.6 5 3.2M333.5 251c.3.9 0 3-.6 4.6l-1.2 2.9-.7-4c-.3-2.2-1.2-5-1.9-6.3-1.2-2.3-1.2-2.3 1.3-.7 1.4.9 2.8 2.5 3.1 3.5m-3.7 4.3c-.3 2-.5 2-1.9-.8-.9-1.7-1.4-3.9-1.1-5 .4-1.7.6-1.6 1.9.8.8 1.6 1.3 3.8 1.1 5m-5.5 14.1c4.6 1 3 2.6-2.5 2.6-9.1 0-13.8-2.5-6-3.2 3.9-.3 4.1-.3 8.5.6m-2.5 4c2.8-.1 5.2.1 5.2.2 0 .2-1.4 1.1-3.1 1.9-4.2 2.2-8.8 1.6-10.8-1.4-1.6-2.4-1.5-2.4.9-1.6 1.4.5 4.9.9 7.8.9m54.5 2c-.1 1.6-1 3.7-1.9 4.7-1.6 1.7-11.1 5.5-11.9 4.7-.2-.2 2.6-2.4 6.2-4.8 3.7-2.5 6.8-5.1 7.1-5.8.2-.7-1.9.4-4.6 2.5-7.9 5.9-11.2 7.7-11.2 6 0-2.4 3.2-5.5 8.5-8.1 6.2-3.2 8.1-3 7.8.8m16.1 23.4c1.3 2.1-3.7 5.2-8.3 5.2-3.9 0-4.1-2.4-.3-4.4 2.9-1.6 7.8-2.1 8.6-.8m10.1 3.5c1 .8 1.5 1.9 1.2 2.5-1.2 1.8-10 7.2-11.9 7.2-4 0-12.4-5.7-9-6.1.4 0 1.7-.2 2.8-.3 1.2-.1 3.7-1.2 5.5-2.4 3.9-2.5 8.7-2.8 11.4-.9m-39.1 13.5c1 1.7-.9 1.5-2.3-.2-.9-1-1-3.3-.4-7.8l.7-6.3.6 6.5c.4 3.6 1 7.1 1.4 7.8m2.7-7.3c.7 9.7-1.9 9.6-2.8-.1-.5-5.3-.4-5.7 1-4.4.9.8 1.6 2.8 1.8 4.5m13.9-2.9c0 .8-.4 1.2-1 .9-.5-.3-1-1-1-1.6 0-.5.5-.9 1-.9.6 0 1 .7 1 1.6m-44.5 4.9c.6.1 2 2.1 3.3 4.3l2.3 4.1-4.6-1.5c-2.5-.9-5.1-2.4-5.8-3.3-.6-.9-2.3-2.5-3.7-3.4-2.5-1.7-2.4-1.7 2.5-1.1 2.8.3 5.5.7 6 .9M329 314c1.2 1.7 3.7 3.4 6 4.1 4.7 1.4 4.3 2.9-.8 2.9-4.9 0-5.9-.8-7.6-5.8-1.8-4.9-.6-5.5 2.4-1.2m61.5 17c-2.3 1.1-5.6 2.2-7.5 2.5-1.8.3-4 1-4.9 1.5-2.9 1.8 7.2-.2 11.3-2.1 2.2-1.1 4.2-1.7 4.4-1.4.8.8-6.1 6.5-8.5 7.1-4.1 1.1-9.2-1-9.3-3.8 0-.4 1.9-1.8 4.3-3.2 3.1-1.9 5.5-2.6 9.2-2.5l5 .1z"/><path d="M367.7 209.7c-.4.3-.7 1.3-.7 2.2.1 1.3.3 1.3 1.1-.2 1.1-1.9.8-3.3-.4-2"/><path d="M363.1 216.3c-1.3 2.1-1.2 2.1.5.5 1-1 1.6-2 1.3-2.2-.3-.3-1.1.5-1.8 1.7"/><path d="M98 156.7c-6.3 2.2-9.9 4.7-10.9 7.4-.5 1.6-.8 3.6-.4 4.5.4 1.2 0 1.4-2.3.8-5.6-1.5-6.8-1.1-8.6 2.8-1 2-2.6 3.9-3.6 4.2s-2.6 1.9-3.5 3.6c-1.5 2.4-1.5 3.3-.5 4.9 1.6 2.5 3.7 3.1 12.4 3.1 4.5 0 7.7-.5 9-1.4 1.6-1.2 2.2-1.2 4.6.2 3.1 1.8 4.2 3.8 2.6 4.8-.7.5-.8.2-.3-.5.6-1 .3-1.1-1.6-.1-3.4 1.8-8.9 7.2-8.3 8.1.5.9 10.1-5.3 12.1-7.9 1-1.2 1.5-1.3 2.8-.2 3 2.5 1.6 26.9-2 34.7-.9 1.9-1.3 4.3-.9 5.8 1.3 5.4 2 3.4 6-18.5 1.1-6.1 1.4-11.1.9-17.8-.3-5-.3-9.2.2-9.2.4.1 1.9.7 3.3 1.5 2.8 1.6 10 2 10 .6 0-1.1-7.3-4.1-10-4.1-4 0-1.6-3.2 3.1-4.3 1.5-.4 4.3-2.5 6.3-4.7 3.2-3.5 3.6-4.5 3-7.4-.3-1.9-.1-4.3.5-5.5.7-1.2.8-2.1.4-2.2-.4 0-1.9-.2-3.2-.5-1.3-.2-4.1.5-6.3 1.6l-3.8 2v-7l-4.7.1c-2.7 0-5.5.3-6.3.6m9.4 1.1c.4.7-3.9 19.2-4.6 19.6-1.3.7-8 3.6-8.3 3.6-1 0-6.5-12.1-6.5-14.3 0-2.7 3.2-5.9 7.5-7.5 2.6-1 4.2-1.3 10.2-2.1.6 0 1.4.2 1.7.7m12.2 8.7c-.1 4.7-.6 6-3.1 8.4-3.2 3.1-8.1 4.6-10.4 3.2-2.2-1.4.6-11.7 3.8-14 3.2-2.2 5-2.9 7.7-3 2-.1 2.2.4 2 5.4m-33 5.7c.7.4 2.1 2.9 3.3 5.4 3.1 6.4 1.6 8-8.2 8.7-12.5.8-15.7-2.1-8.9-8.4 2.3-2.1 4.2-4.4 4.2-5.2 0-3.4 4.7-3.7 9.6-.5m19.8 7.7c1 1.6-.5 4.1-2.4 4.1-1 0-2.3.7-3 1.5-1.5 1.8-3.9 1.9-6.3.1-2-1.6-1.1-2.7 4.4-5 3.9-1.8 6.5-2 7.3-.7m7.4 6.1c.6 0 1.2.4 1.2.9 0 .6-1.2.6-3.1.1-3.8-1.1-5.5-2.6-1.9-1.7 1.4.4 3.1.7 3.8.7m-9.8 2.5c0 .8-.7 1.5-1.5 1.5s-1.5-.7-1.5-1.5.7-1.5 1.5-1.5 1.5.7 1.5 1.5m-8 4c0 .2-1 1-2.2 1.6-2.1 1.1-2.2 1.1-.9-.4 1.3-1.6 3.1-2.3 3.1-1.2m8.7 11.2c-.2 1.6-.4.3-.4-2.7s.2-4.3.4-2.8c.2 1.6.2 4 0 5.5"/><path d="M391 162c-1.9.5-4.2 1.9-5 3.2s-2.7 3.4-4.1 4.8c-1.5 1.4-5.2 4.9-8.3 7.9-3.1 2.9-5.5 5.6-5.2 5.9s3-2 6.1-5c6-6.1 8.3-6.7 14.2-3.5 4.1 2.2 14 3.2 17.6 1.8 3.8-1.5 3.7-5.3-.3-8.3-2-1.4-2.8-2.8-2.5-3.9.4-1.3-.3-1.8-3-2.3-2-.4-4.2-.9-4.8-1.1-.7-.1-2.8.1-4.7.5m9.4 1.6c3.3 1.3 1.3 1.9-5.9 1.9-6.2 0-7.2-.2-5.8-1.3 1.8-1.3 9-1.6 11.7-.6m1.7 5.1c6.1 3.2 7.4 5.8 3.5 7.3-2.9 1.1-10.5.4-14.9-1.2-3.8-1.5-5.5-5.7-3.1-7.5 2.9-2.1 8.6-1.5 14.5 1.4M385 171c0 .5-.5 1-1.1 1-.5 0-.7-.5-.4-1 .3-.6.8-1 1.1-1 .2 0 .4.4.4 1"/><path d="M226 168.6c-.8 1.4-2.9 3.2-4.6 3.9-3.6 1.5-6.4 5.9-6.4 10.2 0 3 2.2 11 3.8 14 .6 1 1.5 6.8 2.1 13 .6 6.1 1.6 12.5 2.2 14.2.6 1.6.9 3.8.7 4.8-.6 2.8-3.6-3.5-5.8-12.2s-3.3-10.9-7.8-16c-2.1-2.4-3.7-3.4-4.3-2.8-1.1 1.1-.1 4.5 1.1 3.8.5-.3 1.1.4 1.5 1.4.3 1.2 1.2 1.8 2 1.5 1.6-.7 2.6 1.1 5.4 9.5 2.4 7.4 2.6 9.7.6 6.1-1.2-2.2-1.4-2.2-1.5-.6 0 3.2-6.6-3.9-7.8-8.3-1-3.5-1-3.5-1.1-.7-.1 3.6 3.1 8.5 7.6 11.6 4 2.7 10.9 10.7 14.3 16.5 1.3 2.2 4.3 6.3 6.6 9.1 2.4 2.8 4 5.5 3.6 5.9-.4.5-.2.5.5.1.6-.3 2.4.5 4 1.9 1.9 1.6 2.3 2.5 1.3 2.5-.8 0 2.8 1.5 8 3.1 11.1 3.6 14 5.5 6.5 4.3-10.1-1.6-20.5-.9-28 1.7-10.3 3.7-9.5 5.2 3.4 6.3 12.1 1 19-.1 24.8-4.1 2.7-1.8 5.7-2.7 10.8-3.2l7-.7-6.5-.8c-7.9-1-19.8-5.5-24.8-9.3-13.9-10.5-21.4-24.5-17.2-32.4 1.2-2.1 7.4-2.7 8.5-.9.3.6 2 1.7 3.6 2.5 2.3 1.3 3.4 1.3 5.2.4 3.3-1.8 10.6-7.3 10.7-8.1 0-.4-2.4-1.2-5.4-1.9-5.1-1.1-5.7-1-9.8 1.3-2.4 1.4-6.2 2.8-8.6 3.2-4.2.6-4.3.6-3.7-1.6 1-3.2 2.1-4.4 5.5-5.8 4-1.7 6.8-7.9 7.1-15.7.1-3.5 0-6.5-.3-6.8-1.1-1.1-11.5 11.6-12.6 15.4-.7 2.1-1.3 6.3-1.3 9.2-.2 6.9-1.2 11.8-2.2 10.2-.9-1.4-2.6-14.4-2.8-21.6-.2-3.1.2-5.2.9-5.5.7-.2 1.2-1.8 1.2-3.7 0-2.7.5-3.5 2.9-4.5 4.5-1.8 7.4-5.8 7.9-10.9.3-3.9-.1-5.2-2.5-8.3-3.3-4.4-4.5-4.7-6.3-1.2m7.1 6.3c1.3 3.3-.5 8-4.1 10.9-2.8 2.2-5.8 2.2-4.4.1.3-.5.5-3.5.5-6.6 0-3.2.7-7 1.6-8.7l1.5-2.9 2 2.4c1 1.3 2.3 3.5 2.9 4.8m-9.7 9c-.8 5.1-1.1 5.6-3.4 5.6-3.6 0-5-5.8-2.6-10.8 2-4.3 3.6-5 5.5-2.4 1.1 1.5 1.2 3.2.5 7.6m-.4 9.5c0 .7-.6 1.9-1.4 2.5-1.1.9-1.5.8-2-.5-1-2.6-.7-3.4 1.4-3.4 1.1 0 2 .6 2 1.4m16.1 3.6c1.5 1-1.2 9.7-3.7 12-3.3 3.2-3.9 2-1.3-2.4 1.2-2 1.9-3.9 1.6-4.2s-1.7 1.7-3.2 4.5c-2.6 5.3-5 6.1-3.9 1.3 1.5-6.1 8.4-15.6 9.3-12.9.2.7.8 1.4 1.2 1.7m8.5 20.5c-2.2 1.7-5.2 2-6 .6-.8-1.2 1.1-1.9 4.9-2 2.9 0 2.9 0 1.1 1.4m1.9 3c-3.8 3.2-7.1 4.1-9 2.5-2.5-2.1-1.7-3 2.8-3 2.3 0 5.1-.7 6.1-1.5 3.2-2.4 3.3-.6.1 2m5.8 46.4c.7.7-18.3 3.1-24.4 3.1-3.9-.1-.4-1.6 7.6-3.4 6.9-1.5 15.1-1.4 16.8.3m-1.3 3c0 2-11.7 3.3-19.5 2.2l-6-.8 6-.3c3.3-.1 8.5-.5 11.5-1 8.1-1.1 8-1.1 8-.1"/><path d="M330 169.9c0 .6.4 1.3 1 1.6s.7-.1.4-.9c-.7-1.8-1.4-2.1-1.4-.7"/><path d="M358.3 198.5c0 .8.4 1.2.9.9s.6-1 .3-1.5c-.9-1.3-1.2-1.1-1.2.6"/><path d="M200.6 212.3c.3 1 .9 1.5 1.2 1.2s0-1.1-.7-1.8c-1-.9-1.1-.8-.5.6"/><path d="M25.2 238.8c.1 1.6-.8 4.2-2.1 6.1-1.3 1.7-2.5 5-2.8 7.2s-.9 4.1-1.3 4.4c-.4.2-3.4-.4-6.8-1.4-3.4-1.1-6.4-1.5-6.7-1s.8 3.4 2.5 6.5c1.8 3 3 5.6 2.8 5.7-6.3 3.2-7.9 4.5-9.4 7.5-1.6 3.5-1.6 3.6.9 5.7 1.3 1.2 4.4 2.5 6.7 2.9 3.5.6 4.9.3 7.9-1.7 3.6-2.3 3.6-2.3 6.8-.5 2.5 1.5 3.7 1.7 5.2.9 1.7-1 2.1-.6 3.2 2.6 2.1 6.5-.7 26.1-4.6 31.6-.7 1-1.5 1.5-1.8 1-.4-.7-1.8-6.8-3.2-13.9-1.2-5.8-8.6-9.3-13-6-1 .7-2.7 1.1-3.7.8-2.4-.6-2.3 1.5.2 2.8 1.1.6 2 1.6 2 2.3 0 2.2 4.9 11.7 6 11.7.7 0 2.5-.9 4.2-2.1 1.6-1.2 3.2-1.8 3.6-1.4s.7 3.8.7 7.6.2 6.9.5 6.9 1.8-1.6 3.4-3.6c6.5-8.2 10.9-32.1 7.2-39.5-1.5-3-1.5-3.6-.1-6.6 1.3-2.8 1.4-4 .5-6.8-1-2.9-.9-4.3.5-7.9 2-5.2 1.5-7.4-4.1-17.9-3.8-7.1-5.6-8.5-5.2-3.9m6.3 9.4c1.4 2.6 2.5 5.9 2.5 7.2 0 3.2-2 7.6-3.4 7.6-.7 0-2 1-3 2.1l-1.8 2.2-2.5-4.4c-2.9-5.1-2.5-9.6 1.5-17.2 2.7-5.3 2.6-5.4 6.7 2.5m-17.2 9.4c3.1 1 4.8 2.3 5.3 3.7.3 1.2 1.5 3.2 2.6 4.4 2.8 3 1.5 4.8-2 2.8-1.5-.8-3.9-1.9-5.3-2.4-1.5-.6-3.5-2.6-4.8-5.1-3.1-5.9-3.1-5.9 4.2-3.4m18.1 11.7c.8 2.1.4 3.3-1.9 6.6-1.5 2.3-3.1 4.1-3.6 4.1-.4 0-2-1.1-3.6-2.4l-2.8-2.4 4.5-4.6c2.5-2.5 5-4.4 5.5-4.2.6.1 1.4 1.4 1.9 2.9m-12.8 1.2c.8 2.1-1.4 7.3-3.9 9-1.4 1-3.4 1.3-6.1.8-8.3-1.2-9.6-3.6-4.5-8.4 2.6-2.5 3.9-2.9 8.5-2.9 4 0 5.6.4 6 1.5M18 299.2c4.3 4.7.4 6.6-5.7 2.8-3.9-2.3-4-2.8-1-4 3.4-1.4 4.5-1.2 6.7 1.2m-.6 6.8c3.4 0 4.1 1.6 1.4 3.4-3.3 2.3-5.2 2-7.1-1.3-2.5-4.3-2.2-5.7.8-3.7 1.3.9 3.5 1.6 4.9 1.6"/><path d="M234.6 255.2c.3.5 1 .6 1.5.3 1.3-.9 1.1-1.2-.6-1.2-.8 0-1.2.4-.9.9"/><path d="M360.9 273.7c-1.3 1.6-1.2 1.7.4.4.9-.7 1.7-1.5 1.7-1.7 0-.8-.8-.3-2.1 1.3"/><path d="M188.5 282.6c-1.9 4.5-1.9 8.3 0 10.8.8 1.1 1.5 3.6 1.4 5.5l-.1 3.6-1.2-3.5c-1.2-3.2-1.8-3.6-7.7-5.2-3.5-.9-6.5-1.5-6.7-1.4-.1.2.5 1.9 1.3 3.9 1.5 3.7 2.7 4.3 8.9 4.9 4.7.5 5.4 2.9 2.7 9-1.3 2.9-2.5 6.6-2.7 8.3-.4 2.9-.3 2.9.5.4.4-1.4 1.4-3.5 2-4.8 1.1-2 1.4-2.1 2.9-.8 3.7 3.2 12.2 3.3 12.2.1 0-1.4-.3-1.5-5.2-1.8-1.5-.1-3.1-.6-3.5-1-.4-.5.3-.5 1.6-.1 1.6.5 2.1.4 1.7-.4-.4-.6-1.5-1.1-2.4-1.2-1.2 0-1-.3.6-1 1.3-.5 3.5-.6 4.8-.3 2 .5 2.6.2 3.1-1.5.3-1.1.9-2.1 1.4-2.1s.9-.5.9-1c0-.6-1.6-1-3.5-1-2.5 0-3.9.6-4.9 2.3-1.8 2.7-7.6 6.3-7.6 4.7 0-1.4 11.4-13 12.8-13 .6 0 1.5 1.3 2.1 3 .5 1.6 1.4 3 2 3 4.5 0 5.8-5.7 1.8-7.9-2.4-1.3-3.7-7.1-1.6-7.1.6 0 .9.9.6 2s-.1 1.8.4 1.4c1.2-.7 1.2-4.1 0-4.8-2.2-1.4-4.1.6-3.8 3.9.3 2.8-.1 3.7-2.7 5.7-1.7 1.2-3.4 2.2-3.8 2-.5-.1-.8.2-.8.6 0 1-4.3 6.2-5.1 6.2-.4 0 .2-3.9 1.2-8.8 2.2-10.2 2.3-13.4.7-15-1.9-1.9-2.7-1.5-4.3 2.4m4.5 2c0 1.9-.4 3.3-.8 3-1.2-.7-1.3-6.6-.1-6.6.5 0 .9 1.6.9 3.6m-2.3 8.4c-.3.9-.8.4-1.6-1.4-.7-1.7-.9-4.2-.5-6 .8-3.1.8-3.1 1.6 1.4.4 2.5.7 5.2.5 6m-4.7 3.5c.5.3 1 1.1 1 1.7s-1.1.3-2.5-.6c-3.4-2.2-4.2-2-1.4.4 2 1.6 2.1 1.9.7 2-2.6 0-6.8-2.2-6.8-3.6 0-1.3 6.8-1.2 9 .1m22.5 1.1c0 1-.8 2-1.7 2.2-1.8.3-2.6-2.7-1.1-4.2 1.2-1.1 2.8 0 2.8 2m-8 6.4c-.3.5-.1 1 .5 1s.8.4.5 1c-.4.6-1.1.5-1.9-.3-1.5-1.3-1.2-2.7.5-2.7.6 0 .7.4.4 1m-6.1 8.5c2 .8 3.6 1.7 3.6 2 0 1.2-3.7.3-6-1.5-3-2.4-2.4-2.5 2.4-.5"/><path d="M110.6 287.6c-2.1 5.6.5 17.1 4.8 20.9 1.3 1.1 3.5 4.2 5 7 3 5.7 3.3 11.3 1.2 21.5-.8 3.6-1 7.4-.6 8.5s1 4.6 1.4 7.7c.4 3.2 1.2 6 1.7 6.3 1.2.8 1.2-1.7-.1-4.9-1.5-4 .6-7.4 5.2-8.8 3.6-1.1 4-.9 6.7 1.6 3.5 3.4 8.4 4 8.9 1.1.2-1.1 1.3-3 2.4-4.1 1.8-2 1.8-2.4.4-5.9-.9-2-1.3-4.1-1-4.6.7-1.2-1.1-1.1-5.9.3-2.7.8-4.9 2.4-6.8 5.1-2.5 3.5-9.6 8.3-10.7 7.3-.8-.9-.3-10.2.7-12.9 1.2-3 1-3 10.4-3.1 5.6-.1 7.1-.5 8.3-2 1.7-2.3 1-3.1-3.3-3.9-2.3-.5-4.4.1-7.7 1.8-5.1 2.7-6.1 1.7-1.8-2.1 10.5-9.3 10.2-8.9 10.2-14.1 0-2.7-.3-5.2-.6-5.6-1-.9-8.4 5.4-10 8.5-.8 1.5-1.4 4.2-1.4 6.1s-.8 4.9-1.7 6.8l-1.8 3.4-.5-6c-.4-4.6-.1-6.9 1.3-9.8 1-2.1 2-6.2 2.3-9.1.5-5 .4-5.4-2.8-8-1.8-1.5-5.5-4.5-8.1-6.6-2.7-2.2-5-4-5.2-4-.1 0-.6.7-.9 1.6m10.5 10.9c2.8 6 2.5 8.2-1.1 9s-6.3-1.8-8-7.5c-1.1-3.9-1.3-10.3-.4-11.3 1.1-1 7.6 5.7 9.5 9.8m4.2.1c1.9 2.6 2 5.5.1 6.1-.6.2-1.5-1.7-2.1-4.2-1.2-5.1-.6-5.6 2-1.9m.7 8.9c0 1.5-3 7.5-3.8 7.5s-3.6-5.1-3-5.4c2.8-1.7 6.8-2.9 6.8-2.1m13 2.2c0 3.4-3.2 8.8-6.1 10.3-1.2.7-1.9.8-1.7.3.2-.4 1.7-3.6 3.4-7.1 3.1-6.7 4.4-7.7 4.4-3.5m-6.6 5.6c-1.4 2.6-2.8 4.7-3.1 4.7-1.3 0 .9-6.6 2.9-8.8 3.2-3.3 3.3-1.3.2 4.1m7.4 11.4c-1 .2-2.8.2-4 0-1.3-.2-.5-.4 1.7-.4 2.2-.1 3.2.1 2.3.4m-.2 2.1c-.7 1.2-6.4 1.3-7.1.1-.4-.5 1.2-.9 3.5-.9s3.9.4 3.6.8m4.4 7.4c0 1.6-5.8 5-7.1 4.2-1.6-1-1-2.3 1.9-3.8 3.4-1.9 5.2-2 5.2-.4m2.8 4.2c.5 2.4-1.6 4.6-4.4 4.6-3.6 0-3.9-2-.8-4.6 3.2-2.6 4.7-2.6 5.2 0m-10.1 2.6c.3 1.1 2 2.4 4 3.1 2.4.7 3.2 1.4 2.5 2.1-1.4 1.4-6.2.1-6.2-1.6 0-.8-.7-1.6-1.5-2-1.7-.6-2.1-3.6-.4-3.6.6 0 1.3.9 1.6 2"/><path d="M114.5 296c.3.5.8 1 1.1 1 .2 0 .4-.5.4-1 0-.6-.5-1-1.1-1-.5 0-.7.4-.4 1"/><path d="m209.6 289.7-2.5 2.7 2.7 1.2c3.5 1.4 4.9.9 5.6-2.2 1.3-5-1.9-5.9-5.8-1.7m5.4-.3c0 1.6-1.4 3.6-2.5 3.6-1.7 0-2.8-1.7-2-3 .6-1 4.5-1.5 4.5-.6"/><path d="M520.3 306.7c-1.3.2-2.9 1.3-3.6 2.4-.8 1-1.6 1.6-2 1.3-1.1-1.1-8.8.8-9.4 2.3-.3.8 0 3.2.7 5.4 1.4 4.3 3.4 5.3 9.2 5s9.3 2.6 13.8 11.4c2.2 4.3 4 8 4 8.2 0 1.1-2.5-.2-5.7-3-5.8-5.1-12.9-9.7-15.2-9.7-1.1 0-3.2.5-4.7 1-2.7 1.1-2.7 1.1-.6 2.5 1.1.8 3 3.1 4.2 4.9 2.6 4.3 4.8 5.1 9.8 3.5 3-.9 4.4-.9 6.1 0l2.2 1.2-2.7 3.2c-1.4 1.7-3.6 3.2-4.8 3.3-1.1 0-3.2.7-4.6 1.4-1.4.8-2.9 1.3-3.3 1.2-.5-.1-.6.2-.3.7.7 1.1-1.3 5.9-3.2 8-.7.7-1.1 1.6-.8 1.8 1 1 8.7-1 11.1-2.9 2.4-1.8 7.2-9.8 6-9.8-.3 0 .1-1.4 1-3 1.6-3.1 4.5-3.9 6.2-1.8 2.1 2.8 6.3 14.7 7.8 22.2 1.6 8.3 2 16.6.8 16.5-.5 0-2.3-1.9-4.1-4.2-3.1-3.8-3.3-4.5-2.7-9.1.5-3.8.1-6.4-1.6-11.3-1.3-3.4-2.6-6.3-3-6.3s-.9 2.1-1.1 4.7c-.5 4.5-.1 5.9 4.3 17 .5 1.3.6 2.3.3 2.3-2.2 0-7.6-3.4-10-6.3-2.8-3.4-4.9-4.2-10.3-3.9-1.6.2-2.1.7-1.8 1.6q.6 1.5-2.4 2.1c-3.2.7-3.7 2.6-1.3 4.6 1.4 1.2 1.4 1.4-.2 2.6-1.4 1.1-1.5 1.5-.3 2.9 2 2.4 9.4 1.4 14.8-2l4.4-2.8 4.1 1.8c2.2 1 4.8 2.4 5.6 3.1 1.2 1.1.7 1.3-3.3 1.3-5.4 0-10.6 1.9-13.6 4.9-1.6 1.6-2.1 3.3-2.1 7.3 0 5.2.1 5.2 1.8 3.2.9-1.1 3.4-3.3 5.5-4.9 2-1.5 4-3.9 4.3-5.2.8-2.9 4.3-4.5 8.4-3.7 2.5.6 3 1.1 3 3.7 0 1.6-2.4 10.2-5.4 19.1-5.3 15.8-7.6 26.4-5.6 25.1.6-.3 1-1.8 1-3.2 0-3.6 2.5-12.7 5.5-20.1 3.7-9.2 7.5-23.9 7.5-29.4 0-9.4 3.3-12.2 9-7.8 3.4 2.6 5.9 2.4 9.4-.7 2.9-2.4 2.9-2.6 1.1-3.9-2.2-1.6-9.6-1.9-11.1-.4-1.3 1.3-5.4 2.2-5.4 1.2 0-1.7 3.2-5.2 4.8-5.2.9 0 3.2-1.3 5-2.8 2.6-2.2 3.4-3.8 4.1-8.2.5-3 .8-5.6.6-5.8-.6-.7-11.5 6.9-12.9 9-.9 1.2-1.6 4.1-1.6 6.3-.1 2.2-.9 5.7-1.9 7.8l-1.8 3.9-.6-5.4c-.4-2.9-1.4-7.4-2.2-10-1.4-4-1.4-5.2-.2-9.4.7-2.6 1.9-5 2.4-5.1.6-.2 2.7 1 4.6 2.6 3.1 2.8 3.7 3 6.6 2 3.3-1.2 5.1-3.5 5.1-6.7 0-1.1.9-2.2 2-2.5 2.6-.7 2.5-2.7-.5-8.7-1.7-3.3-3.2-5-4.7-5.2-1.3-.2-2.8-1.5-3.6-3.1-1.6-3.3-3.2-3.4-5.9-.5q-5.1 5.7-5.1 12.9c.1 5-2.2 16.9-3.3 16.9-.3 0-1.4-2-2.3-4.5-1.4-3.5-1.6-6-1-11.2.6-6.1 1.1-7.1 5-11.3 2.3-2.5 4.6-5.9 5-7.5.4-1.7 1.1-3.6 1.7-4.3 1.9-2.4-.1-2.3-4.2.2-4.9 3.1-8.1 8.9-8.2 14.8 0 2.4-.3 6-.7 8.1l-.7 3.7-3.2-6c-3-5.6-3.1-6.2-1.8-9.3.7-1.8 2.6-3.9 4.1-4.7 2.4-1.3 7.1-9.6 6.1-10.7-.2-.2-1.5 0-2.8.5-5.9 2.2-7.7 2.3-8.2.2-.5-2-1.7-2.2-6.4-1.3m5 2.6c.2.7.2 3-.2 5.2-.7 4.5-3.5 6-4.6 2.6-.3-1.2-1-2.1-1.5-2.1-1.5 0-2.2-4-1-5.5 1.5-1.8 6.6-2 7.3-.2m10.2 1.9c-.8 2.9-4.2 5.8-6.6 5.8-4.5 0-2.9-4.8 2.3-6.6 4.7-1.7 5-1.7 4.3.8m-18.7 3.7c4.5 5.6 4.2 7.1-1.1 7.1-5.8 0-8.7-2.2-8.7-6.5 0-2.9.4-3.4 2.8-3.8 1.5-.2 3-.5 3.3-.6.3 0 2 1.7 3.7 3.8m26.6.3c-.9 3-5.8 9.1-6.2 7.8-.5-1.4 4.6-10 5.9-10 .6 0 .7.9.3 2.2m-5.1 2.3c-.9 1.9-1.8 3.3-2.1 3.1-.4-.5 2.6-6.6 3.3-6.6.3 0-.3 1.6-1.2 3.5m-11.3 3.4c0 2.5-1.4 3.4-4 2.6s-2.5-2.4.3-3.5c3.3-1.3 3.7-1.2 3.7.9m24.9 2.6c2.9 4.3 2.4 5.8-2.9 8.5-3.3 1.7-4.5 1.9-5.6.9-.8-.6-1.4-1.7-1.4-2.3 0-1.5 5.8-10.6 6.8-10.6.4 0 1.8 1.6 3.1 3.5m7 5.3c3.4 6.6 3.2 7.3-2.4 8.7-4.2 1.2-5.3 1.1-7.2-.1-1.3-.8-2.3-1.9-2.3-2.4s1-1.2 2.3-1.6c3.4-1 5.7-3.5 5.7-6.1 0-3.4 1.7-2.8 3.9 1.5m-43.1 4.2c4.7 2.4 9.1 5.9 7.5 6-2.4 0-14.4-6-13.8-7 .9-1.4 2.1-1.3 6.3 1m.5 4.5c2.6 1.1 4.7 2.3 4.7 2.7 0 1.3-5.4.8-7-.5-2.2-1.7-4.7-5.1-3.5-4.6.6.2 3.2 1.3 5.8 2.4m31.3.7c.7 2.4-.9 4.3-3.1 3.5-1.9-.8-2.9-3.2-2.2-5.1.8-2 4.5-.9 5.3 1.6m9.8 3.2c-1.2 4.2-6 6-8.4 3.1-2.3-2.8-.4-5 4.5-5.1 4.2-.1 4.5 0 3.9 2m0 8.2c-1.8 1.5-1.8 1.5.4.9 2.6-.7 2.8.4.8 4.4-1.5 2.8-6.4 6.7-7.3 5.7-.8-.7 3-6.6 3.9-6 .4.3.5-.2.2-1-.3-.9-.7-1.6-.9-1.6s-1.5 2-2.9 4.5c-3 5-3.6 5.4-3.6 2.5 0-2.1 8.5-11 10.4-11 .5 0 .1.7-1 1.6m-32.4 2.2c0 .2-1.2 1.9-2.7 3.9-3.1 4-10.3 7.8-10.3 5.5 0-.4 1.5-1.3 3.3-2s4.3-2.5 5.5-4.2c3-4.1 1.8-3.8-2.2.5-4.2 4.4-6.3 4.7-4.1.5 1.8-3.6 4.1-5 7.8-4.8 1.5.1 2.7.4 2.7.6m6.7 11.4c-.2 1.3-.4.5-.4-1.7-.1-2.2.1-3.2.4-2.3.2 1 .2 2.8 0 4m3.2 3.6c.1 1.3-.3 2-.9 1.7-.5-.3-1-2.3-.9-4.3 0-3 .2-3.3.9-1.7.5 1.1.9 3 .9 4.3m25.6.1c.8 1.4-.6 1.9-4.2 1.4-1.8-.3-3-.9-2.7-1.4.7-1.2 6.1-1.2 6.9 0m-38.7 2.8c1.1 2.2.5 4.3-1.2 4.3-.7 0-2.5-1.4-4.1-3l-2.9-3h3.7c2.4 0 3.9.6 4.5 1.7m37.6 1.1c-1.8.9-2.9 1-4.4.2-2.8-1.5-2.6-1.7 2.4-1.6 4.3.1 4.4.2 2 1.4m-43.4 1.7c1 1.2.8 1.6-1.5 2.5-3.3 1.3-3.1 1.3-5.1-.7-1.5-1.6-1.5-1.7.2-2.4 3-1.2 5.1-1 6.4.6m9.2 2c0 .5-.5 1.1-1.1 1.3s-1.1-.4-1.1-1.3.5-1.5 1.1-1.3 1.1.8 1.1 1.3m-4.3 1.4c2.1 1.3.6 2.7-4.3 4.1-3 .8-5 .9-6.2.2-1.5-.8-1.2-1.2 2.2-3 4.3-2.3 6.2-2.6 8.3-1.3m5.5 9.3c-.5.8-.2.9.9.5 3.8-1.4.2 3.6-5 7.2-4.5 3-4.2.7.3-3.5 1.9-1.9 3.2-3.4 2.8-3.4s-1.8 1-3.1 2.2-2.3 1.7-2.3 1.1 1.5-2 3.3-3.2c3.7-2.4 4.1-2.5 3.1-.9"/><path d="M107 325.4c0 .6 3 7.8 4.2 10.3.6 1.3 1.7 2.3 2.3 2.3.7 0 2.4.9 3.9 2.1 1.4 1.1 2.6 1.9 2.6 1.7 0-.3-.7-2.7-1.5-5.4-1.1-3.7-2.5-5.7-5.6-8.2-3.8-2.9-5.9-3.9-5.9-2.8m8 6.9c.5-.2.6.5.3 1.4-.4.9-.2 1.4.3 1 .6-.3 1.1.3 1.1 1.4.2 2.1.1 2.2-2.1 1.3-1.4-.5-5.7-8.5-5.6-10.3.1-.3 1.2.7 2.6 2.4 1.3 1.6 2.9 2.9 3.4 2.8"/><path d="M288.4 333.7c0 2.7-.4 7.7-.9 11.3l-.7 6.5 4.6 6.1c2.5 3.4 4.6 6.9 4.6 7.8s.7 1.9 1.5 2.2c2.5 1 1.9 9.5-1 15-1.4 2.6-2.5 6-2.5 7.5 0 6.5-6.5 18.9-9 17.4-.4-.3-1.1-2.5-1.5-5.1-.5-3.3-.2-5.2.9-6.9.9-1.4 1.6-3.1 1.6-4 0-3-3.8-9-8.9-14l-5.1-4.9-3.6 3.4c-4 3.9-6.4 7.9-6.4 10.9 0 2.7 4.7 6.3 11.6 9.1 3.3 1.3 6.3 2.6 6.7 3 .5.4 1.2 3.4 1.7 6.6 1.2 8.5-1.3 12-12.2 17.3-9.5 4.6-8.3 5.6 1.5 1.2 5.4-2.5 7.5-4.2 13.5-11.3 3.9-4.7 7.7-10.2 8.6-12.2 2.1-5 6.3-6.7 14.8-6 3.5.3 7 .1 7.8-.5 1.3-.9 3.2-13.5 2.2-14.5-.3-.4-3.4.5-9.6 2.7-1.9.7-3.4 2.4-4.6 5.3-1.2 2.7-3 4.9-4.9 5.9l-3.1 1.6v-3.9c0-2.3 1.1-5.9 2.6-8.7 1.9-3.6 2.5-6.1 2.3-9.6-.2-4.2.1-5 2.9-7.4 4-3.3 5.4-8.2 5-16.5-.3-5.8-.5-6.5-2.3-6.2-1.5.2-2.7-1-4.5-4.4s-3.8-5.2-7.2-7c-2.6-1.3-5.1-2.4-5.5-2.4s-.8 2.1-.9 4.7m6.7-.3c3.5 2.4 6.9 7.8 6.9 10.9 0 .8-.7 2-1.5 2.7-2.3 1.9-3.5 7.5-2.3 11.6.5 2 .7 3.9.3 4.2-.6.7-4-3.1-8.2-9.1-2.6-3.7-2.6-4.1-1.5-9.6.7-3.1 1.2-7.4 1.2-9.4s.3-3.7.8-3.7c.4 0 2.4 1.1 4.3 2.4m12.5 14.2c.9 3.7-1.3 12.8-3.7 14.9-2.2 2.1-2.2 2.1-3.8-2.4-1.8-5.3-1.3-7.8 2-11.6 3.7-4.2 4.7-4.3 5.5-.9m-7.9 17.9c0 .8-.4 1.2-.9.9s-.6-1-.3-1.5c.9-1.3 1.2-1.1 1.2.6m-21.9 15.2c6.3 7.7 7.8 11.8 4.6 13-2.8 1-8.1-5.2-9-10.5-.2-1.5-.6-3.7-.9-5-.8-3.5 1-2.6 5.3 2.5m-6.7-1c.2 6.9 3.3 12.6 8.4 15.3 4.6 2.5 1.8 2.2-5.2-.5-10.6-4.2-12.6-7.9-7.5-14 3.3-4.1 4.2-4.3 4.3-.8m42.9 3.7c0 1.4-5.4 6.6-6.9 6.6-3.1 0-1.3-4.3 2.7-6.4 3.4-1.9 4.2-1.9 4.2-.2m2.3 4.3c-.8 5.7-4.3 7.6-9.8 5.4-1.8-.7-1.6-1 1.6-2.4 2-.8 4.5-2.7 5.5-4.1 2.6-3.5 3.4-3.2 2.7 1.1"/><path d="M55.2 348.2c-2.3 2.9-3.2 5.2-3.2 7.8 0 4 3.1 9 5.6 9 .9 0 1.4 1.1 1.4 3.3 0 1.8.4 3.7 1 4.3 1 1-.9 27.4-2 27.4-.8 0-2-6.3-2.6-13.5-.7-8.2-1.6-10.5-6.1-16-5.4-6.7-6.3-6.2-6.3 3.5 0 6.9 2.5 13 5.4 13 2 0 5.3 3.1 6.1 5.7.6 2 .3 2.3-2.5 2.3-1.7 0-5.7-1.2-8.8-2.7l-5.6-2.6-5.5 1.9c-3 1.1-5.6 2.4-5.7 2.9-.3 1.1 12.3 7.6 14.7 7.5.8 0 2.8-1.4 4.4-3 8.2-8.5 15 2.5 11 17.8-3.6 14.2-7.3 22.6-12.5 28.6-2.5 2.9-12.3 9.6-13.9 9.6-.5 0-.8-3.2-.6-7.1.1-4-.3-9.4-1.1-12.2-1.2-4.7-1.2-5.1 1.2-8.6 3.1-4.6 3.3-11.7.3-15.5-2.6-3.3-3.5-3.3-5.4.4-.9 1.7-2.4 3-3.4 3-2.6 0-4.4 5.2-2.9 8.5.6 1.4 1.5 2.5 2 2.5.4 0 .8.9.8 2 0 1.2 1 2.4 2.4 3 3.3 1.2 3.6 1.9 4.2 10.2.8 9.7-.6 14.7-5.7 19.8-5.7 5.7-3.9 6.4 1.9.8 5.7-5.6 13.8-9.8 18.8-9.8 2.1 0 4.9.9 6.6 2.2 4.2 3 11.3 3.5 17.9 1.2 3-1 5.8-1.7 6.2-1.6.5.1.7-.7.5-1.9-.7-5-19.9-8-25.1-3.9-2.6 2-5.7 2.7-5.7 1.2 0-.5 2.9-3.7 6.5-7.1 3.5-3.4 7.4-7.5 8.5-9.2 1.3-1.7 3-2.9 4.4-2.9 8.1 0 12.1-4.8 12.9-15.8.5-6.7.4-7.2-1.4-7.2-6 0-10.8 6-12.4 15.5-.4 2.2-1.5 4.9-2.5 6-.9 1.1-2.7 3.7-3.9 5.7-1.3 2.1-2.7 3.8-3.2 3.8-1.2 0-1.2-.1 1.2-5.4 1.1-2.6 3.1-8.9 4.4-14 2.7-10.7 5-15.1 11.6-22.2 4.9-5.2 7.7-12 5.9-13.8-.7-.7-1 0-1 1.7 0 3.4-2 7.5-4.9 10.1-1.6 1.4-2.1 1.6-2.1.5s-.2-1.1-1 .1c-1.6 2.4-1.3-1.8.6-8.1 2.3-7.6 3.4-9.5 4.5-7.8.7 1.1 1 .9 1.5-.9.4-1.2 1.3-2.2 2-2.2.8 0 1.4-.9 1.4-2 0-2.9-1.4-2.5-4.9 1.5-4.5 5.2-5.8 8.1-7.1 17-.7 4.4-1.8 9.3-2.5 11l-1.3 3-.1-3.3c-.3-10 2.2-28 4.5-33.6 2.5-6 2.7-7.8.5-5.2s-4.1.7-4.1-4c0-4.9 1.7-9.4 3.6-9.4 1.6 0 2.4 2.3 2.4 7.3 0 3.1.3 3.8 1 2.7 2.3-3.6-.4-12-3.9-12-1.2 0-2.1-1-2.5-2.5-.9-3.6-2.7-3.1-6.4 1.7m5.2 4.5c-.4 2.6-.7 6-.5 7.5.3 3.4-1.4 3.6-4.6.6s-3-7 .8-11.3c4-4.5 5.5-3.5 4.3 3.2m3 15.1c.2.4.1 1.4-.4 2.2-.7 1.1-1.2 1.2-2.1.3-.6-.6-.8-1.6-.5-2.2.8-1.3 2.3-1.4 3-.3m-9.8 13.9c.9 6.3-.3 6.5-2.8.5-1.2-2.9-2.6-5.2-3-5.2-1.3 0-.9 1.2 1.2 4.8 2.4 3.9 2.4 4.2.5 4.2-3.5 0-6.6-9.6-4.4-13.7l1.4-2.5 3.2 3.7c2.1 2.4 3.4 5.3 3.9 8.2m-11.8 12c.2.8-.6 1.3-2.1 1.3-3.2 0-5.7-.9-5.7-2.2 0-1.4 7.3-.5 7.8.9m3.1 2.9c.2.2-.2 1-.9 1.9-1.8 2.2-5.9 1.8-10.5-1l-4-2.5 7.5.6c4.1.4 7.7.8 7.9 1M74 410.7c0 1.1-1.9 2.8-5 4.4-5.8 3.1-6.6 1.9-2.1-3 3.2-3.4 7.1-4.2 7.1-1.4m-44.6 3.5c2 2.8 2 6.1.1 9.8-1.4 2.7-1.8 2.8-4 1.8-2-.9-2.5-1.8-2.5-5 0-3.7 2.3-8.8 4.1-8.8.4 0 1.5 1 2.3 2.2m43.9 5.2c-.4 5.8-5 9.5-8.1 6.4-2-2-1.3-5.5 1.5-7.8 3.8-3 6.9-2.3 6.6 1.4M21 421c0 1.6-.4 3-1 3-.5 0-1-1.4-1-3 0-1.7.5-3 1-3 .6 0 1 1.3 1 3m43.4 6.5c.3.9 0 1.5-.9 1.5-.8 0-1.5-.7-1.5-1.5s.4-1.5.9-1.5 1.1.7 1.5 1.5M26 428.6c0 1.7-2.2 1.4-2.8-.4-.2-.7.3-1.2 1.2-1.2s1.6.7 1.6 1.6m40.9 20.7c2.3 1 1.6 1.2-5.4 1.7-8.5.5-12.5.2-12.5-1 0-2.9 11.9-3.4 17.9-.7m2.5 3.7c-.6.6-3.5 1.5-6.5 2.1-4.2.9-6 .8-8.4-.2-2.9-1.3-2.8-1.4 4.5-1.9 4.1-.4 8.4-.7 9.5-.8 1.3-.1 1.6.1.9.8"/><path d="M544.6 354.7c-.6 1.4-.5 1.5.5.6.7-.7 1-1.5.7-1.8s-.9.2-1.2 1.2"/><path d="M203.8 363.3c-.9.9-2.3 1.5-3 1.2-2.9-1.1-5.6 3.7-6.2 11-.3 4.1-1.7 10.1-3.4 14.5-1.6 4.1-3.2 8.4-3.6 9.4-.3 1-.9 1.6-1.2 1.3s.4-4 1.6-8.4c1.9-6.7 2-8.5 1.1-12.1-1.4-5.1-3-5.5-2.8-.8.1 1.9.7 3.4 1.2 3.3 1.2-.2.7 6.4-.5 7.7-.5.5-.6 1.6-.2 2.5.5 1.4.4 1.4-1.1-.1-1.9-1.9-2.3-5-1.2-9.2.6-2 .5-2.7-.3-2.2-2 1.2-2.4 7.1-.8 11.1 1.9 4.4 2 8.2.5 19-1.7 12.8-2.1 13.8-3 7.5-.5-3.1-.4-7 .1-9 1.5-5.6 1.2-7.7-1.7-10.6l-2.7-2.7-1.7 3.9c-1 2.1-1.8 5.6-1.8 7.6-.1 3.8 2.2 7.8 4.6 7.8.7 0 1.5 1.7 1.9 3.7.4 2.1 1.2 4.9 1.9 6.3 1.9 3.9 2.7 8 1.5 8-.6 0-1.4-1-1.9-2.3-1.1-2.8-2.8-4.2-6.1-5.1-4.7-1.3-10.8-1.7-11.4-.8-.3.5 1.4 2.8 3.9 5.1 4.1 3.8 4.9 4.1 10.1 4.1 5 0 5.9.3 8.6 3.2 1.7 1.8 4.4 6.2 6 9.8s3.5 7.2 4.2 8c1.9 2.2 3.7 8 2.5 8-2.5 0-6.8-3.2-8.2-6.2-2.7-5.6-9-9.8-14.8-9.8-2.9 0-3 6-.1 8.8 1.3 1.2 2.1 2.6 1.7 3.1-.7 1.2 1.4 1.8 9.5 2.6 11.8 1.3 14 4 14 17.5 0 6.5-2.3 17.7-4 19.3-1.6 1.7-2.8-8.7-1.6-13.9.8-3.4-1.3-6.8-6.2-10.2l-2.7-2-.2 6c-.3 5.7-.1 6.2 3.2 9.2 4.7 4.3 6.3 11.5 4.2 18.3-2.3 7.1-3.1 11.7-1.9 10.9.5-.3 1.2-2.4 1.6-4.7.4-2.2 1.7-6.2 3.1-8.8 1.3-2.7 3.5-8.9 5-13.9 3.3-12 4.3-13.9 7.4-15.1 5.3-2 9.2-6.4 10.7-12.1 1.5-5.8 1.3-7-1.1-5-.8.7-2.2 1-3 .6-.9-.3-1.4-.2-1.1.3s-.5 1.6-1.9 2.5c-2.9 1.9-5.6 7-7.9 14.8-.9 3.2-1.9 5.8-2.2 5.8-.4 0-.4-.8-.2-1.8.3-.9-.2-6.2-1-11.7-2.1-14.6-2.1-14.7 2.7-19.3 4.1-3.9 4.2-4 3.9-10.5-.3-5.9-.5-6.4-2.1-5.5-1 .5-3.2 3-4.8 5.6-2.7 4.2-3 5.3-2.5 9.9.3 2.8.2 5.4-.2 5.7-1.4.8-5.4-7.2-5.4-10.7 0-1.8.5-4.5 1.1-6 1.7-4.3 6.1-9.6 7.5-9.1.7.3 1.9-.2 2.6-1.1.7-.8 1.8-1.5 2.5-1.5s1.6-.7 1.9-1.6c.9-2.4.7-5.4-.4-5.4-.5 0-1-1.1-1-2.5 0-1.8-.5-2.5-1.9-2.5-3.1 0-6.2 4.8-5.9 9 .1 2.6-.6 4.6-2.4 7.1-1.4 1.9-2.9 4.5-3.3 5.9-.4 1.3-1.3 3-2.1 3.7-1 1.1-1.6.8-3.2-1.4-1.1-1.6-2.7-5.2-3.5-8.1-1.4-4.7-1.4-6.2-.1-14.4 2.2-13.5 5-18.6 9.8-17.4 1.7.4 2.6 1.5 3.1 3.6.7 3.3.8 3.3 8.2 3.4 6.2.1 6.7-1 2.2-4.8-2.2-1.9-4.2-2.6-7.2-2.6-2.3 0-4.8-.4-5.6-.9-2.3-1.4.4-4 4-3.9 1.6.1 3.8-.7 4.9-1.7 1.9-1.7 5.7-10.2 4.9-11-1.1-1-10.6 5.4-12.6 8.5-6.5 10.2-7.7 10.3-3.7.3 3.3-8.3 6-11.9 9.7-12.8 1.5-.4 3.5-1.8 4.4-3.1 1.4-2.3 1.5-3 .2-7.1-1.3-4.3-1.6-4.5-3.1-3m2.2 4.7c.8 2.7.6 3.5-1.6 5.7-1.9 1.9-2.8 2.3-3.7 1.4-.8-.8-.8-1.4.1-2.3.7-.7 1.2-2 1.2-3.1 0-2.1 1.9-6.1 2.6-5.4.3.2.9 1.9 1.4 3.7m-5 0c0 1.2-.8 3.5-1.7 5.3s-1.7 3.6-1.8 4.1c0 .5-.6 1.1-1.4 1.4-.9.3-1.1 0-.5-.9.4-.7.7-2.7.6-4.3-.3-3 2.1-7.6 3.8-7.6.6 0 1 .9 1 2m3.2 20.9c-1 1.4-2.8 2.8-3.8 3-1.7.3-1.6 0 .6-2.5l2.5-2.8-3.7 2.7c-2.1 1.6-3.8 2.4-3.8 1.9 0-1.1 6.1-6.8 8-7.4 2.3-.7 2.4 2.1.2 5.1M181 405.1c0 2.5-.2 2.4-2.9-1.1-2.7-3.7-1.7-6.5 1.1-3.1 1 1.3 1.8 3.2 1.8 4.2m24.6-4.6c1.5 1.1 1.6 1.4.3 1.5-.8 0-2.4-.7-3.5-1.5-1.5-1.1-1.6-1.4-.3-1.5.8 0 2.4.7 3.5 1.5m-4.9.6c.6.6 2.6 1.5 4.5 1.9l3.3.8-4.2.1c-3.3.1-4.5-.4-5.3-1.9-1.2-2.2-.1-2.7 1.7-.9m-23.5 4.6c2.1 1.9 2.4 5.9.4 6.6-2.1.8-3.6-1.3-3.6-5s.6-4 3.2-1.6m1.8 8.3c0 .5-.4 1-1 1-.5 0-1-.5-1-1 0-.6.5-1 1-1 .6 0 1 .4 1 1m27 4.4c0 3.4-3.5 7.5-5.1 5.9-1.4-1.4-.5-5.5 1.7-7.7 2-2 3.4-1.2 3.4 1.8m1.7 5.1c-.4.8-1.1 1.5-1.7 1.5s-.6-.7.2-2c1.4-2.2 2.4-1.9 1.5.5m-31.3 5.4c4.1 2.2 4.3 3.8.6 4.6-2.2.5-3.9.2-5.8-1.1-3.2-2-5.2-4.6-4.6-5.6.7-1.1 6.4.2 9.8 2.1m26.4 14c-2.3 6.2-3.8 7.7-3.8 4.1 0-3.2 4.6-11.7 5.7-10.6.3.2-.6 3.2-1.9 6.5m4.2-1.1c0 1.7-1 3.8-2.5 5.2-3 2.8-3 2.7-.9-3.3 1.8-5.3 3.4-6.1 3.4-1.9m-20.6 12.1c3.1 3.1 2.8 5.8-.4 4.1-1-.5-3.2-1-4.9-1-3.4 0-6.1-2.3-6.1-5.2 0-1.9.4-2 4.3-1.4 2.7.4 5.2 1.7 7.1 3.5m.1 6.1c.4.6-.8 1-2.9 1-1.9 0-3.8-.5-4.1-1-.4-.6.8-1 2.9-1 1.9 0 3.8.4 4.1 1m3.7.5c0 .5-.5 1.1-1.1 1.3s-1.1-.4-1.1-1.3.5-1.5 1.1-1.3 1.1.8 1.1 1.3m28.1 2.4c-.9 4.1-2.1 5.8-5.9 8.7-7.1 5.5-6.5-3 .7-9 3.7-3.2 6-3 5.2.3m-24.4 21.5-.1 3.1-1.1-2.5c-.7-1.4-2-3.6-2.9-5-2.8-3.8-2.1-4.7 1.2-1.5 2.1 2 3 3.8 2.9 5.9m-3.4-.9c1.1 1.9 1.6 3.8 1.1 4.2-1 1.1-4.6-3.4-4.6-5.8 0-2.9 1.5-2.3 3.5 1.6"/><path d="M168 428.4c1.5 1.6 9 5 9 4.1 0-.2-2.4-1.6-5.2-3.1-3.1-1.5-4.7-1.9-3.8-1"/><path d="M214.1 465c-1.2 2.2-3.1 4.5-4.2 5-1 .6-1.9 1.5-1.9 2.1 0 1.8 4.8-2.6 7-6.4 1.2-2.1 2-4 1.8-4.3-.3-.2-1.5 1.4-2.7 3.6"/><path d="M447.6 375.1c-1.1 1.7-1.3 2.6-.5 3.6.6.7 1.5 1 2 .8.8-.6 3.9 4.5 3.9 6.5 0 .6-1 0-2.3-1.3-1.8-2-2.4-2.2-3.5-1.1-3 3.2 0 8.1 3.3 5.4 2.4-2 3-.3 1.6 4.8-1.7 6.4-2.7 7.1-3.9 2.8-.6-1.9-2.6-5.2-4.6-7.3s-3.9-4.8-4.2-6.1c-.8-3-1.9-2.8-3.4.7-1.6 3.9-.3 6.2 6.8 12.7l5.6 5.2-1.1 4.6c-1.3 5.8-.1 6.1 1.4.3 1.7-6.3 4-8.5 11.3-11 5.7-1.9 6.9-2.8 9.7-7.2 1.8-2.7 3.3-5.4 3.3-6 0-.5-.5-.2-1.1.9-.6 1-4.4 3.3-8.4 5.1-4 1.9-7.6 3.9-8 4.5-.6.9-.2.9 1.4.1 1.2-.7 2.6-.9 3.2-.6.5.4 2.5-.3 4.4-1.4 3.9-2.3 4.8-1.2 1.1 1.3-2.4 1.5-9.1 2.7-11.1 2-.6-.2-.9-2.6-.7-5.4.3-4 .8-5 2.2-5 2.8 0 4.3-2.5 3.1-4.9-1-1.7-1.6-1.9-3.7-1.1-3.6 1.4-4.2 1.3-5.4-1-.6-1.2-.7-2-.1-2 .5 0 1.2.8 1.5 1.7.3 1.1.4.8.3-.6-.3-3.3-2.2-3.7-4.1-1m10.4 5.4c0 1.6-3.5 2.1-4.4.6-.8-1.2.4-2.1 2.6-2.1 1 0 1.8.7 1.8 1.5m-13.6 12.9c1.6 2 2.6 3.9 2.2 4.3-.8.9-7.4-5.4-9-8.7-2.1-4-.7-5.6 1.8-2.2 1.1 1.6 3.4 4.6 5 6.6m6-7.5c.3.5-.1 1.4-.9 2.1s-1.5 1-1.5.7-.3-1.2-.6-2.1c-.7-1.7 2-2.3 3-.7m13.6 4.6c-1.4.8-2.9 1.4-3.5 1.4-.5 0 .1-.6 1.5-1.4s3-1.4 3.5-1.4c.6 0-.1.6-1.5 1.4"/><path d="M190 375c0 .5.5 1 1.1 1 .5 0 .7-.5.4-1-.3-.6-.8-1-1.1-1-.2 0-.4.4-.4 1"/><path d="M369.6 389.3c.3 1 .9 1.5 1.2 1.2s0-1.1-.7-1.8c-1-.9-1.1-.8-.5.6"/><path d="M462 396.4c0 .2.8 1 1.8 1.7 1.5 1.3 1.6 1.2.3-.4s-2.1-2.1-2.1-1.3"/><path d="M192.2 418c-3.1 4.9-3.5 8.2-2.1 14.7 1.2 5.3 1.3 5.5 1.9 2.8.3-1.7 1.4-4.8 2.5-7 1.9-4.1 2.1-7.7.6-11.7-.8-2.3-.9-2.2-2.9 1.2m2.4 6.2c-.4 2.4-1.1 5-1.7 5.8-1 1.4-.8-.7.7-7.5l.4-2-.9 2c-.5 1.1-1.2 3.3-1.6 4.9-.9 4.1-1.8 2.5-.9-1.8.6-3.6 3.1-7.2 4.1-6.2.3.3.2 2.4-.1 4.8"/><path d="M36.7 423.3c-3.5 5-3.7 5.8-3.7 12.9 0 4.6-.6 9-1.6 11.3-.8 2-1.3 3.9-1 4.2s1.1-1 1.9-2.8c.8-1.9 2.4-4.3 3.7-5.4 3.8-3.3 6.2-10.3 6.1-17.4 0-3.5-.4-6.8-.9-7.3s-2.5 1.6-4.5 4.5m3.6 1.6c1.4-3.4.5 6.3-.9 10.4-2.1 6.1-3.9 7.3-3.1 2.1l.6-3.9-1.4 3.5-1.5 3.5.4-6.3c.4-6.4 3.1-11.6 4.7-9.1.5.8.8.7 1.2-.2"/><path d="M40.9 442.7c-1.3 1.6-1.2 1.7.4.4.9-.7 1.7-1.5 1.7-1.7 0-.8-.8-.3-2.1 1.3"/><path d="M290.3 458.7c-1.6 9.9.1 18.9 4.2 22.3.9.8 2.6 3.2 3.7 5.4 1.7 3.4 1.9 5.1 1.4 12-.8 9.9-1.6 14.6-2.5 14.6-1.4 0-7.1-12.1-7.1-15 0-1.7-.5-4.1-1.1-5.3-1.7-3.3-6.1-7.7-7.1-7.1-.4.3.5 1.7 2.2 3 3.1 2.7 5.5 9 4.4 11.8-.6 1.5-.8 1.5-3.1.1-1.4-.9-2.7-1.4-3-1.2-.2.3 1.5 1.7 3.9 3.1 3.2 1.8 5.1 4 7.2 8.1 2.6 5.1 2.7 6.1 2.1 13.3-.8 8.9-3.9 16.7-8.9 22.2-4.7 5.2-5.2 6.3-8 18.1-3.2 13.3-5.1 18.8-7.8 21.6l-2.1 2.3-2.2-6.2c-1.9-5.5-2-6.6-.8-11 1-4.1 1-5.6-.2-9.1-.8-2.3-1.9-6.6-2.5-9.5-.7-2.8-1.5-5.2-1.8-5.2-1 0-5.2 10.2-5.2 12.5 0 2.9 4.2 13.9 8 21 2.5 4.7 3 6.7 2.5 9.5l-.5 3.5 4.4-5c3.2-3.5 5.2-7 6.7-11.8 1.2-3.8 2.8-7.5 3.6-8.3 2.4-2.4 6.3-2.8 9.9-1.1 1.8.9 6.2 2.1 9.8 2.7 6.2 1.1 6.6 1.1 12.6-1.8 3.3-1.7 5.6-3.3 5.1-3.7-1.6-.9-11.5-3.4-12-2.9s4.6 2.4 6.4 2.4c3.1 0 2.2 1.9-1.5 3.4-5.1 2-9.2 2-15.8.1-4.7-1.4-7-3.5-3.9-3.5.8 0 .8-.3-.2-.9-.8-.5-1.6-1.7-1.7-2.6-.4-2.9-1.4-3-1.4-.2 0 1.9-.8 3.1-3 4.2-5.5 2.8-5.9 2-3.5-6.3.9-3.1 3.3-7.2 6-10.3 4.4-5.1 8.5-12.3 8.5-14.7 0-1.7 5.6-3.8 12.3-4.6 3.2-.3 7.2-1.3 8.8-2.1 2.6-1.4 6.9-7.9 6.9-10.5 0-1.5-11.5-1.2-15.4.4-2.2.9-4.4 3-6 5.9-1.5 2.5-3.3 5.1-4.1 5.7-1.3 1.1-1.5.6-1.5-2.6 0-2.2.7-6.7 1.5-10.2.8-3.4 1.7-9.5 2.1-13.5.8-10.3 1.2-11.7 3.8-12.7 2.4-.9 3.1-2.8 4.2-13.2.7-5.4-1.1-11.8-3.2-11.8-.7 0-3.9-2.3-6.9-5-3-2.8-5.9-5-6.4-5-.6 0-1.3 2.1-1.8 4.7m7.6 2.2 4.5 3.8-1.9 3.9c-1.6 3.3-1.6 4.4-.5 8.7.7 2.6.9 5.1.6 5.5-1.9 1.9-8.1-5.9-9.2-11.4-.7-3.8.4-14.4 1.4-14.4.4 0 2.7 1.8 5.1 3.9m8.7 7.3c1.6 5-.1 15.8-2.5 15.8-1 0-3.1-7.6-3.1-11.2 0-2.5 2.5-6.8 4-6.8.5 0 1.2 1 1.6 2.2m-3.1 17.1c1.3 1 1.5 1.6.6 2.1-1.7 1.1-4.1 0-4.1-1.9s1.1-1.9 3.5-.2m15.3 31.9c-.5 1.3-14.8 9.1-15.5 8.4-.4-.4.5-2.4 2.5-5.4 1.9-2.8 13.8-5.6 13-3m2.2 2.6c0 2-5.9 6.2-10 7.1-7.8 1.8-7.7 1.2.5-3.3 8.6-4.7 9.5-5 9.5-3.8m-56.1 47.7c.1 1.6-.3 3.6-.8 4.4-1.7 2.7-3.9-11.4-3.1-19.9.2-2.3 3.9 12.1 3.9 15.5m-3.6 4c.4 1.6-.5-.4-1.9-4.5-1.6-5-2.3-8.3-1.8-10 .6-2 1-1.1 1.9 4.5.7 3.8 1.5 8.3 1.8 10"/><path d="M451 467c-6.2 3.4-12 9.3-12 12.4-.1 2.8-2.6 5.8-7.3 8.4-4.7 2.7-4.9 2.7-4.5-.1.2-1.7.9-2.2 3.5-2.2 3.8 0 4.3-.4 5.3-4.8.7-3.2.6-3.4-1.4-2.9-1.1.3-2.7.9-3.3 1.5-.8.5-1.3.6-1.3 0 0-1.5 2.3-3.3 4.1-3.3 2.5 0 4.2-2.6 3.5-5.6-.5-2-1.2-2.5-3.4-2.2-2.4.3-2.8.8-3.3 4.5-.3 2.4-.9 4.6-1.3 5-.5.5-.6-.1-.2-1.3.8-2.7-1.6-5.9-3.9-5.1-1.4.6-1.6 1.4-1.1 4.5 2.6 14.2 2.3 15-7.3 22.5l-6.1 4.8v-4.5c0-3.9.4-4.8 4-7.8 4.7-4.1 6-7.2 4.9-11.3-.5-1.6-1-4.7-1.1-6.8s-.6-3.6-1.2-3.4-2.8 3.6-5 7.6c-3.9 7.3-5 13.2-3.2 17.6.4 1.2-.5.6-2.3-1.5-2.5-2.8-3.1-4.3-3.1-8.1 0-5.8-1.3-9.4-3.8-10.8-2.8-1.5-3.9-.1-5.3 6.8l-1.3 6.3 3.2 2.9c1.9 1.8 4.4 2.9 6.1 2.9 5.9 0 8.4 8.3 4.8 15.5-2.8 5.7-7.6 22.9-8.4 30.3l-.6 6.3-2.4-4.2c-2-3.6-2.2-5-1.7-10.5l.7-6.3-3.9-3.5-3.9-3.6-.7 2.8c-.3 1.5-1.2 4.1-1.9 5.9-1.7 4.2-.3 7.3 5.3 11.3 6.8 4.9 8.4 9 9.3 23.9.4 5.1 1.1 10.4 1.6 11.8 1.1 3 1.1 3.3-.1 3.3-1.6 0-3.8-5.4-3.3-8.1.6-3.2-1.8-8-5.3-10.8-3.5-2.7-4.4-2-4.4 3.6v4.5l-3.6-.4c-3-.4-3.8 0-5.6 2.5-2.4 3.4-1.8 5.2 2.5 7.7 2.4 1.3 3 1.3 5.9-.3 1.8-1 4.2-2.5 5.2-3.2 1.9-1.5 1.9-1.6-.5-4.2-1.5-1.7-2.6-4.2-2.7-6.3-.2-3.4-.1-3.3 2.8 2.3 1.7 3.2 2.9 6.4 2.8 7.2-.2.8 1.8 3.4 4.3 5.7 4 3.8 5 5.6 8.4 15.7 2.2 6.3 4.1 10.9 4.3 10.3s-1.5-6.4-3.8-12.9c-7.7-22.1-8.7-27.8-4.9-30.1 1.7-1.1 2.4-1 5 1.2 5.4 4.6 17 6.1 17.7 2.4.2-1.2-1.3-2.8-4.5-4.9-4.3-2.8-5.4-3-10.7-2.6l-5.9.5 7.2-3.9c4-2.1 7.6-3.9 8.1-3.9 3.2 0 6-2.7 7.9-7.8 1.2-3 1.9-5.7 1.7-5.9-.2-.3-2.1.1-4.2.9-4.4 1.5-10.4 8.2-10.4 11.5 0 1.7-1.2 2.9-4.8 4.7-2.7 1.4-5.6 3.6-6.6 5-.9 1.4-2.1 2.6-2.5 2.6-.5 0-.9-4.8-.8-10.8.2-10.2.4-10.9 3.2-14.9 1.7-2.4 3.5-4.3 4-4.3.6 0 1.6 1.3 2.3 3 1.5 3.4 2.8 3.7 6 1.4 2.9-2 3-6.7.1-8.5-2-1.4-1.9-1.4 1.3-1.4 3.1 0 3.3-.2 3.3-3.5 0-3.2-.2-3.5-2.9-3.5-1.7 0-3.1.6-3.4 1.5-.5 1.3-.3 1.3 1.1.1 1.4-1.1 2-1.1 3.2-.1 1.9 1.6 1.9 3.9 0 4.7-2 .7-5.5-2.4-5.5-4.9 0-2.4-2.6-3.4-4.6-1.7-1.2 1-1.4 2.3-.9 5.9.5 3.7.3 4.9-1.1 6.1-.9.8-2.6 2.7-3.6 4.4l-1.9 3 .7-3c5.1-22.6 11.8-33.7 19-31.6 1.6.4 4.5 1.8 6.4 3 4.5 2.7 8 2.7 14.1-.1 4.5-2.1 6.3-3.8 4-3.8-.5 0-3.2-1.4-6-3.1-4.6-2.9-5.2-3-8.5-1.9-2 .6-4.1 2-4.6 3.1-1 1.8-7 2.8-7 1.1 0-.9 13.4-11.2 14.5-11.2.5 0 2.3-1.1 4.1-2.5s4.2-2.5 5.3-2.5c2.6 0 11.9-5.9 12.6-8 .6-1.9 1.7-11 1.3-11-.2 0-2.8 1.4-5.8 3m3.6 6.2c-.6 2.5-9.5 8.8-12.3 8.7-1.5 0-1.3-.3.7-1.7 4.4-3 9-7.4 10.2-9.6.7-1.4-.1-1-2.8 1.4-7.8 7.1-9.4 8.3-10 7.8-.7-.8 2.5-5.9 5-7.8 1.1-.8 3.4-2.3 5-3.2 2.9-1.6 3.1-1.6 4 .2.5 1 .6 2.9.2 4.2m-18.6-2.6c1.1 1.2 1.1 1.8-.2 3.1-1.9 1.8-3.8 1-3.8-1.6 0-3.3 2-4 4-1.5m-21.4 9c-1.3 3.2-2.7 7.6-3.1 9.8-.5 2.2-1.1 3.3-1.5 2.6-1.3-2.1.7-9.7 4.3-15.8 2.9-4.9 3-3.3.3 3.4m13.9-4.6c0 .8-.8 1.6-1.7 1.8-1.3.2-1.8-.3-1.8-1.8s.5-2 1.8-1.8c.9.2 1.7 1 1.7 1.8m-27.4 1.6c1.7 2 2.1 14.4.5 14.4-3.1 0-5.6-3.2-5.6-7 0-2.1.5-4.2 1-4.5.6-.3 1-.1 1 .5 0 1.7 3 8.4 3.5 7.8.2-.2-.4-2.8-1.5-5.6-1.1-2.9-2-5.7-2-6.2 0-1.5 1.6-1.2 3.1.6m17.5 7.9c-.3 1.3-1.9 3.3-3.6 4.5l-2.9 2.1 1.3-4.3c.8-2.4 1.9-5.7 2.6-7.3l1.2-3 1 2.8c.6 1.5.7 3.9.4 5.2m10.4-5.3c0 .7-.5 2-1 2.8-.8 1.2-1 .9-1-1.3 0-1.5.5-2.7 1-2.7.6 0 1 .6 1 1.2m5.4 3.5c-1.5 2.4-3.3 2.7-4.1.7-.8-2.1 2.6-4.9 4.1-3.4q1.05 1.05 0 2.7m3.1 14.5c2.7 1.2 3.3 2.7 1.3 2.9-3.1.2-11.3-.3-11.8-.8-.9-.8 3.3-3.3 5.6-3.3 1.3 0 3.5.5 4.9 1.2m2.8 5.5c-.9.7-3.8 1.3-6.3 1.3s-5.4-.6-6.3-1.3c-1.4-1-.4-1.2 6.3-1.2s7.7.2 6.3 1.2m-28.9 16.6c-.3.9-1.2 1.7-2 1.7-1.7 0-1.9-3.7-.1-4.3 1.8-.7 2.9.7 2.1 2.6m-19.6 4.1c2.3 3.4 2.4 8 .3 11.4-1.8 3-6.1-2.1-6.1-7.3 0-4.4 1.8-3.6 3.5 1.6.9 2.7 1.9 4.8 2.2 4.5.4-.4-1.3-6.5-3.5-12.4-.9-2.5 1.4-1.1 3.6 2.2m19.8.4c-2.2 2.3-2.9 1-.9-1.8 1.1-1.6 1.8-1.9 2.1-1.1.2.7-.3 2-1.2 2.9m4.6 3.7c1.3 2.9-.3 5.5-3.3 5.5-1.4 0-1.9-.7-1.9-2.8 0-2.7 1.5-5.2 3.2-5.2.5 0 1.3 1.1 2 2.5m10.8 10c1.7-1.1-1.3 6-3.3 7.8-3.1 2.7-3.2 1.2-.2-2.8 1.5-1.9 2.6-3.8 2.3-4-.3-.3-1.9 1.5-3.7 4-3 4.2-6.1 5.9-6.1 3.4 0-1.9 9.2-10.6 9.7-9.1.3.6.9 1 1.3.7m-8.7 20.2c4.8 2.5.9 2.9-4.5.4-4-1.8-4.1-1.9-1.5-2 1.5-.1 4.2.7 6 1.6m.5 3.2c2.5.3 4.7 1.2 5 2 .7 2.1-7.6.7-12.2-2-4.4-2.6-4.8-4.6-.4-2.3 1.7.9 5.1 1.9 7.6 2.3m-23.9 1c2.1 2.9 2.8 6.1 1.4 6.1-1.1-.1-5.4-9-4.3-9 .5 0 1.8 1.3 2.9 2.9m-5 5.5c3.1 1.7 1.7 2.4-4.1 1.8q-4.8-.45-4.8-1.8c0-1.8 5.6-1.8 8.9 0m-1.9 3.5 2.5.7-2.2 1.2c-3.2 1.8-6.8 1.5-8.8-.8-1.8-2-1.7-2 2.1-1.9 2.1.1 5 .4 6.4.8"/><path d="M98.8 476.7c-4.3 4.6-5.1 7-4.3 13.2.3 3.1.9 6.5 1.2 7.6.3 1.2-1 .3-3.5-2.5-4.4-4.9-4.7-8.1-1-11 2.3-1.9 4.2-9 2.4-9-.6 0-2 .7-3 1.5-2.4 1.8-5.3 1.9-5.9.2-.3-.9-1.3-.8-4 .5-2.1 1-3.7 2.2-3.7 2.8 0 .5-.7 1-1.5 1-3.1 0-6.5 2.3-6.5 4.5 0 4 3 5.6 10.3 5.3l6.7-.3 5.2 5.2c2.9 2.9 4.9 5.5 4.5 5.9s-3.3-.5-6.6-2c-7.8-3.5-11.7-4.2-14.7-2.6-2.5 1.4-3.2 3-1.3 3 .6 0 2.5 1.2 4.2 2.6 3.3 2.7 5.4 2.8 11.4.3 1.8-.7 3.5-1.1 3.8-.7 1.4 1.3-1.7 5.8-4.8 7.2-2.7 1.1-3.8 2.4-5.1 6.2-.9 2.6-1.4 4.9-1.2 5.2.3.2 2.1-.2 4.2-1 2.8-1 4.2-2.3 5.5-5.3 1-2.2 1.9-4.9 1.9-6s.7-3.1 1.6-4.3l1.6-2.3 3.4 3.8c5.4 5.9 14.4 25.3 11.7 25.3-.4 0-1.9-1-3.3-2.3-1.9-1.8-3.4-2.3-6.1-1.9-2.8.3-4.2-.2-6.7-2.3-2.7-2.2-3.9-2.6-6.7-2.1-2 .4-3.9 1.6-4.6 2.7-.6 1.1-1.6 1.8-2.4 1.5-1.8-.7-1.2 2.4.8 3.9 1.2.9 1.3 1.5.5 2.3-1.8 1.8 1.8 2.6 6.1 1.4 2-.7 4.8-2.3 6.1-3.7 2.4-2.6 6.5-3.2 10.5-1.5 1.8.7 1.8.9.3 1.5-1.4.6-3.9 1.2-5.9 1.4-.3.1-2 1.5-3.8 3.1-3.1 3.1-3.8 6.3-2.2 10.5.7 1.8.9 1.7 2.5-1.3.9-1.7 2-3.2 2.5-3.2.9 0 3.7-6 3.4-7.2-.2-.4 1.4-1.2 3.4-1.7 5.8-1.6 6.5-.3 5.2 9.4-2.2 17-2.2 25.5 0 31.9 2.5 7.2 1.9 8.7-.9 2.3-2.5-5.6-14.4-16-16.3-14.1-.8.8 5.2 10.2 9 14.1 1.8 1.8 4.1 3.3 5 3.3 2.1.1 4.9 2.3 8.1 6.4 2.9 3.8 2.8 2.6-.7-4.8-3.9-8.3-4.4-12.2-2.7-20.5 1.6-7.6 3.7-11.3 7.5-13.1 3.2-1.5 6.1 1.1 6.1 5.6 0 3.1.3 3.4 4.8 4.7 2.6.8 4.8 1.1 5 .7.8-2-2.1-6.2-5.1-7.5-1.8-.7-4-2.2-5-3.3-1.6-1.7-1.6-2-.3-2.5.9-.4 3 0 4.8.7s4 1.2 4.8.9c2.6-.7 10-4.7 10-5.4 0-2.3-12.9-2.5-15.6-.3-1.9 1.5-1.9 1.6.1.9 3.9-1.4 10.2-1.7 10.9-.7 1 1.7-3.9 4.4-7.1 4l-2.8-.4 3.5-1.1c3.4-1.1 3.3-1.1-2-.9-3 .2-7 1-8.7 2-5.3 2.7-3.8.2 3.2-5.4 6.8-5.4 6.3-5.3 18.3-4.8 3.8.2 6.7-2.3 7.7-6.5.7-2.5.5-2.7-2.3-2.7-1.7 0-3.4-.5-3.7-1-.3-.6-2.1-1-3.9-1-2.8 0-4 .8-7.2 4.7-4.9 6.2-18.4 19.1-18.4 17.7 0-.6 1.8-3.2 4.1-5.8 4-4.5 7.6-13 6-14-1.3-.9-2.1.5-2.1 3.8 0 3.6-4.9 11.1-6.3 9.7-1.2-1.2-.2-5.5 1.8-7.5.9-.8 1.1-1.7.6-2.1-1.7-1-4.1 3.9-4.1 8.5-.1 2.5-1 7-2.1 10s-2.7 7.7-3.5 10.5l-1.4 5 .4-5c.2-2.8.9-8.6 1.6-13 .7-4.7 1-11.5.6-16.6-.8-10.4.2-12.1 5.5-9.4 3 1.6 3.3 1.6 5.8-.3 1.4-1 2.7-2.7 2.9-3.6.5-2.4-6.2-2.1-10.4.5-2.8 1.7-3.4 1.8-3.4.5 0-.8 1.4-2.5 3.1-3.7 3.8-2.7 5.6-6.7 5.1-11.4-.3-2.9-.7-3.3-1.8-2.4-.8.6-1.2 1.5-.9 1.9.3.5 0 1.2-.6 1.6-.8.5-1 .2-.5-.7.4-.8-.9.3-2.9 2.4-3.4 3.6-3.6 4.2-3.1 8.1.4 2.3.3 5.2-.1 6.4-.7 1.9-1.3 1.3-4.4-4.8-3.9-7.7-4.3-14-.8-14 1 0 2.1.4 2.4 1 1.7 2.7 9.6-.5 9.4-3.8 0-1.3-.3-1.1-.9.5-.9 2.3-5.1 4-6.9 2.8-2.3-1.3-.9-3.1 3.5-4.5 6.8-2.2 7.5-4 3.7-8.8-2.5-3.1-2.9-4.2-2-5.2.7-.7 0-.5-1.4.4-2.8 1.7-5.4 1.4-6.3-1s-3.4-.4-5.1 4c-1.3 3.4-1.5 5.4-.7 9.7 1.7 9.5.7 12.7-2.6 8.2-2.3-3.2-3.9-13.8-2.2-14.8 1.8-1.1 4.1-6.5 4.6-10.6.3-2.1.3-3.9.1-3.9s-1.5 1.2-2.9 2.7m-6.3 3.2c-1.2 3.8-6.5 5.2-6.5 1.7 0-1.3 6-4.9 6.8-4.1.2.2.1 1.3-.3 2.4m-7.7 2.3c.4 4.6-1.3 5-4.8 1.3-1.9-2.1-2.1-2.7-1-4 .7-.9 2.3-1.5 3.4-1.3 1.6.2 2.2 1.1 2.4 4m13.8 2.4c-2 3-3.6 3.1-3.5.1 0-2.1.1-2.1 1-.2.8 1.7.9 1.6.6-.7-.2-1.5-.1-2.5.4-2.3.4.3 1.1-.5 1.5-1.7l.8-2.3.4 2.3c.2 1.3-.4 3.4-1.2 4.8m-17.3 2.2c1.5 1.8-.7 3.2-5.2 3.2-5.3 0-8.1-4.8-3.8-6.7 2.3-1.1 6.5.6 9 3.5m27.7-2.3c2.8 2.9 2.2 4.6-2.2 7.3-4.3 2.6-5.6.5-3.4-5.3 1-2.5 2.1-4.5 2.5-4.5s1.8 1.1 3.1 2.5m9.1 5.7c1.3 2.4-5.5 6-9 4.7l-2.3-.9 3.2-3c2.5-2.3 3-3.4 2.5-5.2-.7-2.3-.7-2.3 2 .2 1.5 1.4 3.1 3.3 3.6 4.2M88 486.9c0 1.5-2.8 3.3-4 2.6-.8-.5-.8-1.1.1-2.1 1.3-1.5 3.9-1.9 3.9-.5m19.8 10.3c.2 1.3-.3 1.8-1.7 1.8-1.2 0-2.1-.2-2.1-.4s-.3-1.2-.6-2.1c-.5-1.3-.2-1.6 1.7-1.3 1.3.1 2.5 1.1 2.7 2m-23.3 1.9 5 1.9-5-.6c-7.1-.8-9.6-1.5-8.9-2.5.8-1.3 3.3-1 8.9 1.2m1.3 3.4c.3.2-.7.7-2.1 1-1.8.5-3.2.1-4.7-1.3l-2.2-2 4.3.9c2.4.6 4.5 1.2 4.7 1.4m29.6 4.4c-.9 1.8-1.4 3.4-1.2 3.7.3.2 1.3-1.4 2.3-3.6 2-4.5 3.5-5.2 3.5-1.7 0 2.4-3.1 5.9-6.2 7-2.6.9-2.3-2.7.4-6.3 2.7-3.7 3.3-3.3 1.2.9m-24.5 5.3c-1.6 3.2-4 5.8-6.4 7.1-1.2.6-.5-.7 1.8-3.1 2-2.3 3.7-4.5 3.7-5 0-.4-1.2.8-2.6 2.5-2.8 3.6-4.7 4.4-3.7 1.5.8-2.3 4.4-5.2 6.6-5.2 1.5 0 1.6.3.6 2.2m33.5 3.7c.9 1.3-2.1 3.3-4.1 2.8-1.4-.4-1.4-.5.4-.6 1.2 0 2.4-.5 2.7-.9.3-.5-.9-.6-2.6-.4-2.1.3-2.9.1-2.4-.7.8-1.3 5.2-1.5 6-.2m-31.6 9.3c.4 2.1-1.9 2.4-5 .7-1.7-.9-1.8-1.3-.7-2 2.1-1.4 5.3-.6 5.7 1.3m52 .4c-.2.9-2.1 2.6-4.3 3.8-2.2 1.1-4.1 2.4-4.3 2.8-.2.5-1.1.8-2 .8-1.5-.1-1.5-.2.1-1.4.9-.7 1.7-1.8 1.7-2.3 0-1.4 3.1-4 5.5-4.6 3.4-.8 3.7-.7 3.3.9m-57.4 1c2.1.8.2 3.4-2.4 3.4s-3.2-1.2-1.2-2.6c2.1-1.6 1.7-1.5 3.6-.8m8.6.4c0 .5-.4 1-1 1-.5 0-1-.5-1-1 0-.6.5-1 1-1 .6 0 1 .4 1 1m55 .3c0 3.2-3.1 5.7-7.1 5.7s-5.3-1.6-2.1-2.7c.9-.4 2.8-1.5 4.1-2.5 2.8-2.1 5.1-2.4 5.1-.5m-57 2.2c0 1.1-6.6 4.5-8.5 4.5-1.7-.1-1.6-.4 1-2.5 2.6-2.2 7.5-3.4 7.5-2m6.6 7.3c-.8 1.5-2.4 3.6-3.6 4.7l-2.3 2 .7-2.8c.5-2.2.4-2.7-.6-2.1-.7.4-.5-.2.6-1.4 1-1.2 2.2-1.9 2.7-1.7.4.3 1 .1 1.4-.5 1.4-2.3 2.4-.8 1.1 1.8m30.6 18.2c.6 0 .5-.7-.2-1.5-2-2.4-.6-2.8 1.5-.5 1.4 1.5 1.5 2 .4 2s-1.1.2.1 1.1c1.1.8.9.9-1 .3-3.4-.9-5-2.3-4.9-4.3 0-1.2.4-1.1 1.6.6.8 1.3 2 2.3 2.5 2.3m-25.9 16c4.1 4.5 4.5 5.7 2 5.7-2.3 0-4-1.3-7.4-6.1-5.3-7.2-1.1-6.9 5.4.4"/><path d="M98.8 567.5c.6 1.1 2.8 3.6 4.8 5.5 3.9 3.5 2.4 1.4-3-4.4-1.6-1.8-2.4-2.2-1.8-1.1"/><path d="M520 477.3c0 2.1 6.8 10.1 10 11.7 4.1 2.1 10.8 10.2 9 10.8-.6.2-2.2-.6-3.5-1.8-2.9-2.7-5.6-2.3-6.6 1.1-.7 2.7-.6 2.7 4.6 2.3 3.1-.1 5.9.2 6.7.9 1.5 1.2 7.1 13.7 6.5 14.3-.2.2-1.6-.9-3-2.6-2-2.2-3.6-3-6.1-3-1.8 0-4.8-.3-6.5-.6-2-.4-3.1-.3-3.1.5 0 .6.6 1.1 1.3 1.1 1.9 0 5 3.7 4.2 5-.3.6-.3 1 .2.9.4-.1 2.1.3 3.8 1 1.6.7 4.5 1.1 6.3.9l3.5-.3 2.8 8.5c1.6 4.7 2.8 10.1 2.8 12-.1 3.1-.2 3.2-.8 1-1-3.5-3.9-3.8-4.3-.5l-.3 2.6-1.7-3.3c-.9-1.8-1.9-4.2-2.3-5.3l-.7-2-.8 2c-.4 1.1-.4 2.4 0 3 .4.5 1 2.7 1.4 4.8s1 4.5 1.3 5.3.1 1.4-.5 1.4c-1.2 0-3-4.4-3.5-8.5-.3-2.6-.4-2.5-.6.8-.1 3.8 1.1 7 3.5 9.5.7.7 1.8 2.9 2.3 4.9 1 3.5.7 4.2-3.4 10.9-2.5 3.9-4.5 7.4-4.5 7.7s.7.8 1.6 1.1 1.2.2.9-.4c-.4-.6.9-3.6 2.8-6.8 7.1-11.7 9.5-17.6 10.7-25.7.7-4.4 2.1-9.5 3.1-11.3 1.1-1.8 1.9-4.8 1.9-6.6 0-4.8-1.2-12.6-1.9-12.6-.3 0-1.7 2.5-3 5.5-2.3 5.4-2.3 5.5-.5 10.5 1.4 3.9 1.5 5.3.6 6.2s-1.2.9-1.2-.3c0-.7-1.6-6.3-3.5-12.4l-3.5-10.9 1.6-6.4c1.5-5.9 1.5-6.7-.1-10.8-1.8-4.8-3-5.5-4-2.3-.9 2.7.4 13.9 1.7 13.9.5 0 .6.5.2 1.1-.4.7-1.7-.9-3-3.7-2-4.1-2.2-5.3-1.2-7.2 1.6-3.1-.2-5-2.6-2.7-1.5 1.5-1.6 1.5-1.7-.2-.1-1.8 0-2.4.8-5.5.3-.9-.4-2.4-1.6-3.4-1.1-1-1.8-2.1-1.5-2.5.2-.4-.4-.5-1.4-.2-1.6.4-5.8-.8-11.4-3.2-1-.4-1.8-.5-1.8-.2m12.6 11.4c-.9.9-5.4-2.2-6.9-4.7-2.8-4.6-1.9-4.7 2.8 0 2.4 2.4 4.3 4.5 4.1 4.7m0-6.1c2.5 1.2 3.4 2.3 3.4 4 0 1.3-.2 2.4-.4 2.4-.5 0-7.6-7.1-7.6-7.6 0-.7 1.2-.4 4.6 1.2m14.8 17.3c-.9 4.7-1.4 5.2-1.4 1.3 0-1.8-.4-3.2-1-3.2-.5 0-1-1.5-1-3.3l.1-3.2 2 2.4c1.5 1.8 1.8 3.2 1.3 6M541 494c0 .5-.4 1-1 1-.5 0-1-.5-1-1 0-.6.5-1 1-1 .6 0 1 .4 1 1m-6 6.1c0 1.2-2.1 1.1-4-.1-1.3-.9-1.3-1.1 0-1.9 1.5-1 4 .3 4 2m7.8 14.1c.7.6 1.1 1.3.9 1.5-.5.5-7.7-2.6-7.7-3.3 0-.9 5.2.6 6.8 1.8m-7.2-.3c.5.5 2.6 1.4 4.7 2.1 2 .6 3.7 1.5 3.7 2 0 1.4-7.2-.8-9.4-2.9-1.9-2-1.1-3.1 1-1.2m20.8 6.8c-.9 5.9-1.6 7.2-2.4 4.3-.7-2.7.6-8 2-8 .5 0 .6 1.7.4 3.7m.5 7.7c-.9.8-1 .5-.5-1.4.3-1.4.7-3.6.8-5s.3-.8.5 1.4c.3 2.2-.1 4.3-.8 5m-9.8 18.6.2 3.5.6-3.8c.6-3.6.7-3.7 2.6-2.4 1.9 1.5 1.9 1.6.2 7.1-1.8 5.6-3.7 6.7-3.7 2.1 0-1.3-.4-3.4-.9-4.7-.4-1.3-1.1-4.1-1.5-6.3-.6-3.9-.6-3.9.8-1.5.9 1.4 1.6 4.1 1.7 6m3.9-5.9c0 .5-.4.9-1 .9-.5 0-1-.7-1-1.6 0-.8.5-1.2 1-.9.6.3 1 1 1 1.6"/><path d="M90.6 488.3c.3 1 .9 1.5 1.2 1.2s0-1.1-.7-1.8c-1-.9-1.1-.8-.5.6"/><path d="M285 497.4c0 .2.7.9 1.5 1.6 1.3 1.1 1.4 1 .9-.4s-2.4-2.3-2.4-1.2"/><path d="M96.8 513.7c.3 2.1 1.4 5 2.6 6.4 1.1 1.5 2.6 3.5 3.3 4.5 1 1.6 1.2 1.3.9-2.3-.2-3.8-4.7-12.3-6.5-12.3-.4 0-.5 1.7-.3 3.7m5.5 5.8c.7 2 .7 2-.8.1-.8-1.1-1.5-1.6-1.5-1 0 1.4-2-1.9-2-3.4 0-1.8 3.5 1.7 4.3 4.3"/><path d="M549.5 516c-.3 1.1-.2 2.8.4 3.7.9 1.6 1.1 1.5 2-1 1.1-2.9.8-4.7-.9-4.7-.5 0-1.1.9-1.5 2m1.9 1.5c-.4.8-.8 1.5-1 1.5s-.4-.7-.4-1.5.4-1.5 1-1.5c.5 0 .7.7.4 1.5"/><path d="M549.5 564.1c-.4.5-.4 1.3-.1 1.6.3.4.6 0 .6-.8 0-1.1.2-1.1 1 .1.6.9 1 1 1 .3 0-1.7-1.7-2.5-2.5-1.2"/></g></svg>