<?xml version="1.0" standalone="no"?>
<!DOCTYPE svg PUBLIC "-//W3C//DTD SVG 20010904//EN"
 "http://www.w3.org/TR/2001/REC-SVG-20010904/DTD/svg10.dtd">
<svg version="1.0" xmlns="http://www.w3.org/2000/svg"
 width="600.000000pt" height="603.000000pt" viewBox="0 0 600.000000 603.000000"
 preserveAspectRatio="xMidYMid meet">
<g transform="translate(0.000000,603.000000) scale(0.100000,-0.100000)"
fill="#000000" stroke="none">
<path d="M4976 5985 c-13 -33 -16 -58 -12 -93 3 -26 10 -110 15 -187 5 -77 13
-151 17 -165 5 -20 1 -17 -24 15 -18 23 -32 52 -32 68 0 42 -27 92 -65 121
-18 14 -35 23 -38 20 -9 -9 16 -88 37 -119 11 -16 36 -45 54 -63 18 -19 31
-36 28 -39 -3 -3 -46 -5 -96 -4 -74 2 -90 -1 -90 -13 0 -8 5 -18 10 -21 6 -4
19 -24 30 -45 15 -30 24 -37 40 -33 21 6 80 67 80 83 0 19 47 10 68 -13 12
-12 38 -54 58 -92 40 -76 54 -98 61 -91 3 2 -12 33 -32 68 -53 89 -75 151 -75
207 0 69 22 92 87 96 60 3 123 22 123 37 0 6 -7 7 -16 4 -8 -3 -13 -2 -10 3 6
9 -36 31 -59 31 -7 0 -32 -16 -55 -35 -24 -20 -45 -33 -48 -30 -8 7 49 65 64
65 7 0 22 12 33 26 16 21 21 41 21 92 l0 66 -30 -29 c-34 -33 -70 -101 -70
-134 0 -12 -8 -36 -17 -54 -10 -18 -23 -48 -30 -67 -11 -32 -12 -27 -9 55 2
70 8 98 25 125 11 19 21 51 21 70 0 35 -28 120 -39 120 -3 0 -14 -20 -25 -45z
m53 -75 c0 -19 -6 -43 -13 -53 -12 -16 -14 -8 -14 60 -1 72 1 76 13 53 8 -14
14 -41 14 -60z m-40 -2 c-1 -68 -2 -71 -11 -35 -9 34 -4 107 7 107 3 0 5 -33
4 -72z m145 -50 c-11 -67 -14 -76 -30 -82 -9 -4 -18 -5 -20 -3 -5 5 41 117 48
117 4 0 5 -15 2 -32z m-44 -27 c-23 -46 -35 -55 -20 -15 16 40 31 66 37 61 2
-3 -5 -23 -17 -46z m70 -91 c12 -8 12 -10 -5 -10 -11 0 -31 -3 -45 -6 -24 -5
-24 -5 -6 10 23 18 35 20 56 6z m-276 -56 c10 -25 20 -43 23 -40 2 2 -3 18
-12 36 -9 18 -14 34 -11 37 4 4 46 -69 46 -81 0 -2 -7 -6 -15 -10 -11 -4 -22
9 -40 44 -27 53 -29 60 -17 60 4 0 15 -21 26 -46z m286 26 c-8 -5 -31 -9 -50
-9 -32 1 -33 2 -10 9 14 4 36 8 50 9 20 1 22 -1 10 -9z m-313 -186 c-3 -3 -12
-4 -19 -1 -8 3 -5 6 6 6 11 1 17 -2 13 -5z m46 -27 c-24 -29 -56 -56 -65 -57
-4 0 -10 11 -14 25 -3 14 -10 25 -14 25 -4 0 -10 6 -13 13 -3 9 13 12 60 13
l64 2 -18 -21z"/>
<path d="M436 5984 c-4 -15 -20 -43 -36 -63 -40 -50 -47 -91 -23 -133 11 -18
20 -51 21 -73 0 -31 -1 -34 -7 -16 -8 30 -24 37 -40 17 -14 -17 -1 -50 23 -59
12 -5 11 -17 -6 -84 -19 -76 -47 -141 -33 -78 13 57 6 167 -13 199 -31 53 -46
45 -59 -31 -11 -64 -11 -71 13 -128 14 -33 30 -68 36 -79 11 -21 -8 -80 -23
-70 -5 3 -6 -1 -3 -9 5 -13 -30 -107 -40 -107 -3 0 -2 15 1 33 6 36 -15 64
-42 53 -22 -8 -18 -38 9 -75 l25 -33 -40 -78 c-21 -43 -39 -83 -39 -89 0 -6
-4 -11 -8 -11 -14 0 -8 43 17 117 l25 71 -37 47 c-20 26 -38 52 -40 58 -9 26
-16 -3 -22 -103 -7 -98 -6 -107 14 -129 12 -13 21 -29 22 -35 0 -18 9 -127 14
-187 2 -31 16 -101 31 -155 14 -54 31 -118 37 -141 6 -24 14 -43 19 -43 5 0 7
8 5 18 -3 9 -15 52 -28 94 -21 74 -21 80 -5 121 9 25 38 64 67 92 51 49 89
110 89 143 0 25 -20 82 -28 82 -11 0 -43 -61 -37 -70 3 -5 -13 -46 -35 -91
-35 -72 -40 -79 -40 -50 0 37 19 78 49 105 12 11 21 24 21 29 0 15 -50 -34
-66 -65 -8 -15 -14 -47 -14 -71 0 -47 -17 -107 -30 -107 -9 0 -20 60 -20 113
0 30 5 39 24 46 34 14 50 71 24 87 -14 9 -40 -26 -35 -47 5 -20 -9 -47 -19
-37 -16 17 13 110 69 222 l62 121 51 6 c100 12 124 26 150 85 13 30 28 54 34
54 5 0 10 5 10 10 0 12 -25 13 -48 1 -9 -5 -36 -14 -58 -20 -23 -6 -48 -21
-57 -34 -26 -39 -77 -92 -77 -81 0 6 15 44 34 85 19 41 39 93 45 117 13 48 48
77 81 67 42 -13 69 47 34 76 -20 16 -48 1 -52 -30 -2 -11 -12 -26 -23 -31 -23
-13 -23 -17 -4 64 9 37 18 101 20 144 3 42 9 93 14 112 7 33 8 32 12 -25 2
-36 -1 -69 -8 -83 -15 -29 -16 -32 -4 -32 15 0 31 62 26 100 -3 19 -6 54 -6
78 -2 47 -13 55 -23 16z m-15 -91 c-6 -21 -11 -55 -11 -75 0 -44 -12 -49 -29
-12 -13 29 -9 50 21 101 25 42 33 37 19 -14z m-97 -267 c4 -28 2 -76 -3 -106
-5 -30 -9 -46 -10 -35 0 11 -10 37 -21 58 -20 38 -26 92 -12 114 5 8 13 -12
21 -50 8 -34 15 -57 18 -51 2 7 -3 42 -12 79 -18 80 -18 85 0 61 7 -10 16 -41
19 -70z m56 69 c0 -8 -4 -15 -10 -15 -5 0 -10 7 -10 15 0 8 5 15 10 15 6 0 10
-7 10 -15z m100 -60 c0 -15 -6 -25 -14 -25 -19 0 -28 14 -20 34 10 25 34 19
34 -9z m-22 -207 c-2 -6 -29 -25 -59 -41 l-54 -30 30 32 c38 41 92 67 83 39z
m15 -32 c-16 -35 -41 -53 -81 -61 -13 -2 -32 -7 -43 -10 -43 -14 -14 13 46 43
36 18 68 39 71 47 4 8 10 15 15 15 5 0 1 -15 -8 -34z m-236 -71 c3 -9 3 -19
-1 -22 -7 -7 -36 16 -36 28 0 15 30 10 37 -6z m-84 -38 c25 -33 25 -34 10 -81
-9 -26 -18 -44 -21 -42 -3 3 -9 34 -13 68 -8 61 -8 61 -4 -17 3 -73 2 -78 -12
-60 -15 20 -13 107 3 148 8 22 8 22 37 -16z m185 -278 c-10 -28 -74 -109 -87
-109 -4 0 13 41 38 91 39 77 47 88 52 68 3 -13 2 -36 -3 -50z m-128 2 c0 -22
-16 -36 -24 -22 -8 12 3 41 15 41 5 0 9 -9 9 -19z"/>
<path d="M1408 5934 l-3 -46 -27 21 c-35 28 -38 27 -38 -15 0 -41 13 -68 45
-98 14 -12 25 -37 28 -61 5 -37 2 -44 -44 -95 l-50 -55 6 35 c3 19 11 45 17
58 17 32 -3 107 -52 195 l-40 72 0 -86 c0 -78 3 -93 31 -145 42 -78 39 -108
-19 -205 -26 -43 -49 -78 -52 -79 -3 0 -4 31 -2 70 3 40 -1 83 -8 102 -17 46
-24 106 -20 189 1 27 -48 129 -62 129 -4 0 -8 -10 -8 -22 0 -13 -7 -32 -15
-42 -8 -11 -15 -32 -15 -47 0 -26 0 -26 -45 -16 -25 6 -48 8 -51 4 -3 -3 4
-20 16 -36 22 -31 20 -51 -5 -51 -7 0 -24 -14 -36 -31 -22 -31 -22 -32 -4 -45
24 -18 96 -18 120 0 13 9 27 11 42 5 13 -5 29 -6 37 -3 22 8 35 -26 41 -108 5
-62 4 -70 -7 -53 -29 44 -77 85 -100 85 -26 -1 -132 -50 -108 -50 8 0 33 -9
55 -20 45 -22 77 -25 105 -10 16 9 22 5 35 -19 21 -42 20 -53 -20 -170 -25
-77 -38 -139 -50 -249 -9 -81 -19 -158 -22 -172 -4 -18 -2 -22 5 -15 6 6 16
51 23 102 16 124 31 149 101 157 40 5 61 3 86 -10 18 -9 50 -18 71 -21 32 -4
40 -2 55 22 10 14 18 39 19 53 3 39 -35 40 -114 2 -42 -20 -79 -30 -109 -30
l-45 0 69 65 c63 59 74 65 112 65 54 0 74 25 74 92 0 55 -8 58 -58 28 -22 -14
-41 -39 -57 -74 -13 -31 -37 -63 -55 -76 l-30 -22 12 29 c7 15 23 38 35 50 20
19 31 71 24 115 0 4 4 19 9 34 9 22 8 25 -6 20 -8 -3 -17 -6 -20 -6 -12 0 -34
-65 -34 -103 0 -73 -28 -146 -78 -204 -25 -29 -47 -51 -49 -49 -8 7 36 174 62
237 42 103 114 218 141 225 46 12 73 -3 80 -44 14 -76 60 -139 127 -173 21
-11 40 -26 44 -34 3 -8 9 -12 15 -9 5 4 5 10 -1 18 -6 7 -17 38 -25 71 -9 32
-23 70 -33 84 -20 31 -74 81 -88 81 -5 0 8 -17 31 -37 37 -35 81 -100 72 -108
-2 -2 -29 28 -60 68 -64 81 -64 101 2 91 35 -6 42 -2 85 37 45 41 46 43 24 51
-44 17 -150 -20 -167 -58 -9 -19 -19 -24 -46 -24 -19 0 -37 4 -40 9 -3 5 14
31 39 59 37 41 52 50 88 55 26 4 62 0 91 -8 51 -16 62 -13 118 28 26 19 27 22
11 39 -10 11 -30 18 -54 18 l-37 0 5 75 c7 87 -6 101 -56 66 -28 -20 -30 -21
-43 -4 -7 10 -26 24 -41 31 -15 6 -30 19 -33 27 -11 29 -23 15 -26 -31z m52
-9 c45 -23 51 -43 34 -104 -17 -56 -27 -59 -57 -19 -18 24 -22 48 -18 111 1
31 3 32 41 12z m140 -53 c0 -59 -10 -80 -46 -103 -46 -28 -64 -20 -55 23 11
48 29 80 59 105 32 27 42 22 42 -25z m-203 -12 c3 -14 10 -31 16 -38 13 -16 4
-24 -17 -16 -20 8 -46 55 -46 84 0 18 2 19 20 8 12 -7 23 -24 27 -38z m-248
-16 c25 -42 28 -94 6 -94 -8 0 -15 -4 -15 -10 0 -18 -29 -11 -40 9 -15 29 -12
65 8 100 9 17 18 31 19 31 0 0 10 -16 22 -36z m181 -102 c14 -78 -1 -70 -26
14 -36 120 -37 134 -9 81 14 -26 30 -69 35 -95z m-40 24 c10 -36 16 -66 14
-66 -11 0 -44 87 -44 114 0 41 8 29 30 -48z m-252 11 c31 -13 79 -64 69 -73
-3 -3 -13 -1 -24 5 -10 5 -26 12 -35 15 -15 4 -56 66 -44 66 2 0 17 -6 34 -13z
m446 -28 c35 -28 33 -39 -9 -39 -33 0 -55 20 -55 49 0 18 36 12 64 -10z m174
5 c30 -9 28 -26 -7 -47 -34 -20 -43 -20 -93 -6 -45 12 -48 23 -10 43 29 16 72
20 110 10z m-497 -80 c-11 -25 -27 -30 -51 -14 -12 8 -10 14 15 40 25 26 30
28 38 14 6 -10 5 -25 -2 -40z m-82 27 c10 -7 11 -13 2 -29 -16 -30 -46 -44
-82 -38 -38 6 -41 9 -33 30 13 34 82 57 113 37z m501 -68 c0 -4 -10 -17 -22
-30 -17 -18 -32 -23 -72 -23 -61 0 -52 14 26 40 61 21 68 23 68 13z m-455
-103 c4 -6 -14 -10 -47 -10 -38 0 -49 3 -38 10 20 13 77 13 85 0z m373 -90
c34 -46 62 -88 62 -93 0 -5 -21 6 -47 25 -49 35 -78 74 -93 128 -14 50 8 33
78 -60z m-358 60 c0 -11 -4 -12 -35 -13 -68 -1 -77 17 -10 21 25 1 45 -2 45
-8z m147 -122 c1 -29 -3 -60 -9 -68 -6 -10 -7 -2 -3 25 4 29 3 36 -4 25 -9
-13 -11 -13 -11 2 0 14 20 68 25 68 1 0 2 -24 2 -52z m100 -30 c-35 -50 -56
-72 -62 -66 -9 9 31 75 53 87 24 13 27 5 9 -21z m28 -20 c-4 -18 -12 -39 -17
-45 -10 -13 -48 -18 -48 -7 0 6 63 84 68 84 2 0 0 -15 -3 -32z m-2 -155 c-7
-2 -19 -2 -25 0 -7 3 -2 5 12 5 14 0 19 -2 13 -5z m17 -19 c0 -11 -23 -49 -34
-56 -11 -8 -29 -4 -76 15 -25 9 -25 10 15 28 38 18 95 26 95 13z"/>
<path d="M2401 5893 c-6 -12 -21 -18 -43 -18 -29 0 -33 -4 -36 -27 -3 -27 4
-33 36 -29 16 2 15 -6 -7 -72 -15 -44 -35 -72 -90 -127 l-70 -70 13 43 c7 23
25 62 40 86 38 60 44 101 17 125 -12 11 -22 17 -24 15 -1 -2 -15 -29 -30 -60
-29 -61 -32 -80 -17 -109 12 -23 -3 -97 -30 -150 -37 -73 -74 -167 -85 -220
l-12 -55 -8 42 c-4 24 -11 40 -16 37 -5 -3 -9 6 -9 20 0 16 -6 26 -14 26 -8 0
-17 7 -20 16 -10 26 -6 30 9 10 8 -11 15 -16 15 -10 0 5 -18 31 -40 58 -22 26
-40 52 -40 58 0 5 -4 7 -9 4 -5 -4 -5 -24 1 -48 5 -24 8 -57 6 -75 -2 -17 -1
-30 3 -27 4 2 12 -9 19 -25 12 -30 35 -46 50 -36 5 3 17 -7 27 -22 14 -21 19
-51 20 -130 2 -57 0 -103 -5 -103 -4 0 -15 14 -24 30 -17 29 -17 31 2 50 25
25 25 46 1 59 -14 8 -22 7 -32 -6 -12 -14 -11 -15 8 -9 24 8 36 -4 23 -24 -7
-11 -11 -11 -23 -1 -13 10 -15 9 -10 -11 4 -22 4 -22 -11 -4 -8 10 -13 23 -10
28 3 5 -6 6 -20 2 -23 -5 -26 -3 -26 20 0 30 24 35 39 9 10 -17 10 -17 11 -1
0 19 -28 38 -47 31 -7 -3 -13 -20 -13 -39 0 -27 4 -34 19 -34 11 0 23 -4 26
-10 4 -6 -6 -10 -22 -10 -48 0 -73 -48 -37 -68 29 -16 54 -3 54 29 0 16 4 29
9 29 16 0 71 -69 77 -98 3 -15 10 -43 15 -62 5 -19 9 -39 9 -43 0 -12 -61 24
-84 51 -21 22 -140 74 -150 65 -2 -3 13 -28 35 -56 21 -29 39 -56 39 -61 0 -5
25 -6 56 -2 79 9 103 -8 149 -104 19 -43 38 -100 42 -129 3 -28 10 -51 15 -51
4 0 6 10 4 23 -3 12 -8 39 -11 61 -3 21 -13 53 -22 71 -21 44 -13 71 43 139
32 38 54 56 69 56 41 0 175 122 175 159 0 7 -34 -6 -81 -31 -71 -38 -86 -51
-125 -109 -24 -37 -51 -73 -60 -80 -15 -12 -16 -11 -9 11 4 14 16 41 25 60 10
19 19 44 21 55 4 28 -11 134 -20 139 -11 7 -61 -112 -61 -147 0 -17 7 -38 15
-47 13 -14 14 -26 4 -71 -18 -84 -24 -88 -45 -33 -15 38 -19 75 -19 167 l0
117 30 25 c17 13 39 27 50 31 41 14 77 48 100 95 17 36 20 49 10 49 -8 0 -17
-4 -20 -10 -3 -5 -14 -10 -23 -10 -34 0 -91 -49 -102 -88 -11 -40 -36 -79 -46
-70 -7 8 13 120 32 180 19 59 63 98 109 98 51 0 64 -9 71 -46 5 -29 16 -40 58
-64 67 -39 80 -39 57 3 -11 17 -22 43 -26 57 -6 20 -5 23 6 13 30 -29 85 1 59
32 -14 17 -8 31 9 20 6 -3 11 -17 11 -31 0 -22 4 -25 28 -22 21 2 27 8 27 28
0 18 -6 26 -23 28 -14 2 -21 9 -20 19 2 8 -5 20 -14 26 -14 9 -22 7 -41 -11
-17 -16 -36 -22 -71 -22 -29 0 -45 4 -41 10 3 6 23 10 43 10 20 0 48 8 63 18
35 23 71 62 67 71 -2 4 -32 2 -66 -3 -59 -10 -66 -14 -91 -51 -22 -33 -37 -43
-86 -58 -33 -10 -68 -23 -78 -28 -17 -9 -17 -8 -3 19 48 92 168 214 225 229
33 8 110 -34 131 -72 9 -17 32 -39 52 -49 30 -17 39 -18 66 -7 l30 13 -31 44
c-33 46 -73 66 -119 57 -14 -3 -41 3 -59 13 -31 15 -32 18 -14 25 11 4 42 11
68 14 36 5 56 15 82 41 43 42 45 59 8 49 -16 -4 -44 -11 -63 -15 -59 -12 -92
-29 -97 -49 -4 -16 -56 -51 -76 -51 -2 0 3 25 12 55 16 53 17 55 47 49 21 -4
34 -1 43 10 15 17 8 46 -10 46 -8 0 -8 -4 0 -14 10 -12 8 -17 -8 -25 -11 -6
-22 -11 -25 -11 -11 0 -6 28 7 34 6 3 1 3 -13 0 -28 -7 -22 3 12 20 13 7 23
18 23 26 0 22 -32 24 -44 3z m34 -13 c-3 -5 -11 -10 -16 -10 -6 0 -7 5 -4 10
3 6 11 10 16 10 6 0 7 -4 4 -10z m-67 -33 c2 -10 -3 -17 -12 -17 -18 0 -29 16
-21 31 9 14 29 6 33 -14z m-108 -66 c7 -14 5 -30 -10 -63 l-20 -43 0 40 c0 39
9 85 16 85 2 0 8 -9 14 -19z m318 -3 c-6 -17 -44 -34 -93 -42 l-40 -6 35 21
c19 11 27 18 18 15 -10 -3 -26 -9 -35 -12 -15 -5 -14 -3 2 11 11 9 29 14 40
11 11 -2 29 0 40 4 29 12 37 12 33 -2z m-363 -75 c-7 -44 -12 -52 -21 -29 -6
15 12 66 23 66 2 0 2 -17 -2 -37z m380 -63 c10 -11 16 -22 13 -25 -5 -6 -98
33 -98 40 0 15 69 2 85 -15z m-25 -30 c47 -24 59 -40 30 -40 -29 0 -57 16 -70
40 -13 25 -9 25 40 0z m-180 -68 c-30 -15 -57 -26 -59 -25 -11 8 29 36 60 43
57 13 56 10 -1 -18z m45 -2 c-10 -15 -65 -42 -78 -37 -7 2 6 13 28 25 44 23
59 27 50 12z m25 -61 c0 -5 -9 -9 -20 -9 -22 0 -27 16 -7 23 15 5 27 -1 27
-14z m-88 -44 c-4 -23 -6 -24 -25 -10 -12 8 -34 15 -49 15 -15 0 -30 5 -33 10
-4 6 16 10 53 10 58 0 59 -1 54 -25z m55 -1 c8 -22 -18 -37 -36 -20 -7 8 -10
19 -7 25 10 16 36 13 43 -5z m73 -4 c0 -11 -7 -20 -15 -20 -15 0 -21 21 -8 33
12 13 23 7 23 -13z m-520 -25 c14 -19 14 -19 -4 -5 -18 14 -19 14 -6 -10 7
-14 21 -37 31 -52 23 -32 24 -48 4 -48 -29 0 -68 101 -50 130 4 6 8 10 9 8 1
-2 8 -12 16 -23z m365 0 c36 -35 31 -54 -5 -20 -16 16 -30 24 -30 18 0 -6 19
-28 42 -47 51 -44 38 -48 -15 -5 -26 21 -36 37 -35 55 3 30 13 30 43 -1z
m-110 -105 c10 -16 -13 -48 -53 -75 -56 -38 -56 -30 1 26 53 53 38 49 -20 -5
-34 -31 -44 -26 -18 8 15 20 65 56 77 56 4 0 10 -4 13 -10z m-45 -260 c0 -70
-15 -80 -21 -15 l-6 60 -2 -65 c-1 -59 -3 -63 -16 -46 -19 25 -19 47 0 93 13
30 17 33 30 23 9 -7 15 -29 15 -50z m-242 23 c-2 -10 -10 -18 -18 -18 -8 0
-16 8 -18 18 -2 12 3 17 18 17 15 0 20 -5 18 -17z m421 -19 c-38 -41 -108 -88
-116 -80 -3 3 0 12 7 21 7 8 9 15 5 15 -4 0 -2 7 6 16 14 17 89 58 89 49 0 -3
8 -1 18 4 29 17 27 12 -9 -25z m-420 -95 c18 -11 31 -23 28 -26 -4 -3 -23 4
-43 16 -20 12 -38 20 -41 18 -6 -6 47 -39 76 -47 l26 -7 -29 -8 c-25 -7 -33
-4 -58 24 -45 50 -21 68 41 30z"/>
<path d="M2312 5033 c-24 -14 -41 -28 -38 -30 5 -5 86 44 86 52 0 7 -1 7 -48
-22z"/>
<path d="M4040 5703 c-22 -8 -50 -34 -50 -47 0 -6 5 -5 12 2 21 21 28 13 28
-30 0 -45 -19 -108 -33 -108 -4 0 -15 16 -23 35 -11 28 -12 40 -3 57 10 18 9
20 -5 15 -11 -5 -16 -1 -16 13 0 28 -14 25 -43 -10 -37 -43 -40 -63 -23 -123
15 -51 91 -177 106 -177 33 0 6 -173 -41 -267 -36 -71 -54 -82 -42 -25 4 20 7
74 7 118 -1 72 -6 90 -38 157 -40 84 -87 132 -120 123 -12 -3 -29 -6 -38 -6
-23 0 -23 -15 2 -50 11 -16 27 -48 36 -72 17 -49 63 -101 105 -118 37 -16 46
-60 29 -152 -13 -75 -40 -117 -92 -144 -20 -11 -27 -19 -20 -26 13 -13 46 7
86 51 17 19 36 39 42 45 6 6 22 29 36 51 71 112 141 165 221 165 18 0 43 14
74 43 52 47 138 170 123 175 -22 8 -132 -53 -170 -94 -22 -24 -40 -48 -40 -53
0 -5 -34 -34 -76 -66 -66 -50 -76 -54 -71 -34 3 13 11 57 17 97 8 50 23 94 51
143 43 80 44 84 27 178 -14 78 -13 77 -32 62 -13 -11 -16 -9 -21 12 -4 14 -2
35 5 46 6 12 9 21 8 20 -2 0 -10 -3 -18 -6z m-63 -242 c7 -77 -9 -84 -46 -20
-40 70 -49 128 -26 163 l18 27 25 -58 c14 -32 27 -82 29 -112z m109 77 c11
-93 -21 -141 -69 -105 -17 11 -16 15 2 67 43 126 56 133 67 38z m-331 -136
c31 -22 115 -152 115 -178 0 -42 -78 33 -107 104 -13 31 -27 63 -30 70 -6 13
6 16 22 4z m85 -54 c22 -35 40 -70 40 -78 0 -11 -39 43 -96 133 -3 4 0 7 6 7
6 0 28 -28 50 -62z m198 38 c4 -17 -14 -46 -29 -46 -14 0 -21 41 -8 56 15 18
33 13 37 -10z m270 -38 c-4 -13 -96 -78 -110 -78 -19 0 10 35 50 61 50 31 66
36 60 17z m-48 -83 c-39 -42 -100 -79 -111 -68 -12 12 16 39 79 74 55 30 64
28 32 -6z"/>
<path d="M2005 5554 c-7 -65 -5 -84 13 -128 12 -28 23 -64 25 -81 3 -20 4 -14
6 18 0 27 6 68 12 92 9 37 8 49 -10 90 -12 26 -21 56 -21 66 0 11 -4 19 -9 19
-5 0 -13 -34 -16 -76z m30 -114 c5 -18 3 -22 -5 -14 -6 6 -13 38 -15 70 -4 58
-4 58 5 14 5 -25 12 -56 15 -70z m17 29 c-6 -23 -6 -23 -13 6 -4 17 -7 41 -7
55 0 24 0 23 13 -6 8 -17 11 -42 7 -55z"/>
<path d="M2305 5600 c10 -11 20 -20 23 -20 3 0 -3 9 -13 20 -10 11 -20 20 -23
20 -3 0 3 -9 13 -20z"/>
<path d="M5141 5544 c-26 -52 -32 -72 -26 -97 4 -18 8 -60 9 -95 2 -56 6 -68
35 -99 18 -19 30 -37 28 -40 -10 -9 -151 60 -169 83 -39 49 -120 82 -130 52
-4 -10 20 -63 39 -87 2 -3 30 -6 63 -7 32 -2 72 -10 87 -19 27 -16 25 -16 -51
-11 -60 5 -86 2 -112 -10 -48 -23 -49 -29 -10 -59 l35 -27 48 18 c26 10 60 28
75 40 18 15 37 21 60 19 18 -2 41 -4 50 -4 9 -1 31 -13 48 -27 37 -32 49 -27
19 7 -93 106 -99 117 -77 164 9 19 17 24 37 21 57 -8 92 41 82 113 l-6 44 -33
-28 c-18 -15 -47 -55 -63 -87 -17 -33 -33 -57 -36 -54 -3 3 4 35 16 70 22 67
36 172 22 180 -4 3 -22 -24 -40 -60z m24 -71 c-10 -53 -19 -31 -10 24 5 26 10
40 13 30 2 -11 1 -35 -3 -54z m-25 -3 c-5 -33 -9 -40 -14 -27 -5 10 -3 30 4
48 17 39 19 34 10 -21z m107 -17 c-40 -65 -41 -67 -28 -58 7 4 21 21 32 39 16
27 19 28 19 10 0 -35 -32 -68 -58 -60 -29 9 -28 15 8 64 38 52 59 55 27 5z
m-278 -135 l43 -31 -23 -13 c-27 -14 -53 -4 -69 26 -14 26 -5 25 32 -1 16 -12
32 -19 34 -16 3 3 -13 18 -35 33 -23 14 -41 28 -41 30 0 11 20 1 59 -28z m25
-106 c8 -14 -64 -36 -77 -23 -7 7 -6 12 4 15 8 2 21 7 29 9 23 8 38 8 44 -1z
m46 -21 c0 -9 -77 -41 -102 -41 -8 0 -21 7 -29 16 -11 13 -9 14 13 9 14 -4 40
0 59 9 40 17 59 19 59 7z"/>
<path d="M5121 5584 c0 -11 3 -14 6 -6 3 7 2 16 -1 19 -3 4 -6 -2 -5 -13z"/>
<path d="M3077 5423 c2 -27 9 -68 15 -92 10 -39 16 -46 65 -68 47 -22 56 -31
83 -86 16 -34 30 -71 30 -82 0 -11 5 -27 10 -35 6 -10 7 15 4 70 -6 84 -6 86
30 144 40 67 39 60 22 140 l-12 60 -27 -53 c-39 -80 -52 -149 -38 -206 7 -26
10 -49 7 -52 -10 -10 -45 88 -55 156 -6 41 -16 80 -22 87 -12 14 -97 64 -109
64 -4 0 -6 -21 -3 -47z m80 -73 c23 -50 40 -90 38 -90 -3 0 -20 7 -39 17 -40
19 -66 71 -66 133 0 60 21 42 67 -60z m154 -54 c-35 -67 -56 -73 -46 -15 4 24
17 69 28 99 l21 55 11 -45 c11 -41 10 -49 -14 -94z m-138 107 c12 -15 41 -123
32 -123 -3 0 -65 130 -65 136 0 10 18 2 33 -13z"/>
<path d="M3290 5320 c-15 -55 -7 -63 9 -9 7 22 10 43 7 46 -2 3 -10 -14 -16
-37z"/>
<path d="M5725 5338 c-31 -101 -26 -166 15 -203 25 -23 37 -64 44 -155 l6 -75
-39 80 c-22 44 -42 92 -45 107 -3 14 -18 40 -32 58 -26 31 -112 95 -119 88 -2
-2 9 -39 23 -83 25 -75 30 -81 71 -102 48 -25 78 -49 92 -75 14 -26 5 -22 -35
12 -55 49 -92 59 -149 43 -28 -8 -47 -19 -44 -26 6 -19 97 -46 157 -47 76 -1
93 -16 98 -89 5 -73 -9 -118 -64 -201 -89 -135 -112 -142 -71 -22 l27 77 -37
73 c-21 41 -41 76 -45 78 -18 11 -7 -137 13 -196 31 -89 16 -109 -24 -34 -18
33 -39 69 -47 81 -14 19 -78 58 -85 51 -2 -2 -7 -30 -10 -64 -7 -57 -6 -62 19
-81 14 -11 22 -24 18 -28 -4 -5 -2 -5 5 -1 7 3 32 8 57 10 45 4 46 3 55 -31 7
-24 6 -40 -1 -52 -13 -22 -106 -81 -183 -118 -73 -34 -70 -32 -62 -40 4 -3 37
8 75 25 49 23 93 35 158 41 81 9 91 8 117 -10 39 -28 132 -46 152 -29 9 7 14
19 11 27 -3 8 -1 11 4 8 6 -4 17 1 25 9 14 13 13 16 -4 26 -25 13 -97 13 -122
-1 -11 -5 -41 -9 -67 -7 l-47 3 30 14 c17 7 63 19 103 26 40 7 75 15 77 16 9
11 45 81 45 89 0 27 -54 6 -112 -43 -61 -50 -128 -84 -213 -106 -62 -17 -73
-13 -35 11 79 49 130 102 196 203 38 58 78 108 88 111 15 5 30 -5 61 -40 22
-25 47 -46 56 -46 18 0 77 105 66 117 -4 3 -42 2 -84 -4 -43 -6 -81 -8 -85 -6
-4 2 10 27 32 54 46 59 63 107 58 169 l-3 45 -34 -59 c-23 -40 -36 -77 -39
-111 -3 -38 -12 -60 -34 -85 -26 -31 -28 -32 -21 -10 4 14 7 117 5 230 -3 191
-5 209 -27 258 -24 53 -33 62 -40 40z m25 -118 c6 -40 8 -75 6 -77 -8 -9 -36
56 -36 84 0 31 10 76 16 70 2 -2 8 -36 14 -77z m27 -22 c2 -52 1 -57 -6 -28
-17 71 -21 114 -9 102 7 -7 13 -40 15 -74z m-151 -24 c16 -3 51 -41 59 -65 3
-9 2 -26 -2 -37 -8 -22 -8 -22 -40 -2 -23 13 -35 31 -43 60 -6 23 -14 49 -17
58 -6 15 -5 15 11 2 10 -8 24 -15 32 -16z m30 -160 c17 -14 17 -15 1 -10 -10
3 -32 6 -48 6 -16 0 -29 5 -29 10 0 16 54 12 76 -6z m244 -59 c-7 -25 -17 -48
-23 -52 -6 -4 -8 0 -4 9 3 9 11 34 18 57 17 56 25 43 9 -14z m-266 39 c25 -4
46 -11 46 -15 0 -10 -71 -1 -105 12 -26 10 -4 11 59 3z m245 -35 c-14 -41 -35
-67 -24 -29 14 47 26 73 30 68 3 -3 0 -20 -6 -39z m-276 -219 c6 -53 6 -54 -8
-25 -15 33 -21 105 -6 90 5 -6 11 -35 14 -65z m377 55 c0 -15 -36 -75 -45 -75
-13 0 -65 52 -65 64 0 5 15 6 33 3 19 -3 40 -1 48 4 15 10 29 12 29 4z m-340
-77 c0 -16 -4 -28 -10 -28 -5 0 -10 8 -10 19 0 10 -3 34 -6 52 l-5 34 15 -25
c8 -14 15 -37 16 -52z m-144 10 c22 -25 54 -74 54 -83 0 -17 -33 0 -53 28 -39
52 -50 77 -34 77 7 0 22 -10 33 -22z m-36 -22 c0 -8 12 -28 26 -45 25 -29 25
-31 5 -31 -11 0 -29 10 -41 22 -22 24 -23 28 -14 52 8 20 24 21 24 2z m405
-104 c-35 -29 -87 -63 -91 -59 -6 6 76 67 90 67 6 0 6 -3 1 -8z m-17 -51 c-13
-21 -54 -39 -64 -28 -6 6 68 57 74 52 2 -2 -3 -13 -10 -24z m2 -90 c0 -6 -4
-13 -10 -16 -14 -9 -81 6 -74 16 7 12 84 12 84 0z m-17 -44 c-3 -5 -28 -7 -55
-4 -55 7 -76 16 -59 26 15 10 121 -11 114 -22z"/>
<path d="M5620 5162 c0 -12 51 -84 57 -79 4 5 -46 87 -53 87 -2 0 -4 -3 -4 -8z"/>
<path d="M5186 5303 c-6 -14 -5 -15 5 -6 7 7 10 15 7 18 -3 3 -9 -2 -12 -12z"/>
<path d="M4135 5300 c3 -5 8 -10 11 -10 2 0 4 5 4 10 0 6 -5 10 -11 10 -5 0
-7 -4 -4 -10z"/>
<path d="M2103 4922 c1 -12 6 -18 15 -15 7 3 10 9 5 12 -4 3 -11 10 -15 15 -4
4 -6 -1 -5 -12z"/>
<path d="M4907 4663 c-10 -102 -8 -130 8 -147 20 -20 31 -51 39 -112 7 -45 2
-65 -45 -194 -55 -150 -65 -158 -68 -54 -1 33 5 46 30 70 52 50 73 119 46 159
-7 11 -19 39 -26 63 -14 50 -32 57 -24 9 4 -25 -2 -48 -22 -86 -26 -50 -27
-55 -16 -106 8 -34 9 -61 3 -71 -16 -28 -52 47 -52 109 0 54 -26 112 -55 123
-8 4 -12 10 -9 15 3 5 -1 6 -9 4 -7 -3 -30 6 -51 20 -21 14 -41 23 -44 20 -3
-3 7 -34 21 -70 15 -36 27 -76 27 -88 0 -26 25 -52 82 -86 78 -46 103 -125
103 -326 0 -82 4 -163 9 -180 8 -30 8 -30 -17 6 -22 30 -25 45 -22 88 2 30 -2
65 -10 85 -12 28 -21 34 -49 38 -23 2 -37 -1 -40 -9 -4 -10 -17 -11 -47 -7
-41 7 -42 6 -35 -17 4 -13 7 -38 7 -55 -1 -17 5 -47 13 -66 17 -40 43 -51 105
-43 48 6 66 -10 99 -83 11 -26 34 -78 51 -116 17 -38 30 -70 28 -72 -2 -2 -27
17 -57 41 -46 37 -62 45 -97 45 -23 0 -54 -5 -70 -11 l-27 -10 32 -21 c18 -11
32 -24 32 -29 0 -5 11 -16 24 -25 23 -14 28 -14 71 5 l46 20 33 -21 c19 -12
49 -45 67 -73 43 -64 139 -175 151 -175 5 0 -15 28 -44 63 -80 92 -86 102 -79
144 8 50 34 54 73 14 25 -25 38 -31 74 -31 48 0 53 8 30 52 -13 24 -12 28 5
44 28 25 23 41 -16 54 -29 9 -34 15 -25 26 7 8 9 26 5 44 -9 39 -35 39 -74 1
-16 -16 -32 -27 -34 -25 -2 3 -3 -9 -1 -25 2 -21 -2 -34 -15 -43 -18 -13 -36
-77 -32 -110 5 -38 -17 -15 -56 60 -43 80 -73 155 -73 184 0 31 23 69 38 63
17 -6 92 39 92 55 0 6 10 10 21 10 40 0 101 24 114 44 7 12 15 44 18 72 l6 50
-54 -11 c-30 -6 -58 -15 -63 -20 -5 -6 -21 -41 -36 -80 -28 -71 -62 -109 -93
-103 -14 2 -10 11 19 39 20 20 38 49 41 65 17 85 16 110 -2 144 l-19 35 -17
-40 c-29 -69 -55 -177 -49 -202 6 -22 -14 -89 -23 -79 -2 2 -8 34 -14 70 -11
79 4 238 28 309 17 48 66 117 84 117 5 0 9 -19 10 -42 1 -56 21 -123 37 -122
7 1 26 2 43 3 29 1 31 3 27 33 -7 43 22 95 44 82 17 -11 21 50 5 79 -10 16
-17 37 -17 47 0 33 -12 50 -35 50 -26 0 -75 -35 -75 -54 0 -7 -22 -37 -50 -66
-54 -58 -60 -59 -31 -2 10 20 24 55 30 77 30 98 40 112 95 130 64 21 84 39 92
81 3 19 10 37 15 40 5 3 9 9 9 15 0 11 -73 -17 -117 -45 -23 -15 -39 -38 -54
-79 -12 -32 -23 -56 -25 -54 -4 4 -23 105 -34 182 -4 33 -11 76 -15 95 l-7 35
23 -23 c21 -20 24 -31 24 -101 0 -44 3 -77 8 -74 4 2 7 33 7 69 0 67 -14 106
-48 137 -19 17 -19 16 -25 -50z m22 -108 c1 -29 -2 -36 -9 -25 -5 8 -9 35 -9
60 0 34 2 40 9 25 5 -11 9 -38 9 -60z m157 -46 c-25 -22 -46 -46 -46 -52 0 -6
20 9 45 33 47 46 68 50 40 7 -16 -25 -62 -50 -97 -52 -21 -2 -21 0 -7 26 11
21 86 79 102 79 5 0 -11 -18 -37 -41z m-340 -211 c29 -57 16 -63 -39 -17 -27
23 -37 38 -37 60 0 16 -9 47 -20 69 -11 22 -20 42 -20 46 0 15 93 -112 116
-158z m-13 102 c29 -28 49 -100 28 -100 -6 0 -11 6 -11 14 0 12 -30 56 -84
125 -18 23 34 -7 67 -39z m178 -45 c5 -33 -11 -82 -32 -101 -23 -21 -23 -20
-4 53 8 31 15 64 14 73 0 8 -5 -1 -11 -20 -5 -19 -14 -53 -20 -75 l-11 -40 -8
35 c-6 27 -2 45 18 83 23 46 25 48 38 30 7 -10 14 -27 16 -38z m192 -37 c17
-27 1 -48 -37 -48 -46 0 -53 14 -21 46 27 27 42 28 58 2z m-73 -89 c0 -20 -24
-26 -35 -9 -3 6 -3 19 0 31 5 16 10 18 21 8 8 -6 14 -20 14 -30z m92 14 c21
-18 24 -53 6 -54 -7 0 -22 -2 -32 -4 -46 -9 -77 42 -38 64 25 15 43 13 64 -6z
m-75 -75 c25 -28 39 -88 20 -88 -6 0 -22 -3 -33 -6 -18 -5 -22 0 -28 33 -4 21
-10 48 -13 61 -4 17 -1 22 14 22 11 0 29 -10 40 -22z m43 -8 c0 -5 -4 -10 -10
-10 -5 0 -10 5 -10 10 0 6 5 10 10 10 6 0 10 -4 10 -10z m-115 -238 c-4 -67
-23 -109 -49 -109 -23 0 -20 30 10 121 31 91 45 86 39 -12z m125 23 c0 -3 -16
-28 -36 -55 -20 -28 -34 -53 -31 -56 3 -3 25 22 48 55 24 34 49 61 56 61 18 0
17 -60 -1 -86 -19 -26 -94 -50 -109 -35 -15 15 37 121 58 121 8 0 15 -2 15 -5z
m-316 -27 c9 -12 16 -36 16 -53 l-1 -30 -20 40 c-10 22 -27 46 -36 53 -15 11
-15 12 5 12 11 0 28 -10 36 -22z m-58 -4 c12 -2 28 -18 37 -36 14 -30 14 -34
0 -50 -9 -10 -22 -18 -29 -18 -13 0 -62 58 -83 97 -12 24 -10 24 75 7z m-26
-95 c29 -27 39 -44 32 -51 -11 -11 -41 1 -59 24 -10 13 -26 68 -20 68 2 0 23
-18 47 -41z m95 -28 c-3 -12 -15 -21 -26 -21 -23 0 -25 17 -2 42 20 22 38 9
28 -21z m330 -209 c-61 -56 -79 -12 -18 46 l36 36 9 -25 c8 -20 4 -29 -27 -57z
m75 -37 c0 -23 -28 -36 -67 -33 -44 3 -50 23 -13 41 30 15 80 10 80 -8z m-364
0 c17 -13 15 -14 -33 -15 -69 0 -101 12 -53 21 57 10 65 10 86 -6z m244 -24
c0 -10 -7 -22 -16 -25 -23 -9 -24 -8 -24 19 0 18 5 25 20 25 13 0 20 -7 20
-19z m-235 -11 l30 -7 -28 -11 c-40 -17 -61 -15 -82 8 -18 20 -17 20 16 19 19
-1 48 -5 64 -9z m328 -32 c9 -5 17 -15 17 -23 0 -25 -54 -23 -82 2 -30 27 -23
46 15 38 17 -4 40 -11 50 -17z"/>
<path d="M4947 3873 c-9 -25 -15 -48 -13 -50 2 -2 12 16 21 42 10 25 16 47 13
50 -2 2 -12 -17 -21 -42z"/>
<path d="M3167 4604 c-9 -10 21 -116 40 -142 11 -14 33 -30 51 -36 17 -6 39
-19 48 -28 20 -20 104 -161 98 -167 -9 -9 -92 34 -114 60 -27 32 -33 33 -133
31 l-68 -2 58 -55 c63 -59 91 -67 145 -39 28 14 34 14 74 -1 81 -31 139 -145
148 -287 4 -61 16 -116 42 -194 31 -93 35 -118 31 -172 -3 -35 -7 -65 -10 -68
-10 -11 -77 39 -77 57 0 29 -27 89 -40 89 -6 0 -31 14 -56 30 l-44 31 1 -53
c1 -29 6 -61 11 -71 10 -19 86 -60 133 -71 42 -10 55 -24 55 -56 0 -29 -38
-213 -64 -305 l-13 -50 -8 50 c-12 77 -20 92 -90 160 -69 68 -76 89 -50 135
27 48 19 82 -29 122 l-44 37 -7 -55 c-6 -49 -4 -59 18 -87 54 -71 41 -105 -16
-42 -18 20 -51 56 -75 80 -25 26 -45 59 -48 78 -11 58 -78 143 -93 118 -7 -10
-14 -10 -37 2 -32 16 -104 12 -104 -7 0 -6 13 -39 29 -73 32 -67 28 -64 135
-83 71 -12 118 -39 144 -85 12 -18 52 -57 91 -85 39 -28 71 -56 71 -61 0 -22
-75 1 -96 29 -10 14 -28 17 -88 16 -96 0 -106 -9 -72 -62 35 -56 70 -62 138
-24 49 27 56 28 100 18 71 -17 93 -44 108 -131 7 -42 10 -95 6 -122 -17 -119
-18 -144 -7 -174 6 -18 9 -34 6 -37 -8 -9 -43 29 -70 74 -24 40 -29 44 -66 44
-22 0 -53 7 -69 15 -35 18 -36 14 -15 -60 25 -85 54 -99 161 -80 54 10 63 -4
109 -155 20 -63 51 -164 70 -225 19 -60 37 -122 41 -138 7 -29 79 -147 90
-147 3 0 -1 11 -10 25 -63 95 -66 109 -66 265 0 163 -1 159 72 193 28 12 44
14 64 7 56 -22 89 -13 147 40 30 28 60 50 65 50 6 0 13 4 16 9 4 5 -30 10 -76
10 -94 1 -157 -22 -176 -65 -10 -20 -89 -68 -100 -59 -1 1 11 28 27 59 27 51
30 63 25 119 -6 60 -5 63 31 105 41 48 55 51 96 21 40 -28 98 -35 135 -16 37
20 94 72 94 87 0 14 -44 30 -86 30 -24 0 -34 5 -34 15 0 9 -10 16 -27 17 -51
2 -67 -2 -94 -28 -15 -15 -31 -24 -36 -21 -5 3 -10 -6 -11 -20 -1 -14 -20 -45
-42 -69 -39 -42 -44 -56 -40 -99 1 -19 1 -19 -14 1 -13 18 -14 28 -5 54 17 47
4 98 -33 137 -17 18 -34 33 -37 33 -4 0 -7 -41 -9 -90 l-2 -91 33 -19 c63 -37
73 -104 30 -191 -27 -51 -28 -61 -27 -184 l1 -130 -27 90 c-16 50 -52 169 -81
265 -74 241 -70 301 22 407 44 51 56 59 97 65 88 13 142 51 142 101 0 7 7 25
15 41 17 32 13 45 -7 28 -7 -6 -40 -20 -73 -33 -73 -26 -102 -51 -127 -108
-11 -24 -31 -56 -44 -71 -14 -15 -31 -35 -40 -46 -15 -18 -15 -18 -10 6 34
144 61 243 79 280 35 73 155 247 187 272 17 13 43 33 59 46 20 15 43 22 72 22
101 0 162 47 173 132 2 20 7 46 11 57 8 26 -9 35 -37 19 -13 -7 -26 -11 -31
-10 -4 1 -29 -9 -56 -23 -56 -28 -91 -67 -91 -100 0 -13 -7 -25 -15 -29 -8 -3
-15 -14 -15 -25 0 -11 -19 -33 -49 -54 -49 -35 -109 -112 -176 -223 -40 -66
-43 -58 -16 44 18 69 19 102 4 182 -8 44 -4 79 11 106 12 24 101 95 110 88 3
-2 4 -1 1 3 -3 3 2 14 11 24 14 15 48 128 41 135 -1 2 -29 -15 -62 -37 -33
-21 -62 -39 -65 -39 -3 0 -15 -15 -28 -34 -18 -27 -22 -42 -16 -70 6 -35 -10
-96 -26 -96 -15 0 -40 118 -40 189 l0 73 61 63 c71 74 106 91 140 67 34 -23
117 -18 173 12 l46 24 -52 27 c-61 32 -100 29 -160 -10 -22 -15 -46 -24 -53
-21 -7 2 -46 -30 -89 -73 -56 -58 -77 -74 -80 -62 -15 49 4 264 25 277 15 9
10 -51 -7 -91 -8 -20 -13 -40 -10 -42 5 -6 22 31 35 77 8 26 -10 106 -23 103
-4 -1 -21 -19 -38 -40 -30 -37 -30 -40 -24 -118 5 -75 5 -79 -10 -60 -9 11
-28 45 -42 75 -14 30 -41 81 -60 113 -22 39 -32 66 -28 81 6 25 -27 121 -51
149 -9 9 -26 17 -39 17 -12 0 -34 4 -47 9 -14 6 -27 7 -30 5z m65 -33 c4 -3 9
-18 12 -34 2 -15 14 -41 26 -57 18 -25 19 -31 6 -36 -36 -14 -77 35 -90 109
-7 37 -6 38 16 32 13 -4 26 -10 30 -14z m61 -44 c10 -20 17 -45 15 -54 -3 -14
-7 -12 -24 12 -12 17 -24 43 -28 58 -10 41 14 31 37 -16z m31 -92 c-7 -17 -20
-20 -28 -6 -7 10 3 21 20 21 8 0 11 -6 8 -15z m203 -109 c-3 -8 -11 -42 -18
-77 -9 -47 -14 -58 -20 -43 -12 31 -10 64 7 100 15 32 42 50 31 20z m-256 -35
c13 -11 22 -22 19 -25 -6 -5 -149 30 -158 39 -3 3 22 5 55 5 45 0 67 -5 84
-19z m-17 -35 l48 -13 -30 -12 c-37 -16 -61 -9 -93 26 l-24 26 25 -7 c14 -3
47 -12 74 -20z m633 -46 c2 0 3 -4 3 -10 0 -5 -28 -11 -62 -13 -59 -4 -58 -4
10 -3 39 1 72 0 72 -2 0 -2 -16 -10 -35 -18 -36 -15 -103 -19 -120 -6 -9 6
-20 42 -13 42 2 0 21 6 42 14 27 9 49 11 70 5 17 -5 32 -9 33 -9z m-144 -240
c-4 -22 -26 -54 -60 -89 l-53 -55 -17 23 c-15 22 -15 26 1 55 17 32 75 76 100
76 8 0 17 7 20 16 11 27 17 10 9 -26z m310 -107 c-6 -51 -23 -93 -45 -110 -25
-21 -99 -36 -112 -22 -8 8 -8 13 1 16 39 14 78 52 90 88 12 36 46 74 65 75 4
0 5 -21 1 -47z m-76 -19 c-11 -36 -43 -65 -84 -78 -50 -16 -17 59 41 95 47 29
56 25 43 -17z m-107 -109 c0 -8 -4 -15 -9 -15 -13 0 -22 16 -14 24 11 11 23 6
23 -9z m-862 -51 c13 -9 22 -26 22 -40 0 -25 40 -74 60 -74 5 0 10 -4 10 -9 0
-8 -54 -6 -107 5 -20 4 -73 91 -73 121 0 18 60 17 88 -3z m93 -50 c11 -19 19
-41 17 -49 -3 -13 -8 -12 -35 5 -33 20 -50 57 -39 86 8 21 27 7 57 -42z m363
-9 c21 -13 32 -99 11 -91 -37 14 -93 57 -98 75 -7 30 0 26 44 -19 22 -22 43
-40 48 -40 5 0 -13 23 -40 51 -58 60 -67 90 -15 56 18 -12 41 -26 50 -32z
m-129 -105 c3 -9 0 -30 -6 -46 l-12 -29 -7 40 c-3 22 -12 50 -19 63 -12 23
-12 23 13 7 14 -9 28 -25 31 -35z m-37 -43 c-3 -20 -5 -20 -19 8 -9 17 -14 39
-11 50 4 17 6 16 19 -8 8 -16 13 -38 11 -50z m-55 -141 c46 -10 30 -26 -25
-26 -91 0 -138 25 -60 32 39 3 41 3 85 -6z m-25 -40 c28 1 52 -1 52 -2 0 -2
-14 -11 -31 -19 -42 -22 -88 -16 -108 14 -16 24 -15 24 9 16 14 -5 49 -9 78
-9z m545 -20 c-1 -16 -10 -37 -19 -47 -16 -17 -111 -55 -119 -47 -2 2 26 24
62 48 37 25 68 51 71 58 2 7 -19 -4 -46 -25 -79 -59 -112 -77 -112 -60 0 24
32 55 85 81 62 32 81 30 78 -8z m161 -234 c13 -21 -37 -52 -83 -52 -39 0 -41
24 -3 44 29 16 78 21 86 8z m101 -35 c10 -8 15 -19 12 -25 -12 -18 -100 -72
-119 -72 -40 0 -124 57 -90 61 4 0 17 2 28 3 12 1 37 12 55 24 39 25 87 28
114 9z m-391 -135 c10 -17 -9 -15 -23 2 -9 10 -10 33 -4 78 l7 63 6 -65 c4
-36 10 -71 14 -78z m27 73 c7 -97 -19 -96 -28 1 -5 53 -4 57 10 44 9 -8 16
-28 18 -45z m139 29 c0 -8 -4 -12 -10 -9 -5 3 -10 10 -10 16 0 5 5 9 10 9 6 0
10 -7 10 -16z m-445 -49 c6 -1 20 -21 33 -43 l23 -41 -46 15 c-25 9 -51 24
-58 33 -6 9 -23 25 -37 34 -25 17 -24 17 25 11 28 -3 55 -7 60 -9z m-65 -35
c12 -17 37 -34 60 -41 47 -14 43 -29 -8 -29 -49 0 -59 8 -76 58 -18 49 -6 55
24 12z m615 -170 c-23 -11 -56 -22 -75 -25 -18 -3 -40 -10 -49 -15 -29 -18 72
2 113 21 22 11 42 17 44 14 8 -8 -61 -65 -85 -71 -41 -11 -92 10 -93 38 0 4
19 18 43 32 31 19 55 26 92 25 l50 -1 -40 -18z"/>
<path d="M3677 3933 c-4 -3 -7 -13 -7 -22 1 -13 3 -13 11 2 11 19 8 33 -4 20z"/>
<path d="M3631 3867 c-13 -21 -12 -21 5 -5 10 10 16 20 13 22 -3 3 -11 -5 -18
-17z"/>
<path d="M980 4463 c-63 -22 -99 -47 -109 -74 -5 -16 -8 -36 -4 -45 4 -12 0
-14 -23 -8 -56 15 -68 11 -86 -28 -10 -20 -26 -39 -36 -42 -10 -3 -26 -19 -35
-36 -15 -24 -15 -33 -5 -49 16 -25 37 -31 124 -31 45 0 77 5 90 14 16 12 22
12 46 -2 31 -18 42 -38 26 -48 -7 -5 -8 -2 -3 5 6 10 3 11 -16 1 -34 -18 -89
-72 -83 -81 5 -9 101 53 121 79 10 12 15 13 28 2 30 -25 16 -269 -20 -347 -9
-19 -13 -43 -9 -58 13 -54 20 -34 60 185 11 61 14 111 9 178 -3 50 -3 92 2 92
4 -1 19 -7 33 -15 28 -16 100 -20 100 -6 0 11 -73 41 -100 41 -40 0 -16 32 31
43 15 4 43 25 63 47 32 35 36 45 30 74 -3 19 -1 43 5 55 7 12 8 21 4 22 -4 0
-19 2 -32 5 -13 2 -41 -5 -63 -16 l-38 -20 0 35 0 35 -47 -1 c-27 0 -55 -3
-63 -6z m94 -11 c4 -7 -39 -192 -46 -196 -13 -7 -80 -36 -83 -36 -10 0 -65
121 -65 143 0 27 32 59 75 75 26 10 42 13 102 21 6 0 14 -2 17 -7z m122 -87
c-1 -47 -6 -60 -31 -84 -32 -31 -81 -46 -104 -32 -22 14 6 117 38 140 32 22
50 29 77 30 20 1 22 -4 20 -54z m-330 -57 c7 -4 21 -29 33 -54 31 -64 16 -80
-82 -87 -125 -8 -157 21 -89 84 23 21 42 44 42 52 0 34 47 37 96 5z m198 -77
c10 -16 -5 -41 -24 -41 -10 0 -23 -7 -30 -15 -15 -18 -39 -19 -63 -1 -20 16
-11 27 44 50 39 18 65 20 73 7z m74 -61 c6 0 12 -4 12 -9 0 -6 -12 -6 -31 -1
-38 11 -55 26 -19 17 14 -4 31 -7 38 -7z m-98 -25 c0 -8 -7 -15 -15 -15 -8 0
-15 7 -15 15 0 8 7 15 15 15 8 0 15 -7 15 -15z m-80 -40 c0 -2 -10 -10 -22
-16 -21 -11 -22 -11 -9 4 13 16 31 23 31 12z m87 -112 c-2 -16 -4 -3 -4 27 0
30 2 43 4 28 2 -16 2 -40 0 -55z"/>
<path d="M3910 4410 c-19 -5 -42 -19 -50 -32 -8 -13 -27 -34 -41 -48 -15 -14
-52 -49 -83 -79 -31 -29 -55 -56 -52 -59 3 -3 30 20 61 50 60 61 83 67 142 35
41 -22 140 -32 176 -18 38 15 37 53 -3 83 -20 14 -28 28 -25 39 4 13 -3 18
-30 23 -20 4 -42 9 -48 11 -7 1 -28 -1 -47 -5z m94 -16 c33 -13 13 -19 -59
-19 -62 0 -72 2 -58 13 18 13 90 16 117 6z m17 -51 c61 -32 74 -58 35 -73 -29
-11 -105 -4 -149 12 -38 15 -55 57 -31 75 29 21 86 15 145 -14z m-171 -23 c0
-5 -5 -10 -11 -10 -5 0 -7 5 -4 10 3 6 8 10 11 10 2 0 4 -4 4 -10z"/>
<path d="M2260 4344 c-8 -14 -29 -32 -46 -39 -36 -15 -64 -59 -64 -102 0 -30
22 -110 38 -140 6 -10 15 -68 21 -130 6 -61 16 -125 22 -142 6 -16 9 -38 7
-48 -6 -28 -36 35 -58 122 -22 87 -33 109 -78 160 -21 24 -37 34 -43 28 -11
-11 -1 -45 11 -38 5 3 11 -4 15 -14 3 -12 12 -18 20 -15 16 7 26 -11 54 -95
24 -74 26 -97 6 -61 -12 22 -14 22 -15 6 0 -32 -66 39 -78 83 -10 35 -10 35
-11 7 -1 -36 31 -85 76 -116 40 -27 109 -107 143 -165 13 -22 43 -63 66 -91
24 -28 40 -55 36 -59 -4 -5 -2 -5 5 -1 6 3 24 -5 40 -19 19 -16 23 -25 13 -25
-8 0 28 -15 80 -31 111 -36 140 -55 65 -43 -101 16 -205 9 -280 -17 -103 -37
-95 -52 34 -63 121 -10 190 1 248 41 27 18 57 27 108 32 l70 7 -65 8 c-79 10
-198 55 -248 93 -139 105 -214 245 -172 324 12 21 74 27 85 9 3 -6 20 -17 36
-25 23 -13 34 -13 52 -4 33 18 106 73 107 81 0 4 -24 12 -54 19 -51 11 -57 10
-98 -13 -24 -14 -62 -28 -86 -32 -42 -6 -43 -6 -37 16 10 32 21 44 55 58 40
17 68 79 71 157 1 35 0 65 -3 68 -11 11 -115 -116 -126 -154 -7 -21 -13 -63
-13 -92 -2 -69 -12 -118 -22 -102 -9 14 -26 144 -28 216 -2 31 2 52 9 55 7 2
12 18 12 37 0 27 5 35 29 45 45 18 74 58 79 109 3 39 -1 52 -25 83 -33 44 -45
47 -63 12z m71 -63 c13 -33 -5 -80 -41 -109 -28 -22 -58 -22 -44 -1 3 5 5 35
5 66 0 32 7 70 16 87 l15 29 20 -24 c10 -13 23 -35 29 -48z m-97 -90 c-8 -51
-11 -56 -34 -56 -36 0 -50 58 -26 108 20 43 36 50 55 24 11 -15 12 -32 5 -76z
m-4 -95 c0 -7 -6 -19 -14 -25 -11 -9 -15 -8 -20 5 -10 26 -7 34 14 34 11 0 20
-6 20 -14z m161 -36 c15 -10 -12 -97 -37 -120 -33 -32 -39 -20 -13 24 12 20
19 39 16 42 -3 3 -17 -17 -32 -45 -26 -53 -50 -61 -39 -13 15 61 84 156 93
129 2 -7 8 -14 12 -17z m85 -205 c-22 -17 -52 -20 -60 -6 -8 12 11 19 49 20
29 0 29 0 11 -14z m19 -30 c-38 -32 -71 -41 -90 -25 -25 21 -17 30 28 30 23 0
51 7 61 15 32 24 33 6 1 -20z m58 -464 c7 -7 -183 -31 -244 -31 -39 1 -4 16
76 34 69 15 151 14 168 -3z m-13 -30 c0 -20 -117 -33 -195 -22 l-60 8 60 3
c33 1 85 5 115 10 81 11 80 11 80 1z"/>
<path d="M3300 4331 c0 -6 4 -13 10 -16 6 -3 7 1 4 9 -7 18 -14 21 -14 7z"/>
<path d="M3583 4045 c0 -8 4 -12 9 -9 5 3 6 10 3 15 -9 13 -12 11 -12 -6z"/>
<path d="M2006 3907 c3 -10 9 -15 12 -12 3 3 0 11 -7 18 -10 9 -11 8 -5 -6z"/>
<path d="M252 3642 c1 -16 -8 -42 -21 -61 -13 -17 -25 -50 -28 -72 -3 -22 -9
-41 -13 -44 -4 -2 -34 4 -68 14 -34 11 -64 15 -67 10 -3 -5 8 -34 25 -65 18
-30 30 -56 28 -57 -63 -32 -79 -45 -94 -75 -16 -35 -16 -36 9 -57 13 -12 44
-25 67 -29 35 -6 49 -3 79 17 36 23 36 23 68 5 25 -15 37 -17 52 -9 17 10 21
6 32 -26 21 -65 -7 -261 -46 -316 -7 -10 -15 -15 -18 -10 -4 7 -18 68 -32 139
-12 58 -86 93 -130 60 -10 -7 -27 -11 -37 -8 -24 6 -23 -15 2 -28 11 -6 20
-16 20 -23 0 -22 49 -117 60 -117 7 0 25 9 42 21 16 12 32 18 36 14 4 -4 7
-38 7 -76 0 -38 2 -69 5 -69 3 0 18 16 34 36 65 82 109 321 72 395 -15 30 -15
36 -1 66 13 28 14 40 5 68 -10 29 -9 43 5 79 20 52 15 74 -41 179 -38 71 -56
85 -52 39z m63 -94 c14 -26 25 -59 25 -72 0 -32 -20 -76 -34 -76 -7 0 -20 -10
-30 -21 l-18 -22 -25 44 c-29 51 -25 96 15 172 27 53 26 54 67 -25z m-172 -94
c31 -10 48 -23 53 -37 3 -12 15 -32 26 -44 28 -30 15 -48 -20 -28 -15 8 -39
19 -53 24 -15 6 -35 26 -48 51 -31 59 -31 59 42 34z m181 -117 c8 -21 4 -33
-19 -66 -15 -23 -31 -41 -36 -41 -4 0 -20 11 -36 24 l-28 24 45 46 c25 25 50
44 55 42 6 -1 14 -14 19 -29z m-128 -12 c8 -21 -14 -73 -39 -90 -14 -10 -34
-13 -61 -8 -83 12 -96 36 -45 84 26 25 39 29 85 29 40 0 56 -4 60 -15z m-16
-287 c43 -47 4 -66 -57 -28 -39 23 -40 28 -10 40 34 14 45 12 67 -12z m-6 -68
c34 0 41 -16 14 -34 -33 -23 -52 -20 -71 13 -25 43 -22 57 8 37 13 -9 35 -16
49 -16z"/>
<path d="M2346 3478 c3 -5 10 -6 15 -3 13 9 11 12 -6 12 -8 0 -12 -4 -9 -9z"/>
<path d="M3609 3293 c-13 -16 -12 -17 4 -4 9 7 17 15 17 17 0 8 -8 3 -21 -13z"/>
<path d="M1885 3204 c-19 -45 -19 -83 0 -108 8 -11 15 -36 14 -55 l-1 -36 -12
35 c-12 32 -18 36 -77 52 -35 9 -65 15 -67 14 -1 -2 5 -19 13 -39 15 -37 27
-43 89 -49 47 -5 54 -29 27 -90 -13 -29 -25 -66 -27 -83 -4 -29 -3 -29 5 -4 4
14 14 35 20 48 11 20 14 21 29 8 37 -32 122 -33 122 -1 0 14 -3 15 -52 18 -15
1 -31 6 -35 10 -4 5 3 5 16 1 16 -5 21 -4 17 4 -4 6 -15 11 -24 12 -12 0 -10
3 6 10 13 5 35 6 48 3 20 -5 26 -2 31 15 3 11 9 21 14 21 5 0 9 5 9 10 0 6
-16 10 -35 10 -25 0 -39 -6 -49 -23 -18 -27 -76 -63 -76 -47 0 14 114 130 128
130 6 0 15 -13 21 -30 5 -16 14 -30 20 -30 45 0 58 57 18 79 -24 13 -37 71
-16 71 6 0 9 -9 6 -20 -3 -11 -1 -18 4 -14 12 7 12 41 0 48 -22 14 -41 -6 -38
-39 3 -28 -1 -37 -27 -57 -17 -12 -34 -22 -38 -20 -5 1 -8 -2 -8 -6 0 -10 -43
-62 -51 -62 -4 0 2 39 12 88 22 102 23 134 7 150 -19 19 -27 15 -43 -24z m45
-20 c0 -19 -4 -33 -8 -30 -12 7 -13 66 -1 66 5 0 9 -16 9 -36z m-23 -84 c-3
-9 -8 -4 -16 14 -7 17 -9 42 -5 60 8 31 8 31 16 -14 4 -25 7 -52 5 -60z m-47
-35 c5 -3 10 -11 10 -17 0 -6 -11 -3 -25 6 -34 22 -42 20 -14 -4 20 -16 21
-19 7 -20 -26 0 -68 22 -68 36 0 13 68 12 90 -1z m225 -11 c0 -10 -8 -20 -17
-22 -18 -3 -26 27 -11 42 12 11 28 0 28 -20z m-80 -64 c-3 -5 -1 -10 5 -10 6
0 8 -4 5 -10 -4 -6 -11 -5 -19 3 -15 13 -12 27 5 27 6 0 7 -4 4 -10z m-61 -85
c20 -8 36 -17 36 -20 0 -12 -37 -3 -60 15 -30 24 -24 25 24 5z"/>
<path d="M1106 3154 c-21 -56 5 -171 48 -209 13 -11 35 -42 50 -70 30 -57 33
-113 12 -215 -8 -36 -10 -74 -6 -85 4 -11 10 -46 14 -77 4 -32 12 -60 17 -63
12 -8 12 17 -1 49 -15 40 6 74 52 88 36 11 40 9 67 -16 35 -34 84 -40 89 -11
2 11 13 30 24 41 18 20 18 24 4 59 -9 20 -13 41 -10 46 7 12 -11 11 -59 -3
-27 -8 -49 -24 -68 -51 -25 -35 -96 -83 -107 -73 -8 9 -3 102 7 129 12 30 10
30 104 31 56 1 71 5 83 20 17 23 10 31 -33 39 -23 5 -44 -1 -77 -18 -51 -27
-61 -17 -18 21 105 93 102 89 102 141 0 27 -3 52 -6 56 -10 9 -84 -54 -100
-85 -8 -15 -14 -42 -14 -61 0 -19 -8 -49 -17 -68 l-18 -34 -5 60 c-4 46 -1 69
13 98 10 21 20 62 23 91 5 50 4 54 -28 80 -18 15 -55 45 -81 66 -27 22 -50 40
-52 40 -1 0 -6 -7 -9 -16z m105 -109 c28 -60 25 -82 -11 -90 -36 -8 -63 18
-80 75 -11 39 -13 103 -4 113 11 10 76 -57 95 -98z m42 -1 c19 -26 20 -55 1
-61 -6 -2 -15 17 -21 42 -12 51 -6 56 20 19z m7 -89 c0 -15 -30 -75 -38 -75
-8 0 -36 51 -30 54 28 17 68 29 68 21z m130 -22 c0 -34 -32 -88 -61 -103 -12
-7 -19 -8 -17 -3 2 4 17 36 34 71 31 67 44 77 44 35z m-66 -56 c-14 -26 -28
-47 -31 -47 -13 0 9 66 29 88 32 33 33 13 2 -41z m74 -114 c-10 -2 -28 -2 -40
0 -13 2 -5 4 17 4 22 1 32 -1 23 -4z m-2 -21 c-7 -12 -64 -13 -71 -1 -4 5 12
9 35 9 23 0 39 -4 36 -8z m44 -74 c0 -16 -58 -50 -71 -42 -16 10 -10 23 19 38
34 19 52 20 52 4z m28 -42 c5 -24 -16 -46 -44 -46 -36 0 -39 20 -8 46 32 26
47 26 52 0z m-101 -26 c3 -11 20 -24 40 -31 24 -7 32 -14 25 -21 -14 -14 -62
-1 -62 16 0 8 -7 16 -15 20 -17 6 -21 36 -4 36 6 0 13 -9 16 -20z"/>
<path d="M1145 3070 c3 -5 8 -10 11 -10 2 0 4 5 4 10 0 6 -5 10 -11 10 -5 0
-7 -4 -4 -10z"/>
<path d="M2096 3133 l-25 -27 27 -12 c35 -14 49 -9 56 22 13 50 -19 59 -58 17z
m54 3 c0 -16 -14 -36 -25 -36 -17 0 -28 17 -20 30 6 10 45 15 45 6z"/>
<path d="M5203 2963 c-13 -2 -29 -13 -36 -24 -8 -10 -16 -16 -20 -13 -11 11
-88 -8 -94 -23 -3 -8 0 -32 7 -54 14 -43 34 -53 92 -50 58 3 93 -26 138 -114
22 -43 40 -80 40 -82 0 -11 -25 2 -57 30 -58 51 -129 97 -152 97 -11 0 -32 -5
-47 -10 -27 -11 -27 -11 -6 -25 11 -8 30 -31 42 -49 26 -43 48 -51 98 -35 30
9 44 9 61 0 l22 -12 -27 -32 c-14 -17 -36 -32 -48 -33 -11 0 -32 -7 -46 -14
-14 -8 -29 -13 -33 -12 -5 1 -6 -2 -3 -7 7 -11 -13 -59 -32 -80 -7 -7 -11 -16
-8 -18 10 -10 87 10 111 29 24 18 72 98 60 98 -3 0 1 14 10 30 16 31 45 39 62
18 21 -28 63 -147 78 -222 16 -83 20 -166 8 -165 -5 0 -23 19 -41 42 -31 38
-33 45 -27 91 5 38 1 64 -16 113 -13 34 -26 63 -30 63 -4 0 -9 -21 -11 -47 -5
-45 -1 -59 43 -170 5 -13 6 -23 3 -23 -22 0 -76 34 -100 63 -28 34 -49 42
-103 39 -16 -2 -21 -7 -18 -16 4 -10 -4 -17 -24 -21 -32 -7 -37 -26 -13 -46
14 -12 14 -14 -2 -26 -14 -11 -15 -15 -3 -29 20 -24 94 -14 148 20 l44 28 41
-18 c22 -10 48 -24 56 -31 12 -11 7 -13 -33 -13 -54 0 -106 -19 -136 -49 -16
-16 -21 -33 -21 -73 0 -52 1 -52 18 -32 9 11 34 33 55 49 20 15 40 39 43 52 8
29 43 45 84 37 25 -6 30 -11 30 -37 0 -16 -24 -102 -54 -191 -53 -158 -76
-264 -56 -251 6 3 10 18 10 32 0 36 25 127 55 201 37 92 75 239 75 294 0 94
33 122 90 78 34 -26 59 -24 94 7 29 24 29 26 11 39 -22 16 -96 19 -111 4 -13
-13 -54 -22 -54 -12 0 17 32 52 48 52 9 0 32 13 50 28 26 22 34 38 41 82 5 30
8 56 6 58 -6 7 -115 -69 -129 -90 -9 -12 -16 -41 -16 -63 -1 -22 -9 -57 -19
-78 l-18 -39 -6 54 c-4 29 -14 74 -22 100 -14 40 -14 52 -2 94 7 26 19 50 24
51 6 2 27 -10 46 -26 31 -28 37 -30 66 -20 33 12 51 35 51 67 0 11 9 22 20 25
26 7 25 27 -5 87 -17 33 -32 50 -47 52 -13 2 -28 15 -36 31 -16 33 -32 34 -59
5 -34 -38 -51 -81 -51 -129 1 -50 -22 -169 -33 -169 -3 0 -14 20 -23 45 -14
35 -16 60 -10 112 6 61 11 71 50 113 23 25 46 59 50 75 4 17 11 36 17 43 19
24 -1 23 -42 -2 -49 -31 -81 -89 -82 -148 0 -24 -3 -60 -7 -81 l-7 -37 -32 60
c-30 56 -31 62 -18 93 7 18 26 39 41 47 24 13 71 96 61 107 -2 2 -15 0 -28 -5
-59 -22 -77 -23 -82 -2 -5 20 -17 22 -64 13z m50 -26 c2 -7 2 -30 -2 -52 -7
-45 -35 -60 -46 -26 -3 12 -10 21 -15 21 -15 0 -22 40 -10 55 15 18 66 20 73
2z m102 -19 c-8 -29 -42 -58 -66 -58 -45 0 -29 48 23 66 47 17 50 17 43 -8z
m-187 -37 c45 -56 42 -71 -11 -71 -58 0 -87 22 -87 65 0 29 4 34 28 38 15 2
30 5 33 6 3 0 20 -17 37 -38z m266 -3 c-9 -30 -58 -91 -62 -78 -5 14 46 100
59 100 6 0 7 -9 3 -22z m-51 -23 c-9 -19 -18 -33 -21 -31 -4 5 26 66 33 66 3
0 -3 -16 -12 -35z m-113 -34 c0 -25 -14 -34 -40 -26 -26 8 -25 24 3 35 33 13
37 12 37 -9z m249 -26 c29 -43 24 -58 -29 -85 -33 -17 -45 -19 -56 -9 -8 6
-14 17 -14 23 0 15 58 106 68 106 4 0 18 -16 31 -35z m70 -53 c34 -66 32 -73
-24 -87 -42 -12 -53 -11 -72 1 -13 8 -23 19 -23 24 0 5 10 12 23 16 34 10 57
35 57 61 0 34 17 28 39 -15z m-431 -42 c47 -24 91 -59 75 -60 -24 0 -144 60
-138 70 9 14 21 13 63 -10z m5 -45 c26 -11 47 -23 47 -27 0 -13 -54 -8 -70 5
-22 17 -47 51 -35 46 6 -2 32 -13 58 -24z m313 -7 c7 -24 -9 -43 -31 -35 -19
8 -29 32 -22 51 8 20 45 9 53 -16z m98 -32 c-12 -42 -60 -60 -84 -31 -23 28
-4 50 45 51 42 1 45 0 39 -20z m0 -82 c-18 -15 -18 -15 4 -9 26 7 28 -4 8 -44
-15 -28 -64 -67 -73 -57 -8 7 30 66 39 60 4 -3 5 2 2 10 -3 9 -7 16 -9 16 -2
0 -15 -20 -29 -45 -30 -50 -36 -54 -36 -25 0 21 85 110 104 110 5 0 1 -7 -10
-16z m-324 -22 c0 -2 -12 -19 -27 -39 -31 -40 -103 -78 -103 -55 0 4 15 13 33
20 18 7 43 25 55 42 30 41 18 38 -22 -5 -42 -44 -63 -47 -41 -5 18 36 41 50
78 48 15 -1 27 -4 27 -6z m67 -114 c-2 -13 -4 -5 -4 17 -1 22 1 32 4 23 2 -10
2 -28 0 -40z m32 -36 c1 -13 -3 -20 -9 -17 -5 3 -10 23 -9 43 0 30 2 33 9 17
5 -11 9 -30 9 -43z m256 -1 c8 -14 -6 -19 -42 -14 -18 3 -30 9 -27 14 7 12 61
12 69 0z m-387 -28 c11 -22 5 -43 -12 -43 -7 0 -25 14 -41 30 l-29 30 37 0
c24 0 39 -6 45 -17z m376 -11 c-18 -9 -29 -10 -44 -2 -28 15 -26 17 24 16 43
-1 44 -2 20 -14z m-434 -17 c10 -12 8 -16 -15 -25 -33 -13 -31 -13 -51 7 -15
16 -15 17 2 24 30 12 51 10 64 -6z m92 -20 c0 -5 -5 -11 -11 -13 -6 -2 -11 4
-11 13 0 9 5 15 11 13 6 -2 11 -8 11 -13z m-43 -14 c21 -13 6 -27 -43 -41 -30
-8 -50 -9 -62 -2 -15 8 -12 12 22 30 43 23 62 26 83 13z m55 -93 c-5 -8 -2 -9
9 -5 38 14 2 -36 -50 -72 -45 -30 -42 -7 3 35 19 19 32 34 28 34 -4 0 -18 -10
-31 -22 -13 -12 -23 -17 -23 -11 0 6 15 20 33 32 37 24 41 25 31 9z"/>
<path d="M1070 2776 c0 -6 30 -78 42 -103 6 -13 17 -23 23 -23 7 0 24 -9 39
-21 14 -11 26 -19 26 -17 0 3 -7 27 -15 54 -11 37 -25 57 -56 82 -38 29 -59
39 -59 28z m80 -69 c5 2 6 -5 3 -14 -4 -9 -2 -14 3 -10 6 3 11 -3 11 -14 2
-21 1 -22 -21 -13 -14 5 -57 85 -56 103 1 3 12 -7 26 -24 13 -16 29 -29 34
-28z"/>
<path d="M2884 2693 c0 -27 -4 -77 -9 -113 l-7 -65 46 -61 c25 -34 46 -69 46
-78 0 -9 7 -19 15 -22 25 -10 19 -95 -10 -150 -14 -26 -25 -60 -25 -75 0 -65
-65 -189 -90 -174 -4 3 -11 25 -15 51 -5 33 -2 52 9 69 9 14 16 31 16 40 0 30
-38 90 -89 140 l-51 49 -36 -34 c-40 -39 -64 -79 -64 -109 0 -27 47 -63 116
-91 33 -13 63 -26 67 -30 5 -4 12 -34 17 -66 12 -85 -13 -120 -122 -173 -95
-46 -83 -56 15 -12 54 25 75 42 135 113 39 47 77 102 86 122 21 50 63 67 148
60 35 -3 70 -1 78 5 13 9 32 135 22 145 -3 4 -34 -5 -96 -27 -19 -7 -34 -24
-46 -53 -12 -27 -30 -49 -49 -59 l-31 -16 0 39 c0 23 11 59 26 87 19 36 25 61
23 96 -2 42 1 50 29 74 40 33 54 82 50 165 -3 58 -5 65 -23 62 -15 -2 -27 10
-45 44 -18 34 -38 52 -72 70 -26 13 -51 24 -55 24 -4 0 -8 -21 -9 -47z m67 3
c35 -24 69 -78 69 -109 0 -8 -7 -20 -15 -27 -23 -19 -35 -75 -23 -116 5 -20 7
-39 3 -42 -6 -7 -40 31 -82 91 -26 37 -26 41 -15 96 7 31 12 74 12 94 0 20 3
37 8 37 4 0 24 -11 43 -24z m125 -142 c9 -37 -13 -128 -37 -149 -22 -21 -22
-21 -38 24 -18 53 -13 78 20 116 37 42 47 43 55 9z m-79 -179 c0 -8 -4 -12 -9
-9 -5 3 -6 10 -3 15 9 13 12 11 12 -6z m-219 -152 c63 -77 78 -118 46 -130
-28 -10 -81 52 -90 105 -2 15 -6 37 -9 50 -8 35 10 26 53 -25z m-67 10 c2 -69
33 -126 84 -153 46 -25 18 -22 -52 5 -106 42 -126 79 -75 140 33 41 42 43 43
8z m429 -37 c0 -14 -54 -66 -69 -66 -31 0 -13 43 27 64 34 19 42 19 42 2z m23
-43 c-8 -57 -43 -76 -98 -54 -18 7 -16 10 16 24 20 8 45 27 55 41 26 35 34 32
27 -11z"/>
<path d="M552 2548 c-23 -29 -32 -52 -32 -78 0 -40 31 -90 56 -90 9 0 14 -11
14 -33 0 -18 4 -37 10 -43 10 -10 -9 -274 -20 -274 -8 0 -20 63 -26 135 -7 82
-16 105 -61 160 -54 67 -63 62 -63 -35 0 -69 25 -130 54 -130 20 0 53 -31 61
-57 6 -20 3 -23 -25 -23 -17 0 -57 12 -88 27 l-56 26 -55 -19 c-30 -11 -56
-24 -57 -29 -3 -11 123 -76 147 -75 8 0 28 14 44 30 82 85 150 -25 110 -178
-36 -142 -73 -226 -125 -286 -25 -29 -123 -96 -139 -96 -5 0 -8 32 -6 71 1 40
-3 94 -11 122 -12 47 -12 51 12 86 31 46 33 117 3 155 -26 33 -35 33 -54 -4
-9 -17 -24 -30 -34 -30 -26 0 -44 -52 -29 -85 6 -14 15 -25 20 -25 4 0 8 -9 8
-20 0 -12 10 -24 24 -30 33 -12 36 -19 42 -102 8 -97 -6 -147 -57 -198 -57
-57 -39 -64 19 -8 57 56 138 98 188 98 21 0 49 -9 66 -22 42 -30 113 -35 179
-12 30 10 58 17 62 16 5 -1 7 7 5 19 -7 50 -199 80 -251 39 -26 -20 -57 -27
-57 -12 0 5 29 37 65 71 35 34 74 75 85 92 13 17 30 29 44 29 81 0 121 48 129
158 5 67 4 72 -14 72 -60 0 -108 -60 -124 -155 -4 -22 -15 -49 -25 -60 -9 -11
-27 -37 -39 -57 -13 -21 -27 -38 -32 -38 -12 0 -12 1 12 54 11 26 31 89 44
140 27 107 50 151 116 222 49 52 77 120 59 138 -7 7 -10 0 -10 -17 0 -34 -20
-75 -49 -101 -16 -14 -21 -16 -21 -5 0 11 -2 11 -10 -1 -16 -24 -13 18 6 81
23 76 34 95 45 78 7 -11 10 -9 15 9 4 12 13 22 20 22 8 0 14 9 14 20 0 29 -14
25 -49 -15 -45 -52 -58 -81 -71 -170 -7 -44 -18 -93 -25 -110 l-13 -30 -1 33
c-3 100 22 280 45 336 25 60 27 78 5 52 -22 -26 -41 -7 -41 40 0 49 17 94 36
94 16 0 24 -23 24 -73 0 -31 3 -38 10 -27 23 36 -4 120 -39 120 -12 0 -21 10
-25 25 -9 36 -27 31 -64 -17z m52 -45 c-4 -26 -7 -60 -5 -75 3 -34 -14 -36
-46 -6 -32 30 -30 70 8 113 40 45 55 35 43 -32z m30 -151 c2 -4 1 -14 -4 -22
-7 -11 -12 -12 -21 -3 -6 6 -8 16 -5 22 8 13 23 14 30 3z m-98 -139 c9 -63 -3
-65 -28 -5 -12 29 -26 52 -30 52 -13 0 -9 -12 12 -48 24 -39 24 -42 5 -42 -35
0 -66 96 -44 137 l14 25 32 -37 c21 -24 34 -53 39 -82z m-118 -120 c2 -8 -6
-13 -21 -13 -32 0 -57 9 -57 22 0 14 73 5 78 -9z m31 -29 c2 -2 -2 -10 -9 -19
-18 -22 -59 -18 -105 10 l-40 25 75 -6 c41 -4 77 -8 79 -10z m291 -141 c0 -11
-19 -28 -50 -44 -58 -31 -66 -19 -21 30 32 34 71 42 71 14z m-446 -35 c20 -28
20 -61 1 -98 -14 -27 -18 -28 -40 -18 -20 9 -25 18 -25 50 0 37 23 88 41 88 4
0 15 -10 23 -22z m439 -52 c-4 -58 -50 -95 -81 -64 -20 20 -13 55 15 78 38 30
69 23 66 -14z m-523 -16 c0 -16 -4 -30 -10 -30 -5 0 -10 14 -10 30 0 17 5 30
10 30 6 0 10 -13 10 -30z m434 -65 c3 -9 0 -15 -9 -15 -8 0 -15 7 -15 15 0 8
4 15 9 15 5 0 11 -7 15 -15z m-384 -11 c0 -17 -22 -14 -28 4 -2 7 3 12 12 12
9 0 16 -7 16 -16z m409 -207 c23 -10 16 -12 -54 -17 -85 -5 -125 -2 -125 10 0
29 119 34 179 7z m25 -37 c-6 -6 -35 -15 -65 -21 -42 -9 -60 -8 -84 2 -29 13
-28 14 45 19 41 4 84 7 95 8 13 1 16 -1 9 -8z"/>
<path d="M5446 2483 c-6 -14 -5 -15 5 -6 7 7 10 15 7 18 -3 3 -9 -2 -12 -12z"/>
<path d="M2038 2397 c-9 -9 -23 -15 -30 -12 -29 11 -56 -37 -62 -110 -3 -41
-17 -101 -34 -145 -16 -41 -32 -84 -36 -94 -3 -10 -9 -16 -12 -13 -3 3 4 40
16 84 19 67 20 85 11 121 -14 51 -30 55 -28 8 1 -19 7 -34 12 -33 12 2 7 -64
-5 -77 -5 -5 -6 -16 -2 -25 5 -14 4 -14 -11 1 -19 19 -23 50 -12 92 6 20 5 27
-3 22 -20 -12 -24 -71 -8 -111 19 -44 20 -82 5 -190 -17 -128 -21 -138 -30
-75 -5 31 -4 70 1 90 15 56 12 77 -17 106 l-27 27 -17 -39 c-10 -21 -18 -56
-18 -76 -1 -38 22 -78 46 -78 7 0 15 -17 19 -37 4 -21 12 -49 19 -63 19 -39
27 -80 15 -80 -6 0 -14 10 -19 23 -11 28 -28 42 -61 51 -47 13 -108 17 -114 8
-3 -5 14 -28 39 -51 41 -38 49 -41 101 -41 50 0 59 -3 86 -32 17 -18 44 -62
60 -98 16 -36 35 -72 42 -80 19 -22 37 -80 25 -80 -25 0 -68 32 -82 62 -27 56
-90 98 -148 98 -29 0 -30 -60 -1 -88 13 -12 21 -26 17 -31 -7 -12 14 -18 95
-26 118 -13 140 -40 140 -175 0 -65 -23 -177 -40 -193 -16 -17 -28 87 -16 139
8 34 -13 68 -62 102 l-27 20 -2 -60 c-3 -57 -1 -62 32 -92 47 -43 63 -115 42
-183 -23 -71 -31 -117 -19 -109 5 3 12 24 16 47 4 22 17 62 31 88 13 27 35 89
50 139 33 120 43 139 74 151 53 20 92 64 107 121 15 58 13 70 -11 50 -8 -7
-22 -10 -30 -6 -9 3 -14 2 -11 -3 3 -5 -5 -16 -19 -25 -29 -19 -56 -70 -79
-148 -9 -32 -19 -58 -22 -58 -4 0 -4 8 -2 18 3 9 -2 62 -10 117 -21 146 -21
147 27 193 41 39 42 40 39 105 -3 59 -5 64 -21 55 -10 -5 -32 -30 -48 -56 -27
-42 -30 -53 -25 -99 3 -28 2 -54 -2 -57 -14 -8 -54 72 -54 107 0 18 5 45 11
60 17 43 61 96 75 91 7 -3 19 2 26 11 7 8 18 15 25 15 7 0 16 7 19 16 9 24 7
54 -4 54 -5 0 -10 11 -10 25 0 18 -5 25 -19 25 -31 0 -62 -48 -59 -90 1 -26
-6 -46 -24 -71 -14 -19 -29 -45 -33 -59 -4 -13 -13 -30 -21 -37 -10 -11 -16
-8 -32 14 -11 16 -27 52 -35 81 -14 47 -14 62 -1 144 22 135 50 186 98 174 17
-4 26 -15 31 -36 7 -33 8 -33 82 -34 62 -1 67 10 22 48 -22 19 -42 26 -72 26
-23 0 -48 4 -56 9 -23 14 4 40 40 39 16 -1 38 7 49 17 19 17 57 102 49 110
-11 10 -106 -54 -126 -85 -65 -102 -77 -103 -37 -3 33 83 60 119 97 128 15 4
35 18 44 31 14 23 15 30 2 71 -13 43 -16 45 -31 30z m22 -47 c8 -27 6 -35 -16
-57 -19 -19 -28 -23 -37 -14 -8 8 -8 14 1 23 7 7 12 20 12 31 0 21 19 61 26
54 3 -2 9 -19 14 -37z m-50 0 c0 -12 -8 -35 -17 -53 -9 -18 -17 -36 -18 -41 0
-5 -6 -11 -14 -14 -9 -3 -11 0 -5 9 4 7 7 27 6 43 -3 30 21 76 38 76 6 0 10
-9 10 -20z m32 -209 c-10 -14 -28 -28 -38 -30 -17 -3 -16 0 6 25 l25 28 -37
-27 c-21 -16 -38 -24 -38 -19 0 11 61 68 80 74 23 7 24 -21 2 -51z m-232 -162
c0 -25 -2 -24 -29 11 -27 37 -17 65 11 31 10 -13 18 -32 18 -42z m246 46 c15
-11 16 -14 3 -15 -8 0 -24 7 -35 15 -15 11 -16 14 -3 15 8 0 24 -7 35 -15z
m-49 -6 c6 -6 26 -15 45 -19 l33 -8 -42 -1 c-33 -1 -45 4 -53 19 -12 22 -1 27
17 9z m-235 -46 c21 -19 24 -59 4 -66 -21 -8 -36 13 -36 50 0 37 6 40 32 16z
m18 -83 c0 -5 -4 -10 -10 -10 -5 0 -10 5 -10 10 0 6 5 10 10 10 6 0 10 -4 10
-10z m270 -44 c0 -34 -35 -75 -51 -59 -14 14 -5 55 17 77 20 20 34 12 34 -18z
m17 -51 c-4 -8 -11 -15 -17 -15 -6 0 -6 7 2 20 14 22 24 19 15 -5z m-313 -54
c41 -22 43 -38 6 -46 -22 -5 -39 -2 -58 11 -32 20 -52 46 -46 56 7 11 64 -2
98 -21z m264 -140 c-23 -62 -38 -77 -38 -41 0 32 46 117 57 106 3 -2 -6 -32
-19 -65z m42 11 c0 -17 -10 -38 -25 -52 -30 -28 -30 -27 -9 33 18 53 34 61 34
19z m-206 -121 c31 -31 28 -58 -4 -41 -10 5 -32 10 -49 10 -34 0 -61 23 -61
52 0 19 4 20 43 14 27 -4 52 -17 71 -35z m1 -61 c4 -6 -8 -10 -29 -10 -19 0
-38 5 -41 10 -4 6 8 10 29 10 19 0 38 -4 41 -10z m37 -5 c0 -5 -5 -11 -11 -13
-6 -2 -11 4 -11 13 0 9 5 15 11 13 6 -2 11 -8 11 -13z m281 -24 c-9 -41 -21
-58 -59 -87 -71 -55 -65 30 7 90 37 32 60 30 52 -3z m-244 -215 l-1 -31 -11
25 c-7 14 -20 36 -29 50 -28 38 -21 47 12 15 21 -20 30 -38 29 -59z m-34 9
c11 -19 16 -38 11 -42 -10 -11 -46 34 -46 58 0 29 15 23 35 -16z"/>
<path d="M1680 1746 c15 -16 90 -50 90 -41 0 2 -24 16 -52 31 -31 15 -47 19
-38 10z"/>
<path d="M2141 1380 c-12 -22 -31 -45 -42 -50 -10 -6 -19 -15 -19 -21 0 -18
48 26 70 64 12 21 20 40 18 43 -3 2 -15 -14 -27 -36z"/>
<path d="M4476 2279 c-11 -17 -13 -26 -5 -36 6 -7 15 -10 20 -8 8 6 39 -45 39
-65 0 -6 -10 0 -23 13 -18 20 -24 22 -35 11 -30 -32 0 -81 33 -54 24 20 30 3
16 -48 -17 -64 -27 -71 -39 -28 -6 19 -26 52 -46 73 -20 21 -39 48 -42 61 -8
30 -19 28 -34 -7 -16 -39 -3 -62 68 -127 l56 -52 -11 -46 c-13 -58 -1 -61 14
-3 17 63 40 85 113 110 57 19 69 28 97 72 18 27 33 54 33 60 0 5 -5 2 -11 -9
-6 -10 -44 -33 -84 -51 -40 -19 -76 -39 -80 -45 -6 -9 -2 -9 14 -1 12 7 26 9
32 6 5 -4 25 3 44 14 39 23 48 12 11 -13 -24 -15 -91 -27 -111 -20 -6 2 -9 26
-7 54 3 40 8 50 22 50 28 0 43 25 31 49 -10 17 -16 19 -37 11 -36 -14 -42 -13
-54 10 -6 12 -7 20 -1 20 5 0 12 -8 15 -17 3 -11 4 -8 3 6 -3 33 -22 37 -41
10z m104 -54 c0 -16 -35 -21 -44 -6 -8 12 4 21 26 21 10 0 18 -7 18 -15z
m-136 -129 c16 -20 26 -39 22 -43 -8 -9 -74 54 -90 87 -21 40 -7 56 18 22 11
-16 34 -46 50 -66z m60 75 c3 -5 -1 -14 -9 -21 -8 -7 -15 -10 -15 -7 0 3 -3
12 -6 21 -7 17 20 23 30 7z m136 -46 c-14 -8 -29 -14 -35 -14 -5 0 1 6 15 14
14 8 30 14 35 14 6 0 -1 -6 -15 -14z"/>
<path d="M1900 2280 c0 -5 5 -10 11 -10 5 0 7 5 4 10 -3 6 -8 10 -11 10 -2 0
-4 -4 -4 -10z"/>
<path d="M3696 2137 c3 -10 9 -15 12 -12 3 3 0 11 -7 18 -10 9 -11 8 -5 -6z"/>
<path d="M4620 2066 c0 -2 8 -10 18 -17 15 -13 16 -12 3 4 -13 16 -21 21 -21
13z"/>
<path d="M1922 1850 c-31 -49 -35 -82 -21 -147 12 -53 13 -55 19 -28 3 17 14
48 25 70 19 41 21 77 6 117 -8 23 -9 22 -29 -12z m24 -62 c-4 -24 -11 -50 -17
-58 -10 -14 -8 7 7 75 l4 20 -9 -20 c-5 -11 -12 -33 -16 -49 -9 -41 -18 -25
-9 18 6 36 31 72 41 62 3 -3 2 -24 -1 -48z"/>
<path d="M367 1797 c-35 -50 -37 -58 -37 -129 0 -46 -6 -90 -16 -113 -8 -20
-13 -39 -10 -42 3 -3 11 10 19 28 8 19 24 43 37 54 38 33 62 103 61 174 0 35
-4 68 -9 73 -5 5 -25 -16 -45 -45z m36 -16 c14 34 5 -63 -9 -104 -21 -61 -39
-73 -31 -21 l6 39 -14 -35 -15 -35 4 63 c4 64 31 116 47 91 5 -8 8 -7 12 2z"/>
<path d="M409 1603 c-13 -16 -12 -17 4 -4 9 7 17 15 17 17 0 8 -8 3 -21 -13z"/>
<path d="M2903 1443 c-16 -99 1 -189 42 -223 9 -8 26 -32 37 -54 17 -34 19
-51 14 -120 -8 -99 -16 -146 -25 -146 -14 0 -71 121 -71 150 0 17 -5 41 -11
53 -17 33 -61 77 -71 71 -4 -3 5 -17 22 -30 31 -27 55 -90 44 -118 -6 -15 -8
-15 -31 -1 -14 9 -27 14 -30 12 -2 -3 15 -17 39 -31 32 -18 51 -40 72 -81 26
-51 27 -61 21 -133 -8 -89 -39 -167 -89 -222 -47 -52 -52 -63 -80 -181 -32
-133 -51 -188 -78 -216 l-21 -23 -22 62 c-19 55 -20 66 -8 110 10 41 10 56 -2
91 -8 23 -19 66 -25 95 -7 28 -15 52 -18 52 -10 0 -52 -102 -52 -125 0 -29 42
-139 80 -210 25 -47 30 -67 25 -95 l-5 -35 44 50 c32 35 52 70 67 118 12 38
28 75 36 83 24 24 63 28 99 11 18 -9 62 -21 98 -27 62 -11 66 -11 126 18 33
17 56 33 51 37 -16 9 -115 34 -120 29 -5 -5 46 -24 64 -24 31 0 22 -19 -15
-34 -51 -20 -92 -20 -158 -1 -47 14 -70 35 -39 35 8 0 8 3 -2 9 -8 5 -16 17
-17 26 -4 29 -14 30 -14 2 0 -19 -8 -31 -30 -42 -55 -28 -59 -20 -35 63 9 31
33 72 60 103 44 51 85 123 85 147 0 17 56 38 123 46 32 3 72 13 88 21 26 14
69 79 69 105 0 15 -115 12 -154 -4 -22 -9 -44 -30 -60 -59 -15 -25 -33 -51
-41 -57 -13 -11 -15 -6 -15 26 0 22 7 67 15 102 8 34 17 95 21 135 8 103 12
117 38 127 24 9 31 28 42 132 7 54 -11 118 -32 118 -7 0 -39 23 -69 50 -30 28
-59 50 -64 50 -6 0 -13 -21 -18 -47z m76 -22 l45 -38 -19 -39 c-16 -33 -16
-44 -5 -87 7 -26 9 -51 6 -55 -19 -19 -81 59 -92 114 -7 38 4 144 14 144 4 0
27 -18 51 -39z m87 -73 c16 -50 -1 -158 -25 -158 -10 0 -31 76 -31 112 0 25
25 68 40 68 5 0 12 -10 16 -22z m-31 -171 c13 -10 15 -16 6 -21 -17 -11 -41 0
-41 19 0 19 11 19 35 2z m153 -319 c-5 -13 -148 -91 -155 -84 -4 4 5 24 25 54
19 28 138 56 130 30z m22 -26 c0 -20 -59 -62 -100 -71 -78 -18 -77 -12 5 33
86 47 95 50 95 38z m-561 -477 c1 -16 -3 -36 -8 -44 -17 -27 -39 114 -31 199
2 23 39 -121 39 -155z m-36 -40 c4 -16 -5 4 -19 45 -16 50 -23 83 -18 100 6
20 10 11 19 -45 7 -38 15 -83 18 -100z"/>
<path d="M4510 1360 c-62 -34 -120 -93 -120 -124 -1 -28 -26 -58 -73 -84 -47
-27 -49 -27 -45 1 2 17 9 22 35 22 38 0 43 4 53 48 7 32 6 34 -14 29 -11 -3
-27 -9 -33 -15 -8 -5 -13 -6 -13 0 0 15 23 33 41 33 25 0 42 26 35 56 -5 20
-12 25 -34 22 -24 -3 -28 -8 -33 -45 -3 -24 -9 -46 -13 -50 -5 -5 -6 1 -2 13
8 27 -16 59 -39 51 -14 -6 -16 -14 -11 -45 26 -142 23 -150 -73 -225 l-61 -48
0 45 c0 39 4 48 40 78 47 41 60 72 49 113 -5 16 -10 47 -11 68 -1 21 -6 36
-12 34 -6 -2 -28 -36 -50 -76 -39 -73 -50 -132 -32 -176 4 -12 -5 -6 -23 15
-25 28 -31 43 -31 81 0 58 -13 94 -38 108 -28 15 -39 1 -53 -68 l-13 -63 32
-29 c19 -18 44 -29 61 -29 59 0 84 -83 48 -155 -28 -57 -76 -229 -84 -303 l-6
-63 -24 42 c-20 36 -22 50 -17 105 l7 63 -39 35 -39 36 -7 -28 c-3 -15 -12
-41 -19 -59 -17 -42 -3 -73 53 -113 68 -49 84 -90 93 -239 4 -51 11 -104 16
-118 11 -30 11 -33 -1 -33 -16 0 -38 54 -33 81 6 32 -18 80 -53 108 -35 27
-44 20 -44 -36 l0 -45 -36 4 c-30 4 -38 0 -56 -25 -24 -34 -18 -52 25 -77 24
-13 30 -13 59 3 18 10 42 25 52 32 19 15 19 16 -5 42 -15 17 -26 42 -27 63 -2
34 -1 33 28 -23 17 -32 29 -64 28 -72 -2 -8 18 -34 43 -57 40 -38 50 -56 84
-157 22 -63 41 -109 43 -103 2 6 -15 64 -38 129 -77 221 -87 278 -49 301 17
11 24 10 50 -12 54 -46 170 -61 177 -24 2 12 -13 28 -45 49 -43 28 -54 30
-107 26 l-59 -5 72 39 c40 21 76 39 81 39 32 0 60 27 79 78 12 30 19 57 17 59
-2 3 -21 -1 -42 -9 -44 -15 -104 -82 -104 -115 0 -17 -12 -29 -48 -47 -27 -14
-56 -36 -66 -50 -9 -14 -21 -26 -25 -26 -5 0 -9 48 -8 108 2 102 4 109 32 149
17 24 35 43 40 43 6 0 16 -13 23 -30 15 -34 28 -37 60 -14 29 20 30 67 1 85
-20 14 -19 14 13 14 31 0 33 2 33 35 0 32 -2 35 -29 35 -17 0 -31 -6 -34 -15
-5 -13 -3 -13 11 -1 14 11 20 11 32 1 19 -16 19 -39 0 -47 -20 -7 -55 24 -55
49 0 24 -26 34 -46 17 -12 -10 -14 -23 -9 -59 5 -37 3 -49 -11 -61 -9 -8 -26
-27 -36 -44 l-19 -30 7 30 c51 226 118 337 190 316 16 -4 45 -18 64 -30 45
-27 80 -27 141 1 45 21 63 38 40 38 -5 0 -32 14 -60 31 -46 29 -52 30 -85 19
-20 -6 -41 -20 -46 -31 -10 -18 -70 -28 -70 -11 0 9 134 112 145 112 5 0 23
11 41 25 18 14 42 25 53 25 26 0 119 59 126 80 6 19 17 110 13 110 -2 0 -28
-14 -58 -30z m36 -62 c-6 -25 -95 -88 -123 -87 -15 0 -13 3 7 17 44 30 90 74
102 96 7 14 -1 10 -28 -14 -78 -71 -94 -83 -100 -78 -7 8 25 59 50 78 11 8 34
23 50 32 29 16 31 16 40 -2 5 -10 6 -29 2 -42z m-186 26 c11 -12 11 -18 -2
-31 -19 -18 -38 -10 -38 16 0 33 20 40 40 15z m-214 -90 c-13 -32 -27 -76 -31
-98 -5 -22 -11 -33 -15 -26 -13 21 7 97 43 158 29 49 30 33 3 -34z m139 46 c0
-8 -8 -16 -17 -18 -13 -2 -18 3 -18 18 0 15 5 20 18 18 9 -2 17 -10 17 -18z
m-274 -16 c17 -20 21 -144 5 -144 -31 0 -56 32 -56 70 0 21 5 42 10 45 6 3 10
1 10 -5 0 -17 30 -84 35 -78 2 2 -4 28 -15 56 -11 29 -20 57 -20 62 0 15 16
12 31 -6z m175 -79 c-3 -13 -19 -33 -36 -45 l-29 -21 13 43 c8 24 19 57 26 73
l12 30 10 -28 c6 -15 7 -39 4 -52z m104 53 c0 -7 -5 -20 -10 -28 -8 -12 -10
-9 -10 13 0 15 5 27 10 27 6 0 10 -6 10 -12z m54 -35 c-15 -24 -33 -27 -41 -7
-8 21 26 49 41 34 7 -7 7 -16 0 -27z m31 -145 c27 -12 33 -27 13 -29 -31 -2
-113 3 -118 8 -9 8 33 33 56 33 13 0 35 -5 49 -12z m28 -55 c-9 -7 -38 -13
-63 -13 -25 0 -54 6 -63 13 -14 10 -4 12 63 12 67 0 77 -2 63 -12z m-289 -166
c-3 -9 -12 -17 -20 -17 -17 0 -19 37 -1 43 18 7 29 -7 21 -26z m-196 -41 c23
-34 24 -80 3 -114 -18 -30 -61 21 -61 73 0 44 18 36 35 -16 9 -27 19 -48 22
-45 4 4 -13 65 -35 124 -9 25 14 11 36 -22z m198 -4 c-22 -23 -29 -10 -9 18
11 16 18 19 21 11 2 -7 -3 -20 -12 -29z m46 -37 c13 -29 -3 -55 -33 -55 -14 0
-19 7 -19 28 0 27 15 52 32 52 5 0 13 -11 20 -25z m108 -100 c17 11 -13 -60
-33 -78 -31 -27 -32 -12 -2 28 15 19 26 38 23 40 -3 3 -19 -15 -37 -40 -30
-42 -61 -59 -61 -34 0 19 92 106 97 91 3 -6 9 -10 13 -7z m-87 -202 c48 -25 9
-29 -45 -4 -40 18 -41 19 -15 20 15 1 42 -7 60 -16z m5 -32 c25 -3 47 -12 50
-20 7 -21 -76 -7 -122 20 -44 26 -48 46 -4 23 17 -9 51 -19 76 -23z m-239 -10
c21 -29 28 -61 14 -61 -11 1 -54 90 -43 90 5 0 18 -13 29 -29z m-50 -55 c31
-17 17 -24 -41 -18 -32 3 -48 9 -48 18 0 18 56 18 89 0z m-19 -35 l25 -7 -22
-12 c-32 -18 -68 -15 -88 8 -18 20 -17 20 21 19 21 -1 50 -4 64 -8z"/>
<path d="M988 1263 c-43 -46 -51 -70 -43 -132 3 -31 9 -65 12 -76 3 -12 -10
-3 -35 25 -44 49 -47 81 -10 110 23 19 42 90 24 90 -6 0 -20 -7 -30 -15 -24
-18 -53 -19 -59 -2 -3 9 -13 8 -40 -5 -21 -10 -37 -22 -37 -28 0 -5 -7 -10
-15 -10 -31 0 -65 -23 -65 -45 0 -40 30 -56 103 -53 l67 3 52 -52 c29 -29 49
-55 45 -59 -4 -4 -33 5 -66 20 -78 35 -117 42 -147 26 -25 -14 -32 -30 -13
-30 6 0 25 -12 42 -26 33 -27 54 -28 114 -3 18 7 35 11 38 7 14 -13 -17 -58
-48 -72 -27 -11 -38 -24 -51 -62 -9 -26 -14 -49 -12 -52 3 -2 21 2 42 10 28
10 42 23 55 53 10 22 19 49 19 60 0 11 7 31 16 43 l16 23 34 -38 c54 -59 144
-253 117 -253 -4 0 -19 10 -33 23 -19 18 -34 23 -61 19 -28 -3 -42 2 -67 23
-27 22 -39 26 -67 21 -20 -4 -39 -16 -46 -27 -6 -11 -16 -18 -24 -15 -18 7
-12 -24 8 -39 12 -9 13 -15 5 -23 -18 -18 18 -26 61 -14 20 7 48 23 61 37 24
26 65 32 105 15 18 -7 18 -9 3 -15 -14 -6 -39 -12 -59 -14 -3 -1 -20 -15 -38
-31 -31 -31 -38 -63 -22 -105 7 -18 9 -17 25 13 9 17 20 32 25 32 9 0 37 60
34 72 -2 4 14 12 34 17 58 16 65 3 52 -94 -22 -170 -22 -255 0 -319 25 -72 19
-87 -9 -23 -25 56 -144 160 -163 141 -8 -8 52 -102 90 -141 18 -18 41 -33 50
-33 21 -1 49 -23 81 -64 29 -38 28 -26 -7 48 -39 83 -44 122 -27 205 16 76 37
113 75 131 32 15 61 -11 61 -56 0 -31 3 -34 48 -47 26 -8 48 -11 50 -7 8 20
-21 62 -51 75 -18 7 -40 22 -50 33 -16 17 -16 20 -3 25 9 4 30 0 48 -7 18 -7
40 -12 48 -9 26 7 100 47 100 54 0 23 -129 25 -156 3 -19 -15 -19 -16 1 -9 39
14 102 17 109 7 10 -17 -39 -44 -71 -40 l-28 4 35 11 c34 11 33 11 -20 9 -30
-2 -70 -10 -87 -20 -53 -27 -38 -2 32 54 68 54 63 53 183 48 38 -2 67 23 77
65 7 25 5 27 -23 27 -17 0 -34 5 -37 10 -3 6 -21 10 -39 10 -28 0 -40 -8 -72
-47 -49 -62 -184 -191 -184 -177 0 6 18 32 41 58 40 45 76 130 60 140 -13 9
-21 -5 -21 -38 0 -36 -49 -111 -63 -97 -12 12 -2 55 18 75 9 8 11 17 6 21 -17
10 -41 -39 -41 -85 -1 -25 -10 -70 -21 -100 -11 -30 -27 -77 -35 -105 l-14
-50 4 50 c2 28 9 86 16 130 7 47 10 115 6 166 -8 104 2 121 55 94 30 -16 33
-16 58 3 14 10 27 27 29 36 5 24 -62 21 -104 -5 -28 -17 -34 -18 -34 -5 0 8
14 25 31 37 38 27 56 67 51 114 -3 29 -7 33 -18 24 -8 -6 -12 -15 -9 -19 3 -5
0 -12 -6 -16 -8 -5 -10 -2 -5 7 4 8 -9 -3 -29 -24 -34 -36 -36 -42 -31 -81 4
-23 3 -52 -1 -64 -7 -19 -13 -13 -44 48 -39 77 -43 140 -8 140 10 0 21 -4 24
-10 17 -27 96 5 94 38 0 13 -3 11 -9 -5 -9 -23 -51 -40 -69 -28 -23 13 -9 31
35 45 68 22 75 40 37 88 -25 31 -29 42 -20 52 7 7 0 5 -14 -4 -28 -17 -54 -14
-63 10 -9 24 -34 4 -51 -40 -13 -34 -15 -54 -7 -97 17 -95 7 -127 -26 -82 -23
32 -39 138 -22 148 18 11 41 65 46 106 3 21 3 39 1 39 -2 0 -15 -12 -29 -27z
m-63 -32 c-12 -38 -65 -52 -65 -17 0 13 60 49 68 41 2 -2 1 -13 -3 -24z m-77
-23 c4 -46 -13 -50 -48 -13 -19 21 -21 27 -10 40 7 9 23 15 34 13 16 -2 22
-11 24 -40z m138 -24 c-20 -30 -36 -31 -35 -1 0 21 1 21 10 2 8 -17 9 -16 6 7
-2 15 -1 25 4 23 4 -3 11 5 15 17 l8 23 4 -23 c2 -13 -4 -34 -12 -48z m-173
-22 c15 -18 -7 -32 -52 -32 -53 0 -81 48 -38 67 23 11 65 -6 90 -35z m277 23
c28 -29 22 -46 -22 -73 -43 -26 -56 -5 -34 53 10 25 21 45 25 45 4 0 18 -11
31 -25z m91 -57 c13 -24 -55 -60 -90 -47 l-23 9 32 30 c25 23 30 34 25 52 -7
23 -7 23 20 -2 15 -14 31 -33 36 -42z m-301 33 c0 -15 -28 -33 -40 -26 -8 5
-8 11 1 21 13 15 39 19 39 5z m198 -103 c2 -13 -3 -18 -17 -18 -12 0 -21 2
-21 4 0 2 -3 12 -6 21 -5 13 -2 16 17 13 13 -1 25 -11 27 -20z m-233 -19 l50
-19 -50 6 c-71 8 -96 15 -89 25 8 13 33 10 89 -12z m13 -34 c3 -2 -7 -7 -21
-10 -18 -5 -32 -1 -47 13 l-22 20 43 -9 c24 -6 45 -12 47 -14z m296 -44 c-9
-18 -14 -34 -12 -37 3 -2 13 14 23 36 20 45 35 52 35 17 0 -24 -31 -59 -62
-70 -26 -9 -23 27 4 63 27 37 33 33 12 -9z m-245 -53 c-16 -32 -40 -58 -64
-71 -12 -6 -5 7 18 31 20 23 37 45 37 50 0 4 -12 -8 -26 -25 -28 -36 -47 -44
-37 -15 8 23 44 52 66 52 15 0 16 -3 6 -22z m335 -37 c9 -13 -21 -33 -41 -28
-14 4 -14 5 4 6 12 0 24 5 27 9 3 5 -9 6 -26 4 -21 -3 -29 -1 -24 7 8 13 52
15 60 2z m-316 -93 c4 -21 -19 -24 -50 -7 -17 9 -18 13 -7 20 21 14 53 6 57
-13z m520 -4 c-2 -9 -21 -26 -43 -38 -22 -11 -41 -24 -43 -28 -2 -5 -11 -8
-20 -8 -15 1 -15 2 1 14 9 7 17 18 17 23 0 14 31 40 55 46 34 8 37 7 33 -9z
m-574 -10 c21 -8 2 -34 -24 -34 -26 0 -32 12 -12 26 21 16 17 15 36 8z m86 -4
c0 -5 -4 -10 -10 -10 -5 0 -10 5 -10 10 0 6 5 10 10 10 6 0 10 -4 10 -10z
m550 -3 c0 -32 -31 -57 -71 -57 -40 0 -53 16 -21 27 9 4 28 15 41 25 28 21 51
24 51 5z m-570 -22 c0 -11 -66 -45 -85 -45 -17 1 -16 4 10 25 26 22 75 34 75
20z m66 -73 c-8 -15 -24 -36 -36 -47 l-23 -20 7 28 c5 22 4 27 -6 21 -7 -4 -5
2 6 14 10 12 22 19 27 17 4 -3 10 -1 14 5 14 23 24 8 11 -18z m306 -182 c6 0
5 7 -2 15 -20 24 -6 28 15 5 14 -15 15 -20 4 -20 -11 0 -11 -2 1 -11 11 -8 9
-9 -10 -3 -34 9 -50 23 -49 43 0 12 4 11 16 -6 8 -13 20 -23 25 -23z m-259
-160 c41 -45 45 -57 20 -57 -23 0 -40 13 -74 61 -53 72 -11 69 54 -4z"/>
<path d="M988 355 c6 -11 28 -36 48 -55 39 -35 24 -14 -30 44 -16 18 -24 22
-18 11z"/>
<path d="M5200 1257 c0 -21 68 -101 100 -117 41 -21 108 -102 90 -108 -6 -2
-22 6 -35 18 -29 27 -56 23 -66 -11 -7 -27 -6 -27 46 -23 31 1 59 -2 67 -9 15
-12 71 -137 65 -143 -2 -2 -16 9 -30 26 -20 22 -36 30 -61 30 -18 0 -48 3 -65
6 -20 4 -31 3 -31 -5 0 -6 6 -11 13 -11 19 0 50 -37 42 -50 -3 -6 -3 -10 2 -9
4 1 21 -3 38 -10 16 -7 45 -11 63 -9 l35 3 28 -85 c16 -47 28 -101 28 -120 -1
-31 -2 -32 -8 -10 -10 35 -39 38 -43 5 l-3 -26 -17 33 c-9 18 -19 42 -23 53
l-7 20 -8 -20 c-4 -11 -4 -24 0 -30 4 -5 10 -27 14 -48 4 -21 10 -45 13 -53 3
-8 1 -14 -5 -14 -12 0 -30 44 -35 85 -3 26 -4 25 -6 -8 -1 -38 11 -70 35 -95
7 -7 18 -29 23 -49 10 -35 7 -42 -34 -109 -25 -39 -45 -74 -45 -77 0 -3 7 -8
16 -11 9 -3 12 -2 9 4 -4 6 9 36 28 68 71 117 95 176 107 257 7 44 21 95 31
113 11 18 19 48 19 66 0 48 -12 126 -19 126 -3 0 -17 -25 -30 -55 -23 -54 -23
-55 -5 -105 14 -39 15 -53 6 -62 -9 -9 -12 -9 -12 3 0 7 -16 63 -35 124 l-35
109 16 64 c15 59 15 67 -1 108 -18 48 -30 55 -40 23 -9 -27 4 -139 17 -139 5
0 6 -5 2 -11 -4 -7 -17 9 -30 37 -20 41 -22 53 -12 72 16 31 -2 50 -26 27 -15
-15 -16 -15 -17 2 -1 18 0 24 8 55 3 9 -4 24 -16 34 -11 10 -18 21 -15 25 2 4
-4 5 -14 2 -16 -4 -58 8 -114 32 -10 4 -18 5 -18 2z m126 -114 c-9 -9 -54 22
-69 47 -28 46 -19 47 28 0 24 -24 43 -45 41 -47z m0 61 c25 -12 34 -23 34 -40
0 -13 -2 -24 -4 -24 -5 0 -76 71 -76 76 0 7 12 4 46 -12z m148 -173 c-9 -47
-14 -52 -14 -13 0 18 -4 32 -10 32 -5 0 -10 15 -10 33 l1 32 20 -24 c15 -18
18 -32 13 -60z m-64 59 c0 -5 -4 -10 -10 -10 -5 0 -10 5 -10 10 0 6 5 10 10
10 6 0 10 -4 10 -10z m-60 -61 c0 -12 -21 -11 -40 1 -13 9 -13 11 0 19 15 10
40 -3 40 -20z m78 -141 c7 -6 11 -13 9 -15 -5 -5 -77 26 -77 33 0 9 52 -6 68
-18z m-72 3 c5 -5 26 -14 47 -21 20 -6 37 -15 37 -20 0 -14 -72 8 -94 29 -19
20 -11 31 10 12z m208 -68 c-9 -59 -16 -72 -24 -43 -7 27 6 80 20 80 5 0 6
-17 4 -37z m5 -77 c-9 -8 -10 -5 -5 14 3 14 7 36 8 50 1 14 3 8 5 -14 3 -22
-1 -43 -8 -50z m-98 -186 l2 -35 6 38 c6 36 7 37 26 24 19 -15 19 -16 2 -71
-18 -56 -37 -67 -37 -21 0 13 -4 34 -9 47 -4 13 -11 41 -15 63 -6 39 -6 39 8
15 9 -14 16 -41 17 -60z m39 59 c0 -5 -4 -9 -10 -9 -5 0 -10 7 -10 16 0 8 5
12 10 9 6 -3 10 -10 10 -16z"/>
<path d="M906 1147 c3 -10 9 -15 12 -12 3 3 0 11 -7 18 -10 9 -11 8 -5 -6z"/>
<path d="M2850 1056 c0 -2 7 -9 15 -16 13 -11 14 -10 9 4 -5 14 -24 23 -24 12z"/>
<path d="M968 893 c3 -21 14 -50 26 -64 11 -15 26 -35 33 -45 10 -16 12 -13 9
23 -2 38 -47 123 -65 123 -4 0 -5 -17 -3 -37z m55 -58 c7 -20 7 -20 -8 -1 -8
11 -15 16 -15 10 0 -14 -20 19 -20 34 0 18 35 -17 43 -43z"/>
<path d="M5495 870 c-3 -11 -2 -28 4 -37 9 -16 11 -15 20 10 11 29 8 47 -9 47
-5 0 -11 -9 -15 -20z m19 -15 c-4 -8 -8 -15 -10 -15 -2 0 -4 7 -4 15 0 8 4 15
10 15 5 0 7 -7 4 -15z"/>
<path d="M5495 389 c-4 -5 -4 -13 -1 -16 3 -4 6 0 6 8 0 11 2 11 10 -1 6 -9
10 -10 10 -3 0 17 -17 25 -25 12z"/>
</g>
</svg>
